<svg width="528" height="296" viewBox="0 0 528 296" fill="none" xmlns="http://www.w3.org/2000/svg">
<path fill-rule="evenodd" clip-rule="evenodd" d="M337.308 1.30202C327.08 4.06002 319.204 10.818 314.48 20.889C312.067 26.035 311.879 27.445 311.879 40.435C311.879 56.794 312.461 59.049 321.613 78.185C324.968 85.198 327.499 91.148 327.24 91.407C326.98 91.667 320.045 91.408 311.829 90.831C303.612 90.255 295.65 90.031 294.134 90.334L291.379 90.885V45.91V0.935016H278.629L265.879 0.934015L266.17 44.594C266.329 68.607 266.104 88.605 265.67 89.034C265.235 89.463 260.604 89.906 255.379 90.019L245.879 90.224L245.282 61.83C244.646 31.594 244.011 26.779 239.493 17.935C236.223 11.533 230.914 7.08002 222.661 3.81602C217.56 1.79902 215.111 1.52602 201.879 1.50002C188.405 1.47402 186.278 1.71202 180.972 3.83402C174.059 6.59802 167.757 12.464 164.695 18.982C160.681 27.529 159.457 40.739 159.406 76.068L159.379 94.7L151.629 95.373C147.367 95.744 142.416 96.297 140.629 96.602L137.379 97.158V49.546V1.93502H125.889H114.398L114.139 50.685L113.879 99.435L104.457 100.68C99.2746 101.364 94.8816 101.771 94.6936 101.584C94.5066 101.396 90.6466 78.899 86.1156 51.589L77.8786 1.93602L59.8786 1.93502H41.8786L42.1456 55.562C42.3286 92.244 42.0786 109.592 41.3536 110.466C40.7706 111.168 36.1496 112.476 31.0856 113.372C9.98461 117.107 6.25361 118.134 5.37161 120.453C4.91361 121.658 3.51361 128.447 2.26061 135.54C0.272608 146.786 -0.0153918 151.76 0.000608199 174.435C0.0206082 201.263 1.36661 213.767 5.92261 229.439L7.46961 234.761L18.6746 237.328C24.8366 238.74 32.5786 240.477 35.8786 241.188L41.8786 242.48L42.1456 267.208L42.4136 291.935H53.8956H65.3786V268.827V245.718L67.6476 246.288C68.8956 246.601 74.4086 247.555 79.8976 248.408C85.3876 249.261 90.8456 250.175 92.0276 250.44C94.4676 250.988 94.8446 252.304 98.9146 274.435C100.33 282.135 101.719 289.222 102.001 290.185C102.464 291.765 104.206 291.935 119.946 291.935H137.379V273.875V255.814L147.129 256.513C160.416 257.466 160.957 257.73 161.655 263.604C162.99 274.84 168.026 284.108 175.538 289.153C180.605 292.556 184.409 293.697 195.629 295.182C212.314 297.389 227.336 293.822 235.432 285.73C239.217 281.947 243.817 272.4 244.849 266.185L245.555 261.935H256.467H267.379V276.935V291.935H280.379H293.379V276.935V261.935H297.739C300.138 261.935 304.138 261.656 306.629 261.314L311.158 260.693L311.869 265.862C312.903 273.379 318.012 282.78 323.171 286.656C330.03 291.809 338.924 294.103 352.379 294.189C360.842 294.243 365.331 293.793 369.379 292.483C384.24 287.673 392.088 277.768 394.013 261.393C394.369 258.36 394.935 255.724 395.27 255.534C395.605 255.345 399.581 254.878 404.106 254.496L412.333 253.802L412.606 272.118L412.879 290.435H448.879H484.879L485.056 280.685L485.233 270.935H461.271H437.309L437.594 260.685L437.879 250.435L448.879 248.702C480.966 243.645 515.869 236.8 519.543 234.843C521.466 233.819 524.548 221.482 526.516 206.935C529.379 185.764 527.46 150.419 522.158 126.697C519.597 115.237 521.429 116.381 499.379 112.479C491.404 111.067 483.892 109.691 482.686 109.419C480.918 109.021 480.434 108.103 480.186 104.68L479.879 100.435L457.617 100.166L435.356 99.897L435.617 60.666L435.879 21.435L458.379 21.277L480.879 21.12L481.165 11.527L481.451 1.93502H446.415H411.379V49.935V97.935H407.569C403.584 97.935 366.503 94.364 360.295 93.382C356.793 92.828 356.549 92.481 349.586 78.125C336.732 51.623 334.461 44.05 336.36 34.034C337.53 27.867 339.616 24.788 344.515 22.003C351.845 17.835 360.899 20.227 364.656 27.323C366.559 30.919 366.818 32.909 366.718 43.185L366.603 54.935H379.491H392.379V45.893C392.379 28.652 387.393 13.401 379.667 7.01002C373.81 2.16402 365.128 -0.0769838 352.524 0.00201616C346.669 0.0400162 339.822 0.625015 337.308 1.30202ZM212.395 23.798C214.311 24.823 216.779 27.185 217.879 29.048C219.731 32.185 219.903 34.557 220.198 61.19C220.454 84.312 220.258 90.036 219.198 90.408C216.892 91.218 185.912 92.609 185.11 91.939C184.686 91.585 184.706 78.031 185.153 61.818C185.923 33.893 186.082 32.151 188.179 28.759C189.396 26.79 191.851 24.459 193.635 23.58C198.19 21.334 208 21.448 212.395 23.798ZM65.8456 50.435C66.6466 55.935 68.7456 70.235 70.5116 82.214C72.4606 95.441 73.3596 104.342 72.7996 104.882C72.2936 105.372 70.3036 105.921 68.3786 106.104L64.8786 106.435L64.2446 95.435C63.8966 89.385 63.3586 72.06 63.0496 56.935C62.4756 28.829 62.6426 28.439 65.8456 50.435ZM329.879 94.925C365.242 96.867 409.411 101.051 441.879 105.534C459.171 107.922 483.584 111.954 486.879 112.966C488.529 113.473 491.454 114.115 493.379 114.392C496.964 114.908 510.156 117.472 514.051 118.411C516.625 119.031 517.518 121.507 520.373 135.935C523.702 152.758 524.977 175.405 523.601 193.265C522.428 208.481 518.939 230.761 517.502 232.207C516.416 233.3 486.956 239.284 467.379 242.389C458.304 243.828 449.079 245.447 446.879 245.986C442.5 247.058 414.45 250.726 404.879 251.478C401.579 251.737 389.654 252.848 378.379 253.946C345.009 257.196 327.486 258 276.879 258.603C229.026 259.173 219.352 258.881 168.879 255.34C148.986 253.944 110.041 249.941 97.6026 248.013C65.8386 243.09 50.0146 240.371 27.8786 236.034C22.3786 234.956 16.2346 233.806 14.2256 233.478C10.0066 232.788 10.0106 232.796 7.41861 220.386C1.98461 194.365 2.17761 143.172 7.77661 125.487C8.73061 122.474 9.71961 121.338 11.9526 120.691C16.9966 119.227 46.6386 113.148 51.8786 112.502C54.6286 112.163 60.4786 111.24 64.8786 110.45C78.5796 107.989 114.038 103.084 133.379 100.973C143.554 99.862 155.479 98.511 159.879 97.971C168.615 96.897 227.066 94.039 247.879 93.667C271.073 93.253 310.423 93.857 329.879 94.925ZM212.879 101.939C202.979 102.334 188.354 103.175 180.379 103.808C172.404 104.44 161.62 105.195 156.416 105.484C151.211 105.773 142.211 106.687 136.416 107.515C130.62 108.342 119.804 109.874 112.379 110.919C69.0546 117.014 61.2256 118.173 54.8786 119.431C43.4186 121.704 19.2906 126.081 16.7046 126.357C15.3826 126.497 13.8706 127.043 13.3436 127.57C11.4186 129.495 6.86261 168.508 8.36361 170.222C8.74261 170.655 13.7136 170.88 19.4116 170.722L29.7706 170.435L33.6926 154.685L37.6156 138.935H44.4586H51.3016L52.3046 142.685C53.6756 147.813 63.3786 188.75 63.3786 189.407C63.3786 189.697 60.9356 189.935 57.9496 189.935H52.5206L51.3786 184.435L50.2366 178.935H44.3466H38.4556L37.3676 183.185C36.7696 185.523 36.0916 187.998 35.8606 188.685C35.5976 189.469 33.5226 189.935 30.2986 189.935H25.1556L25.8206 186.185C26.1866 184.123 26.7166 181.648 26.9996 180.685C27.4636 179.104 26.5866 178.935 17.9456 178.935H8.37861V184.895C8.37861 191.612 11.9566 218.76 13.4796 223.597C14.3286 226.291 15.1716 226.92 19.1766 227.849C31.6016 230.732 77.6716 238.503 90.8786 239.945C95.2786 240.425 106.079 241.727 114.879 242.839C123.679 243.95 138.979 245.542 148.879 246.377C158.779 247.212 170.704 248.36 175.379 248.928C183.546 249.92 232.017 251.886 249.138 251.919L257.397 251.935L257.138 199.28L256.879 146.626L251.379 146.53L245.879 146.435L245.569 142.685L245.258 138.935H262.879H280.5L280.189 142.685L279.879 146.435L273.629 146.733L267.379 147.03V199.634V252.238L295.629 251.638C325.627 251.002 386.527 246.886 402.379 244.423C415.28 242.419 432.5 239.933 440.379 238.937C443.954 238.485 455.879 236.538 466.879 234.609C477.879 232.68 490.13 230.612 494.104 230.013C506.191 228.192 511.107 226.893 512.741 225.088C515.241 222.325 517.505 205.877 518.097 186.185L518.645 167.935H501.584H484.523L483.838 173.419C482.803 181.702 483.036 181.935 492.348 181.935H500.379V185.935V189.935H486.879H473.379V164.435V138.935H486.939H500.5L500.189 142.685L499.879 146.435L491.879 146.568L483.879 146.701V153.568V160.435L501.129 160.709L518.379 160.982L518.373 158.709C518.365 155.499 515.624 137.372 514.28 131.635C513.583 128.659 512.343 126.331 511.017 125.509C509.209 124.388 493.292 121.039 482.879 119.588C481.229 119.358 472.454 117.956 463.379 116.472C425.837 110.332 386.573 105.859 347.879 103.315C320.385 101.507 243.349 100.721 212.879 101.939ZM88.7916 141.685C89.3526 144.378 94.2726 174.361 94.4886 176.4C94.5486 176.969 95.1586 173.61 95.8436 168.935C96.5286 164.26 98.1136 155.597 99.3646 149.685L101.64 138.935H110.009H118.379V164.435V189.935H113.879H109.379L109.293 168.685L109.208 147.435L104.923 167.126C102.567 177.956 100.369 187.518 100.04 188.376C99.6016 189.518 98.0176 189.935 94.1226 189.935H88.8036L84.6826 170.185L80.5626 150.435L80.4706 170.185L80.3786 189.935H75.3786H70.3786V164.435V138.935H79.2996H88.2196L88.7916 141.685ZM154.817 140.089C158.034 141.554 161.379 148.394 161.377 153.501C161.374 162.396 155.747 167.729 145.373 168.669L139.379 169.213V179.624V190.035L133.629 189.735L127.879 189.435L127.61 165.455C127.463 152.266 127.561 140.903 127.829 140.205C128.471 138.532 151.187 138.435 154.817 140.089ZM179.593 148.685L179.879 158.435L185.129 158.737L190.379 159.04V148.987V138.935H195.379H200.379V164.435V189.935H195.379H190.379V178.435V166.935H184.879H179.379V178.435V189.935H174.379H169.379V164.435V138.935H174.343H179.307L179.593 148.685ZM238.189 142.685L237.879 146.435L230.629 146.729L223.379 147.023V152.933V158.844L230.129 159.139L236.879 159.435V162.935V166.435L230.129 166.731L223.379 167.026V174.481V181.935H230.879H238.379V185.965V189.995L225.876 189.715C218.999 189.561 213.374 189.097 213.376 188.685C213.378 188.273 213.379 176.91 213.379 163.435V138.935H225.939H238.5L238.189 142.685ZM319.058 160.901C321.928 172.707 324.568 184.094 324.925 186.206L325.574 190.046L320.231 189.741L314.888 189.435L313.489 184.185L312.09 178.935H306.305H300.521L299.379 184.435L298.237 189.935H292.808C289.603 189.935 287.379 189.495 287.379 188.86C287.379 188.269 290.156 176.776 293.549 163.32L299.72 138.854L306.78 139.145L313.84 139.435L319.058 160.901ZM356.799 148.085C357.72 153.118 359.114 161.505 359.897 166.723C360.681 171.941 361.494 176.383 361.705 176.594C361.915 176.805 362.378 173.855 362.733 170.04C363.087 166.224 364.503 157.897 365.878 151.536C367.254 145.174 368.379 139.736 368.379 139.452C368.379 139.168 372.204 138.935 376.879 138.935H385.379V164.435V189.935H380.879H376.379L376.3 168.685L376.221 147.435L372.792 162.935C370.906 171.46 368.785 180.91 368.08 183.935L366.797 189.435L361.577 189.738C357.949 189.948 356.202 189.638 355.85 188.72C355.572 187.994 353.591 179.308 351.449 169.418L347.554 151.435L347.467 170.685L347.379 189.935H342.379H337.379V164.435V138.935H346.252H355.125L356.799 148.085ZM408.379 164.487V190.04L403.129 189.737L397.879 189.435L397.61 165.455C397.463 152.266 397.561 140.903 397.829 140.205C398.133 139.411 400.203 138.935 403.348 138.935H408.379V164.487ZM440.804 146.185C441.663 150.173 443.505 158.808 444.896 165.376C446.288 171.943 447.696 177.568 448.025 177.876C448.354 178.183 448.455 169.66 448.251 158.935L447.879 139.435L452.129 139.128L456.379 138.82V164.378V189.935H449.552H442.726L439.58 178.685C437.85 172.498 435.756 163.882 434.927 159.538C434.098 155.195 433.298 151.52 433.149 151.372C433.001 151.223 433.04 159.865 433.236 170.577L433.593 190.053L428.736 189.744L423.879 189.435L423.61 165.455C423.463 152.266 423.561 140.903 423.829 140.205C424.163 139.335 426.669 138.935 431.779 138.935H439.243L440.804 146.185ZM139.379 153.935V160.935H142.757C146.724 160.935 148.268 159.393 149.036 154.661C149.894 149.377 148.094 146.935 143.344 146.935H139.379V153.935ZM42.5506 156.685C41.8716 160.947 41.0546 165.898 40.7336 167.685C40.1526 170.93 40.1576 170.935 44.3736 170.935C48.2496 170.935 48.5496 170.751 48.0416 168.685C47.7366 167.447 46.9226 162.498 46.2326 157.685C45.5426 152.873 44.7096 148.935 44.3816 148.935C44.0536 148.935 43.2306 152.423 42.5506 156.685ZM306.461 148.937C306.416 149.213 305.479 154.162 304.379 159.935C303.279 165.708 302.379 170.544 302.379 170.683C302.379 170.822 304.179 170.935 306.379 170.935C308.579 170.935 310.363 170.597 310.343 170.185C310.28 168.855 306.546 148.417 306.461 148.937ZM489.034 199.063C489.774 199.677 490.379 200.8 490.379 201.557C490.379 203.492 486.671 203.279 485.552 201.281C484.995 200.285 483.98 199.874 483.003 200.249C480.425 201.238 481.064 202.272 485.812 204.79C491.039 207.563 491.981 209.367 489.879 212.576C488.637 214.47 487.455 214.935 483.879 214.935C480.192 214.935 479.133 214.49 477.731 212.35C476.354 210.248 476.286 209.611 477.367 208.942C479.106 207.868 481.379 208.774 481.379 210.542C481.379 211.361 482.409 211.935 483.879 211.935C487.439 211.935 486.974 210.336 482.614 207.584C477.7 204.481 476.196 202.577 477.001 200.478C478.31 197.067 485.596 196.211 489.034 199.063ZM49.1406 199.185C49.6946 199.873 50.1616 202.91 50.1786 205.935C50.1966 208.96 50.3606 212.099 50.5446 212.911C50.7456 213.799 50.0086 214.521 48.6966 214.722C46.8736 215.001 46.4616 214.511 46.1966 211.746C45.9516 209.193 45.3636 208.362 43.6286 208.115C41.6556 207.835 41.3786 208.236 41.3786 211.365C41.3786 214.268 41.0046 214.935 39.3786 214.935C37.5356 214.935 37.3786 214.268 37.3786 206.435V197.935H42.7566C45.8546 197.935 48.5606 198.465 49.1406 199.185ZM81.8786 199.435C81.8786 199.985 80.4156 200.576 78.6286 200.748C76.1886 200.984 75.3786 201.544 75.3786 202.998C75.3786 204.484 76.0776 204.935 78.3786 204.935C80.0286 204.935 81.3786 205.385 81.3786 205.935C81.3786 206.485 80.0286 206.935 78.3786 206.935C75.8656 206.935 75.3786 207.331 75.3786 209.372C75.3786 211.376 75.9416 211.864 78.5516 212.122C80.2966 212.294 81.9176 213.021 82.1526 213.738C82.4786 214.731 81.1876 214.969 76.7296 214.738L70.8786 214.435L70.5796 207.534C70.1676 198.041 70.3406 197.771 76.6176 198.132C79.5106 198.299 81.8786 198.885 81.8786 199.435ZM115.179 199.135C118.402 202.358 115.314 207.935 110.308 207.935C107.627 207.935 107.379 208.232 107.379 211.435C107.379 214.268 106.998 214.935 105.379 214.935C103.536 214.935 103.379 214.268 103.379 206.435V197.935H108.679C111.594 197.935 114.519 198.475 115.179 199.135ZM149.379 199.435C149.379 200.268 148.49 200.935 147.379 200.935C145.294 200.935 145.091 201.727 144.946 210.435C144.89 213.797 144.52 214.486 142.629 214.755C140.478 215.06 140.379 214.764 140.379 208.005C140.379 201.602 140.19 200.935 138.379 200.935C137.268 200.935 136.379 200.268 136.379 199.435C136.379 198.256 137.768 197.935 142.879 197.935C147.99 197.935 149.379 198.256 149.379 199.435ZM174.379 206.435C174.379 214.152 174.202 214.935 172.458 214.935C170.763 214.935 170.498 214.051 170.208 207.412C169.819 198.52 169.958 197.935 172.462 197.935C174.201 197.935 174.379 198.725 174.379 206.435ZM199.173 205.135C199.468 211.813 199.469 211.815 202.596 212.125C204.317 212.295 205.918 213.021 206.153 213.738C206.479 214.731 205.188 214.969 200.73 214.738L194.879 214.435L194.58 207.534C194.231 199.485 194.724 197.663 197.126 198.121C198.551 198.393 198.934 199.704 199.173 205.135ZM237.135 199.185C236.91 199.873 235.297 200.576 233.552 200.748C231.188 200.982 230.379 201.556 230.379 202.998C230.379 204.484 231.078 204.935 233.379 204.935C237.14 204.935 237.341 206.691 233.629 207.119C231.66 207.345 230.788 208.074 230.559 209.685C230.279 211.658 230.68 211.935 233.809 211.935C236.316 211.935 237.379 212.382 237.379 213.435C237.379 214.584 236.11 214.935 231.958 214.935H226.537L226.208 207.412C226.027 203.274 226.029 199.449 226.212 198.912C226.396 198.375 229.021 197.935 232.046 197.935C235.998 197.935 237.43 198.287 237.135 199.185ZM300.374 199.429C301.056 200.251 301.404 202.025 301.146 203.371C300.889 204.718 300.99 207.87 301.37 210.377C302.02 214.656 301.923 214.935 299.784 214.935C297.945 214.935 297.445 214.309 297.192 211.685C296.952 209.194 296.354 208.36 294.629 208.115C292.656 207.835 292.379 208.236 292.379 211.365C292.379 214.268 292.005 214.935 290.379 214.935C288.536 214.935 288.379 214.268 288.379 206.435V197.935H293.757C297.307 197.935 299.555 198.443 300.374 199.429ZM330.641 199.435C330.772 199.985 329.164 200.576 327.068 200.749C322.121 201.157 322.175 204.269 327.137 204.748C331.332 205.154 331.327 206.717 327.129 207.122C324.67 207.359 323.803 207.967 323.568 209.621C323.301 211.498 323.795 211.851 327.068 212.121C332.731 212.588 331.229 214.39 324.891 214.735L319.379 215.035V206.435V197.835L324.891 198.135C327.922 198.3 330.509 198.885 330.641 199.435ZM362.754 200.157C363.544 201.418 363.508 202.206 362.62 203.094C361.667 204.047 360.917 203.864 359.142 202.249C355.734 199.148 354.379 200.332 354.379 206.411C354.379 212.216 356.454 214.532 358.399 210.898C359.739 208.394 363.379 208.275 363.379 210.735C363.379 213.612 361.29 214.935 356.75 214.935C351.051 214.935 349.379 213.065 349.379 206.692C349.379 199.821 351.285 197.742 357.224 198.138C360.108 198.331 362.054 199.041 362.754 200.157ZM394.455 199.527C396.221 201.655 396.257 211.167 394.507 213.279C393.581 214.396 391.586 214.935 388.379 214.935C382.313 214.935 380.863 213.267 380.93 206.371C380.997 199.514 382.391 197.935 388.379 197.935C391.508 197.935 393.586 198.479 394.455 199.527ZM425.808 199.506C427.609 201.308 427.816 203.098 426.389 204.525C425.735 205.179 425.735 206.689 426.389 208.969C427.87 214.135 427.657 215.114 425.129 214.755C423.404 214.51 422.806 213.676 422.566 211.185C422.306 208.493 421.834 207.935 419.816 207.935C417.698 207.935 417.379 208.393 417.379 211.435C417.379 214.268 416.998 214.935 415.379 214.935C413.536 214.935 413.379 214.268 413.379 206.435V197.935H418.808C422.409 197.935 424.765 198.464 425.808 199.506ZM457.808 199.506C458.811 200.51 459.379 202.859 459.379 206.006C459.379 212.95 457.048 215.138 450.078 214.736L444.879 214.435L444.589 206.185L444.298 197.935H450.267C454.36 197.935 456.73 198.429 457.808 199.506ZM386.579 201.135C384.855 202.859 385.065 210.43 386.879 211.935C388.076 212.928 388.682 212.928 389.879 211.935C392.617 209.663 391.401 199.935 388.379 199.935C388.049 199.935 387.239 200.475 386.579 201.135ZM41.3786 203.005C41.3786 204.576 41.9176 204.997 43.6186 204.755C46.9426 204.28 47.2346 200.935 43.9516 200.935C42.0166 200.935 41.3786 201.448 41.3786 203.005ZM107.379 202.935C107.379 204.581 107.897 205 109.629 204.755C110.866 204.579 111.879 203.76 111.879 202.935C111.879 202.11 110.866 201.291 109.629 201.115C107.897 200.87 107.379 201.289 107.379 202.935ZM292.379 203.005C292.379 204.576 292.918 204.997 294.619 204.755C297.943 204.28 298.235 200.935 294.952 200.935C293.017 200.935 292.379 201.448 292.379 203.005ZM417.379 203.005C417.379 204.576 417.918 204.997 419.619 204.755C422.943 204.28 423.235 200.935 419.952 200.935C418.017 200.935 417.379 201.448 417.379 203.005ZM449.379 206.505C449.379 211.66 449.541 212.05 451.562 211.755C454.033 211.393 455.433 207.667 454.646 203.549C454.273 201.601 453.538 200.935 451.762 200.935C449.536 200.935 449.379 201.303 449.379 206.505ZM117.279 261.185C117.208 266.34 116.948 267.713 116.379 265.935C115.212 262.291 115.212 253.935 116.379 253.935C116.963 253.935 117.338 256.952 117.279 261.185ZM369.036 261.662C366.934 274.612 348.927 278.505 340.031 267.933C338.473 266.082 337.407 263.741 337.578 262.547C337.86 260.565 338.678 260.391 350.879 259.717C358.029 259.322 364.779 258.821 365.879 258.603C366.979 258.386 368.275 258.146 368.76 258.071C369.244 257.996 369.369 259.612 369.036 261.662ZM214.129 261.547C219.972 262.139 220.34 262.847 217.355 267.743C213.755 273.648 204.742 276.274 196.211 273.905C191.536 272.606 186.379 266.871 186.379 262.97V260.074L197.629 260.545C203.817 260.804 211.242 261.255 214.129 261.547Z" fill="black"/>
</svg>
