<svg width="652" height="720" viewBox="0 0 652 720" fill="none" xmlns="http://www.w3.org/2000/svg">
<path fill-rule="evenodd" clip-rule="evenodd" d="M317.329 1.42623C315.679 2.16323 313.115 4.05823 311.632 5.63723C306.585 11.0112 305.829 14.4802 305.829 32.2542C305.829 50.6292 305.918 50.9102 313.387 56.0492L317.855 59.1232L317.592 92.8162L317.329 126.509L309.116 126.799L300.903 127.089L300.616 136.299L300.329 145.509L293.579 145.805L286.829 146.1V158.555V171.009L186.579 171.04C130.062 171.057 83.1737 171.481 79.0967 172.01C69.9817 173.194 65.2987 175.581 59.5577 181.965C50.8427 191.659 51.4167 184.805 50.8397 286.009L50.3287 375.509L44.5787 375.809L38.8287 376.109V380.018V383.928L30.5787 384.219L22.3287 384.509L22.0477 396.203L21.7657 407.897L17.5477 408.203L13.3287 408.509L13.0287 414.279L12.7277 420.049L7.35969 423.079C4.40669 424.745 1.49369 426.707 0.886686 427.439C0.147686 428.33 -0.128311 434.665 0.0546893 446.574L0.328688 464.378L6.46769 469.443L12.6057 474.509L12.9677 481.009L13.3287 487.509L17.5787 487.816L21.8287 488.124V499.526V510.928L30.0787 511.219L38.3287 511.509L38.6357 515.759L38.9437 520.009H44.8597H50.7757L51.0527 607.259L51.3287 694.509L53.6397 700.23C56.4277 707.131 62.5877 713.732 69.3447 717.056L74.3287 719.509L324.803 719.765C603.945 720.05 581.44 720.624 590.11 712.993C597.256 706.703 599.937 700.179 600.906 686.723C601.35 680.555 601.74 640.522 601.771 597.759L601.829 520.009H607.272H612.714L613.022 515.759L613.329 511.509L621.547 511.219L629.764 510.929L630.047 499.719L630.329 488.509L634.329 488.009L638.329 487.509L638.624 480.795C638.9 474.504 639.121 473.943 642.124 471.886C643.887 470.679 646.791 468.325 648.579 466.654L651.829 463.617V446.504C651.829 434.337 651.468 428.927 650.579 427.786C649.892 426.903 647.079 424.78 644.329 423.068C639.428 420.017 639.319 419.842 638.829 414.232L638.329 408.509L634.329 408.009L630.329 407.509L629.829 396.009L629.329 384.509L621.329 384.009C615.962 383.674 613.288 383.098 613.204 382.259C613.135 381.572 613.023 379.908 612.954 378.561C612.84 376.332 612.36 376.086 607.579 375.811L602.329 375.509L601.829 285.009L601.329 194.509L598.966 189.282C596.202 183.169 589.613 176.724 583.005 173.67L578.329 171.509L471.198 171.229L364.067 170.949L363.448 167.854C363.108 166.152 362.829 160.561 362.829 155.43V146.1L356.079 145.805L349.329 145.509L349.041 136.259L348.754 127.009H340.291H331.829V93.2592L331.828 59.5092L337.079 54.8782L342.329 50.2472V31.8782C342.329 14.1372 342.244 13.3602 339.84 9.16123C335.31 1.24823 325.375 -2.16477 317.329 1.42623ZM578.445 185.922C580.709 186.95 583.859 189.493 585.445 191.572L588.329 195.353L588.601 443.431C588.904 720.145 589.52 696.442 581.848 703.372C579.185 705.779 576.641 707.054 573.657 707.478C571.277 707.816 458.854 707.961 323.829 707.801L78.3287 707.509L74.0797 705.239C71.7427 703.991 68.5927 701.099 67.0797 698.812L64.3287 694.655L64.0357 447.582C63.8337 276.948 64.0677 199.382 64.7937 196.865C66.0477 192.52 72.1377 186.29 76.3287 185.066C78.0077 184.575 188.278 184.159 326.829 184.121C566.5 184.055 574.459 184.112 578.445 185.922ZM74.7267 218.279C70.5187 221.09 67.8307 226.249 67.8337 231.509C67.8427 246.838 89.6967 251.724 96.9767 238.025C99.4287 233.412 99.3137 229.378 96.5787 224.045C92.5637 216.215 81.9917 213.426 74.7267 218.279ZM558.654 218.482C549.554 224.665 550.243 239.552 559.858 244.524C563.987 246.659 571.658 246.41 575.588 244.014C584.997 238.278 585.181 224.458 575.931 218.279C571.117 215.063 563.555 215.152 558.654 218.482Z" fill="white"/>
<path fill-rule="evenodd" clip-rule="evenodd" d="M303.617 234.576C284.469 236.534 262.341 241.907 244.622 248.901C194.143 268.827 151.823 308.467 128.606 357.568C106.699 403.899 102.046 457.718 115.671 507.174C125.805 543.956 144.011 575.019 171.516 602.454C192.072 622.957 214.035 638.004 238.652 648.447C293.938 671.902 354.679 671.849 409.755 648.299C421.246 643.386 430.333 638.38 443.412 629.759C513.339 583.664 549.98 501.607 537.816 418.343C524.103 324.474 450.21 250.496 355.831 236.146C342.841 234.172 315.593 233.353 303.617 234.576ZM342.04 255.811C409.191 262.074 469.081 303.195 498.578 363.291C508.095 382.68 513.884 400.968 517.117 421.858C518.931 433.582 519.166 464.308 517.524 475.291C509.371 529.839 482.852 574.736 439.904 606.701C393.18 641.478 332.638 653.301 275.704 638.768C228.66 626.758 188.897 598.317 160.88 556.634C149.697 539.996 140.096 517.942 134.886 496.921C131.291 482.415 129.916 472.374 129.352 456.488C126.368 372.446 177.272 296.702 256.731 266.953C270.646 261.744 292.982 256.708 307.296 255.553C315.525 254.888 333.593 255.022 342.04 255.811ZM309.807 277.117C278.31 279.682 246.477 291.766 220.767 310.92C209.894 319.02 193.347 335.485 185.798 345.714C162.288 377.574 150.879 411.663 150.913 449.948C150.956 496.616 168.364 538.651 201.394 571.838C229.001 599.578 261.077 615.732 300.347 621.672C312.45 623.502 334.947 623.541 347.354 621.753C385.892 616.198 419.216 599.533 446.309 572.267C479.717 538.645 497.295 496.418 497.224 449.948C497.16 408.083 483.183 370.085 456.006 337.894C420.196 295.477 365.187 272.61 309.807 277.117ZM303.774 344.692C323.795 379.358 328.707 387.816 328.994 388.112C329.297 388.426 334.274 385.594 386.121 355.601C404.071 345.217 418.977 336.722 419.246 336.722C419.514 336.722 422.155 340.912 425.114 346.035L430.495 355.348L391.172 378.051C369.545 390.539 349.197 402.293 345.955 404.173L340.06 407.589L345.481 416.914C348.463 422.043 356.525 435.989 363.399 447.904L375.896 469.568L339.961 469.781L304.026 469.994V501.138C304.026 529.519 304.143 532.238 305.351 531.775C306.54 531.318 322.325 522.299 350.215 506.14C359.472 500.777 402.817 475.786 451.178 447.929C463.094 441.066 473.963 434.775 475.332 433.948L477.821 432.445L483.307 441.942C486.324 447.165 488.691 451.539 488.567 451.664C488.443 451.788 479.336 457.102 468.329 463.473C457.323 469.844 435.809 482.322 420.522 491.203C405.234 500.083 381.138 514.058 366.974 522.259C352.811 530.46 333.129 541.876 323.237 547.627C313.345 553.378 300.102 561.074 293.807 564.73L282.361 571.377L282.146 545.202C282.027 530.807 281.729 519.028 281.482 519.028C281.044 519.028 257.013 532.799 227.698 549.848C219.666 554.52 212.773 558.233 212.381 558.101C211.989 557.969 209.314 553.813 206.436 548.867L201.205 539.874L204.995 537.586C210.07 534.522 261.762 504.682 266.42 502.127C268.443 501.018 272.674 498.557 275.821 496.659L281.544 493.208L281.77 481.592L281.998 469.977H246.004C226.208 469.977 210.011 469.768 210.011 469.512C210.011 469.257 217.058 456.84 225.672 441.92C234.285 427.002 243.978 410.196 247.212 404.576C250.446 398.955 261.496 379.825 271.766 362.065C282.038 344.304 290.83 328.948 291.306 327.94C291.783 326.932 292.365 326.104 292.602 326.101C292.839 326.097 297.866 334.464 303.774 344.692Z" fill="white"/>
</svg>
