<svg width="597" height="598" viewBox="0 0 597 598" fill="none" xmlns="http://www.w3.org/2000/svg">
<path fill-rule="evenodd" clip-rule="evenodd" d="M288.546 1.58475C283.843 4.02692 280.134 8.07456 279.06 11.9425C278.518 13.8954 278.072 23.2897 278.069 32.8167L278.063 50.1395L281.323 53.2846C283.116 55.0149 285.707 57.3282 287.079 58.4265C289.514 60.3755 289.567 60.693 289.247 71.6558L288.921 82.8881H282.593C274.528 82.8881 255.772 86.0751 241.538 89.8642C210.344 98.1681 181.726 113.48 156.273 135.486C115.158 171.033 88.5927 222.298 83.1662 276.573L81.9791 288.447L70.9424 288.771C60.1904 289.085 59.8539 289.03 57.9089 286.598C56.8107 285.226 54.4624 282.602 52.6901 280.766L49.4682 277.429L30.1785 277.755C8.75224 278.118 8.09327 278.297 2.81258 285.223C0.333475 288.471 0 289.757 0 296.053C0 302.341 0.335472 303.638 2.7976 306.866C7.55412 313.102 9.86648 313.755 30.4521 314.676L48.9231 315.504L54.4574 309.522L59.9917 303.542H71.1811H82.3705V309.998C82.3705 324.925 87.3516 350.535 94.0132 369.858C98.1017 381.717 106.465 399.557 112.947 410.249C124.101 428.643 142.599 449.87 160.747 465.099C192.71 491.92 234.614 509.43 276.428 513.434L288.932 514.631L289.249 526.153C289.56 537.414 289.51 537.719 287.075 539.671C285.705 540.769 283.082 543.118 281.247 544.89L277.909 548.112L278.235 567.402C278.598 588.828 278.778 589.487 285.703 594.768C288.952 597.247 290.238 597.58 296.534 597.58C302.821 597.58 304.118 597.245 307.346 594.783C313.583 590.025 314.235 587.715 315.152 567.128L315.975 548.657L309.992 543.166L304.008 537.674L304.015 525.943L304.022 514.211H309.29C332.069 514.211 367.424 505.114 392.383 492.833C457.64 460.72 501.621 400.323 512.141 328.375C512.994 322.538 513.692 314.788 513.692 311.152V304.54L524.925 304.533L536.157 304.526L541.648 310.51L547.14 316.493L565.611 315.671C586.099 314.758 588.52 314.086 593.139 308.03C596.061 304.2 597.232 297.943 596.13 292.063C595.234 287.293 589.382 280.896 584.732 279.604C582.727 279.048 573.291 278.59 563.763 278.587L546.441 278.581L543.296 281.841C541.565 283.634 539.252 286.225 538.154 287.597C536.205 290.032 535.887 290.085 524.925 289.765L513.692 289.439V284.544C513.692 269.807 506.928 238.74 499.685 220.218C482.732 176.855 451.678 139.437 412.502 115.166C383.572 97.2436 346.462 85.0078 315.708 83.2515L304.022 82.5836V71.5469V60.5092L310.003 54.9749L315.984 49.4406L315.156 30.9696C314.304 11.9255 313.557 8.5598 309.366 4.87858C303.839 0.0242015 294.423 -1.46546 288.546 1.58475ZM349.95 111.577C370.454 117.134 392.578 127.726 411.346 140.969C423.219 149.347 443.259 168.891 452.373 180.981C468.077 201.815 479.009 224.088 485.696 248.878L488.592 259.611H477.679C467.957 259.611 466.764 259.42 466.751 257.863C466.724 254.579 458.709 232.167 454.344 223.168C443.688 201.202 425.785 178.777 406.361 163.065C398.633 156.814 385.409 148.53 374.25 142.948C364.877 138.259 341.918 129.814 338.544 129.814C336.42 129.814 336.289 129.307 335.514 118.043L334.808 107.769L337.636 108.388C339.192 108.728 344.733 110.163 349.95 111.577ZM259.093 119.331C259.093 127.89 258.823 129.814 257.624 129.814C256.817 129.814 250.809 131.571 244.273 133.716C207.901 145.66 175.106 170.56 154.076 202.201C144.191 217.071 134.141 239.114 130.291 254.369L129.22 258.612H118.663H108.107L108.781 254.868C110.159 247.212 118.533 223.941 123.755 213.249C147.726 164.189 193.394 126.147 245.614 111.743C260.249 107.705 259.093 107.055 259.093 119.331ZM284.572 206.195C293.754 222.12 301.774 235.691 302.394 236.354C303.262 237.281 308.942 234.43 326.986 224.011C379.242 193.836 391.778 186.725 392.719 186.725C393.693 186.725 402.866 201.831 402.866 203.433C402.866 203.886 383.01 215.741 358.74 229.775C334.471 243.809 314.478 255.702 314.314 256.203C314.148 256.704 321.808 270.593 331.336 287.068L348.659 317.021L313.611 317.636C294.334 317.973 278.449 318.311 278.312 318.384C278.176 318.458 278.063 332.498 278.063 349.586C278.063 379.271 278.145 380.633 279.901 380.173C281.434 379.772 442.983 287.063 449.375 282.915C451.347 281.635 451.718 282.039 456.573 290.765C459.388 295.824 461.597 300.042 461.483 300.138C461.369 300.234 417.693 325.572 364.427 356.446C311.161 387.319 265.439 413.881 262.822 415.471C260.205 417.061 257.847 418.361 257.58 418.361C257.313 418.361 257.096 413.041 257.096 406.538C257.096 389.603 255.92 367.441 255.022 367.441C254.352 367.441 239.789 375.709 198.875 399.318C192.938 402.745 187.496 405.324 186.783 405.05C186.069 404.777 183.429 401.033 180.916 396.73C176.39 388.984 176.365 388.893 178.403 387.41C180.223 386.087 192.676 378.82 242.868 349.788L256.097 342.136V330.327V318.518L232.385 318.382C219.343 318.309 203.374 317.971 196.899 317.634L185.126 317.021L223.415 250.625C244.474 214.107 262.774 182.315 264.082 179.976C265.391 177.636 266.779 176.064 267.17 176.481C267.56 176.899 275.391 190.27 284.572 206.195ZM128.379 336.07C128.698 336.251 129.539 339.003 130.248 342.185C136.934 372.186 159.197 407.736 185.144 429.843C205.212 446.942 229.812 460.063 252.603 465.826L259.592 467.594L259.276 478.022L258.96 488.449L255.406 487.783C248.199 486.431 234.335 482.043 223.766 477.769C183.227 461.375 146.19 427.367 125.871 387.879C119.596 375.684 113.806 360.563 110.286 347.178C108.668 341.025 107.341 335.617 107.337 335.162C107.332 334.419 126.962 335.267 128.379 336.07ZM488.067 338.736C485.583 351.845 477.455 374.324 470.193 388.167C459.933 407.722 449.322 421.781 432.691 437.854C407.517 462.183 377.697 478.874 345.457 486.682C341.613 487.613 337.651 488.611 336.654 488.901C334.954 489.394 334.885 488.808 335.566 479.604C335.967 474.201 336.296 469.274 336.299 468.655C336.302 468.035 338.813 466.969 341.879 466.286C350.966 464.261 363.714 459.474 375.104 453.81C408.589 437.158 436.578 408.998 453.764 374.668C458.566 365.076 466.721 342.84 466.751 339.255C466.771 336.97 470.319 336.25 484.463 335.666L488.682 335.492L488.067 338.736Z" fill="black"/>
</svg>
