<svg width="529" height="529" viewBox="0 0 529 529" fill="none" xmlns="http://www.w3.org/2000/svg">
<path fill-rule="evenodd" clip-rule="evenodd" d="M239.282 0.705041C215.86 3.10004 188.793 9.67204 167.119 18.227C105.372 42.601 53.6045 91.089 25.2055 151.151C-1.59145 207.824 -7.28245 273.656 9.38355 334.151C21.7796 379.144 44.0495 417.141 77.6936 450.699C102.838 475.779 129.704 494.185 159.816 506.959C227.443 535.649 301.742 535.585 369.112 506.778C383.168 500.768 394.283 494.645 410.282 484.099C495.818 427.715 540.638 327.341 525.759 225.491C508.984 110.669 418.597 20.178 303.151 2.62504C287.262 0.210039 253.932 -0.791959 239.282 0.705041ZM286.282 26.679C368.422 34.34 441.681 84.64 477.762 158.151C489.403 181.868 496.484 204.238 500.439 229.791C502.658 244.132 502.945 281.717 500.937 295.151C490.964 361.875 458.525 416.794 405.991 455.895C348.837 498.434 274.781 512.896 205.139 495.119C147.593 480.429 98.9545 445.639 64.6835 394.651C51.0045 374.3 39.2606 347.323 32.8876 321.61C28.4896 303.866 26.8086 291.583 26.1186 272.151C22.4676 169.349 84.7346 76.698 181.931 40.309C198.951 33.937 226.273 27.777 243.782 26.364C253.848 25.551 275.949 25.715 286.282 26.679ZM246.854 52.742C208.326 55.879 169.387 70.661 137.939 94.09C124.639 103.998 104.398 124.138 95.1645 136.651C66.4065 175.622 52.4505 217.321 52.4925 264.151C52.5445 321.236 73.8385 372.654 114.241 413.25C148.011 447.181 187.247 466.941 235.282 474.207C250.087 476.446 277.605 476.494 292.782 474.306C339.922 467.511 380.685 447.126 413.825 413.774C454.691 372.647 476.192 320.994 476.106 264.151C476.028 212.941 458.931 166.461 425.687 127.085C381.884 75.2 314.596 47.228 246.854 52.742ZM239.474 135.401C263.964 177.805 269.973 188.15 270.324 188.513C270.694 188.897 276.782 185.432 340.202 148.744C362.159 136.043 380.392 125.651 380.721 125.651C381.05 125.651 384.28 130.777 387.9 137.043L394.481 148.435L346.381 176.206C319.927 191.481 295.037 205.859 291.071 208.158L283.86 212.337L290.491 223.744C294.138 230.018 304 247.076 312.408 261.651L327.695 288.151L283.739 288.411L239.782 288.672V326.768C239.782 361.484 239.926 364.81 241.403 364.243C242.858 363.685 262.166 352.653 296.282 332.886C307.605 326.326 360.625 295.757 419.782 261.682C434.357 253.287 447.652 245.591 449.327 244.58L452.371 242.742L459.082 254.358C462.773 260.747 465.668 266.098 465.516 266.25C465.365 266.402 454.225 272.902 440.761 280.695C427.298 288.488 400.982 303.752 382.282 314.615C363.582 325.477 334.107 342.572 316.782 352.604C299.457 362.635 275.382 376.599 263.282 383.634C251.182 390.669 234.982 400.083 227.282 404.555L213.282 412.686L213.018 380.668C212.873 363.059 212.508 348.651 212.206 348.651C211.671 348.651 182.275 365.496 146.417 386.351C136.592 392.066 128.16 396.608 127.681 396.446C127.201 396.284 123.929 391.201 120.409 385.151L114.01 374.151L118.646 371.352C124.854 367.604 188.085 331.103 193.782 327.978C196.257 326.621 201.432 323.611 205.282 321.289L212.282 317.068L212.559 302.859L212.837 288.651H168.809C144.594 288.651 124.782 288.395 124.782 288.082C124.782 287.77 133.402 272.582 143.938 254.332C154.474 236.083 166.331 215.526 170.287 208.651C174.243 201.776 187.759 178.376 200.322 156.651C212.886 134.926 223.641 116.142 224.223 114.909C224.806 113.676 225.519 112.663 225.808 112.659C226.098 112.655 232.247 122.889 239.474 135.401Z" fill="black"/>
</svg>
