<svg width="919" height="569" viewBox="0 0 919 569" fill="none" xmlns="http://www.w3.org/2000/svg">
<path d="M0 25.1192C0 11.312 11.1929 0.119141 25 0.119141H665.509V568.25H25C11.1928 568.25 0 557.057 0 543.25V25.1192Z" fill="#041E43"/>
<path d="M665.509 0.119141H893.97C907.777 0.119141 918.97 11.312 918.97 25.1191V543.25C918.97 557.057 907.777 568.25 893.97 568.25H665.509V0.119141Z" fill="#C00D3E"/>
<path fill-rule="evenodd" clip-rule="evenodd" d="M688.355 0.26591C688.355 0.412161 688.101 0.53182 687.791 0.53182C687.461 0.53182 687.172 0.744282 687.092 1.04529C687.018 1.32769 686.787 1.62312 686.579 1.70156C686.361 1.78479 686.203 2.21609 686.203 2.73063C686.203 3.21778 686.07 3.74721 685.908 3.90728C685.72 4.09289 685.672 4.81111 685.775 5.88831C685.864 6.81794 686.008 11.2783 686.096 15.8004C686.212 21.7876 686.346 24.1114 686.587 24.3505C686.99 24.7483 687.126 30.1505 686.727 29.9069C686.587 29.8208 686.472 29.5312 686.472 29.2629C686.472 28.9946 686.29 28.7063 686.068 28.622C685.846 28.538 685.664 28.3027 685.664 28.0993C685.664 27.8961 685.303 27.0247 684.861 26.1632C684.419 25.3016 684.056 24.3276 684.054 23.9984C684.052 23.6692 683.929 23.4001 683.781 23.4001C683.633 23.4001 683.512 23.1693 683.512 22.8872C683.512 22.6053 683.331 22.195 683.109 21.9756C682.887 21.7562 682.702 21.3587 682.697 21.0923C682.692 20.8261 682.511 20.3756 682.293 20.0919C682.076 19.8079 681.898 19.2312 681.898 18.8097C681.898 18.3885 681.717 17.8644 681.495 17.645C681.273 17.4256 681.091 16.776 681.091 16.2016C681.091 15.627 680.973 15.1569 680.828 15.1569C680.683 15.1569 680.486 14.8516 680.391 14.4785C680.087 13.2809 676.909 9.94557 675.812 9.67381C674.925 9.45364 672.924 9.72885 672.803 10.0873C672.75 10.2431 672.55 10.3705 672.357 10.3705C671.84 10.3705 671.245 11.4046 670.935 12.8429C670.631 14.2525 670.941 17.9931 671.399 18.4465C671.552 18.597 671.677 19.0849 671.678 19.5311C671.679 19.977 671.857 20.6788 672.074 21.0904C672.292 21.502 672.549 22.4322 672.646 23.1573C672.743 23.8825 672.928 24.5398 673.057 24.6182C673.185 24.6969 673.29 25.2197 673.29 25.7805C673.29 26.4416 673.432 26.8537 673.694 26.9532C673.973 27.059 674.1 27.4986 674.106 28.3777C674.11 29.0767 674.292 29.8814 674.509 30.1651C674.726 30.4491 674.904 30.9429 674.904 31.2628C674.904 31.5824 675.086 31.993 675.308 32.1751C675.53 32.3573 675.711 32.9032 675.711 33.3885C675.711 33.874 675.832 34.345 675.98 34.4354C676.128 34.5258 676.249 34.9967 676.249 35.4823C676.249 35.9675 676.431 36.5135 676.653 36.6956C676.875 36.8778 677.056 37.2628 677.056 37.5513C677.056 37.8398 677.225 38.3937 677.431 38.7819C677.637 39.1702 678.013 40.0261 678.267 40.6843C678.521 41.3424 678.897 42.1983 679.103 42.5866C679.309 42.9748 679.477 43.5361 679.477 43.834C679.477 44.1318 679.588 44.4432 679.723 44.5256C679.858 44.6083 680.05 45.1537 680.15 45.7379C680.25 46.3221 680.442 46.8002 680.577 46.8002C680.712 46.8002 680.823 47.0693 680.824 47.3985C680.825 47.7277 681.007 48.3395 681.227 48.7584C681.464 49.2075 681.631 50.2443 681.633 51.2845C681.636 52.3327 681.729 52.9068 681.862 52.6989C682.004 52.4782 682.151 52.9515 682.259 53.9795C682.386 55.1782 682.326 55.8135 682.031 56.3772C681.81 56.7992 681.629 57.7485 681.629 58.4869C681.629 60.0103 681.328 60.1739 680.282 59.2179C679.913 58.8813 679.4 58.526 679.141 58.4284C678.882 58.3309 678.67 58.1277 678.67 57.9767C678.67 57.8259 678.544 57.7025 678.388 57.7025C678.233 57.7025 677.84 57.4201 677.514 57.0747C677.188 56.7293 676.649 56.3623 676.316 56.2591C675.984 56.1557 675.711 55.9807 675.711 55.8704C675.711 55.7598 675.167 55.4005 674.501 55.0719C673.835 54.7432 673.29 54.3629 673.29 54.2271C673.29 54.0909 673.062 53.9798 672.783 53.9798C672.504 53.9798 671.929 53.8011 671.505 53.5825C671.081 53.3642 670.356 53.1847 669.893 53.1836C669.43 53.1828 668.901 53.0025 668.717 52.7832C668.465 52.4832 667.788 52.3843 665.986 52.3843C664.104 52.3843 663.556 52.4699 663.434 52.7832C663.344 53.0145 662.942 53.182 662.475 53.182C661.55 53.182 660.271 53.8298 659.38 54.7498C658.713 55.4399 658.53 57.3262 659.01 58.5755C659.349 59.4559 660.653 60.794 661.387 61.0139C661.719 61.1136 661.992 61.3066 661.992 61.4431C661.992 61.5795 662.28 61.6912 662.632 61.6912C662.983 61.6912 663.422 61.8706 663.606 62.09C663.79 62.3094 664.155 62.4889 664.417 62.4889C664.679 62.4889 664.963 62.6684 665.048 62.8878C665.133 63.1071 665.496 63.2866 665.855 63.2866C666.214 63.2866 666.577 63.4661 666.662 63.6855C666.747 63.9049 667.05 64.0843 667.335 64.0843C667.62 64.0843 667.922 64.2638 668.007 64.4832C668.092 64.7026 668.317 64.8837 668.507 64.8855C668.913 64.8893 672.261 68.2222 673.345 69.7009C673.759 70.2654 674.097 70.9081 674.097 71.1286C674.097 71.3493 674.216 71.5298 674.361 71.5298C674.506 71.5298 674.708 71.8577 674.81 72.2584C674.912 72.6591 675.156 73.1463 675.353 73.3412C675.55 73.5359 675.711 73.9778 675.711 74.3232C675.711 74.9625 678.087 77.6458 678.653 77.6458C678.81 77.6458 678.939 77.7654 678.939 77.9117C678.939 78.0579 679.112 78.1776 679.324 78.1776C679.535 78.1776 679.874 78.3414 680.076 78.5414C680.278 78.7416 680.711 78.9889 681.037 79.091C681.363 79.1934 681.629 79.3885 681.629 79.5249C681.629 79.6614 681.859 79.773 682.139 79.773C682.419 79.773 682.718 79.9525 682.803 80.1719C682.888 80.3913 683.179 80.5708 683.45 80.5708C683.721 80.5708 684.078 80.7043 684.243 80.8675C684.61 81.2305 685.634 81.8328 686.27 82.0601C686.529 82.1527 686.741 82.334 686.741 82.4633C686.741 82.5922 686.922 82.6981 687.144 82.6981C687.366 82.6981 687.548 82.8775 687.548 83.0969C687.548 83.3163 687.759 83.4958 688.018 83.4955C688.442 83.4953 688.48 83.7657 688.395 86.1958C688.317 88.4582 688.371 88.935 688.731 89.1344C689.269 89.432 689.287 90.4097 688.767 91.0899C688.252 91.7627 688.246 93.18 688.755 93.5982C689.009 93.8065 689.097 94.1601 688.995 94.5614C688.879 95.0214 688.947 95.1958 689.243 95.1958C689.562 95.1958 689.694 95.7013 689.846 97.5034C690.007 99.4124 690.097 99.7344 690.368 99.3674C690.638 99.0031 690.698 99.268 690.704 100.849C690.711 102.419 690.603 102.921 690.122 103.572C689.586 104.296 689.167 105.727 688.768 108.197C688.681 108.733 688.758 109.262 688.957 109.499C689.513 110.161 690.088 118.668 689.627 119.406C689.462 119.669 689.469 120.725 689.646 122.331C689.811 123.84 689.828 125.323 689.688 126.041C689.559 126.7 689.449 127.747 689.442 128.368C689.436 128.99 689.324 129.498 689.193 129.498C688.79 129.498 688.693 130.715 688.958 132.445C689.151 133.707 689.126 134.254 688.85 134.766C688.591 135.246 688.513 136.319 688.573 138.552C688.662 141.829 688.271 143.591 687.456 143.591C687.242 143.591 686.997 143.771 686.912 143.99C686.827 144.21 686.458 144.389 686.092 144.389C685.727 144.389 685.352 144.509 685.261 144.655C685.17 144.801 684.691 144.921 684.198 144.921C683.649 144.921 683.241 145.076 683.146 145.32C683.027 145.628 682.506 145.719 680.853 145.719C679.439 145.719 678.679 145.826 678.608 146.035C678.545 146.224 677.745 146.399 676.636 146.468C675.609 146.532 674.531 146.748 674.239 146.949C673.947 147.15 673.31 147.314 672.823 147.314C672.336 147.314 671.727 147.427 671.471 147.566C671.214 147.704 670.55 147.889 669.995 147.977C669.44 148.064 668.986 148.241 668.986 148.369C668.986 148.497 668.615 148.682 668.161 148.781C667.707 148.879 667.011 149.127 666.614 149.332C666.217 149.537 665.681 149.705 665.422 149.706C665.163 149.707 664.951 149.827 664.951 149.973C664.951 150.12 664.356 150.239 663.628 150.239C662.817 150.239 662.263 150.366 662.195 150.568C662.111 150.817 660.35 150.908 654.976 150.941C645.71 151 645.31 151.016 645.986 151.303C646.381 151.471 646.149 151.536 645.112 151.55C644.335 151.56 643.699 151.449 643.699 151.303C643.699 151.135 641.72 151.037 638.3 151.037C633.678 151.037 632.838 151.099 632.464 151.468C632.115 151.814 631.703 151.866 630.398 151.732C629.502 151.639 628.729 151.445 628.68 151.3C628.549 150.917 626.817 150.977 626.685 151.369C626.604 151.611 625.441 151.725 622.426 151.788C619.184 151.856 618.231 151.957 618.063 152.254C617.915 152.515 617.355 152.632 616.263 152.632C615.391 152.632 614.603 152.752 614.512 152.898C614.421 153.045 614.046 153.164 613.681 153.164C613.315 153.164 612.946 153.344 612.861 153.563C612.648 154.112 609.347 154.106 608.61 153.555C608.247 153.284 607.342 153.156 605.651 153.138C604.235 153.122 603.496 153.034 603.886 152.927C604.299 152.815 604.592 152.517 604.645 152.156C604.692 151.833 604.843 151.569 604.981 151.569C605.118 151.569 605.231 151.389 605.231 151.17C605.231 150.951 605.413 150.771 605.635 150.771C605.857 150.771 606.038 150.592 606.038 150.372C606.038 150.153 606.22 149.973 606.442 149.973C606.664 149.973 606.845 149.763 606.845 149.505C606.845 149.248 607.148 148.715 607.518 148.32C607.888 147.926 608.19 147.299 608.19 146.927C608.19 146.503 608.341 146.251 608.594 146.251C608.816 146.251 608.997 146.058 608.997 145.823C608.997 145.538 609.143 145.451 609.436 145.562C609.8 145.7 609.846 145.593 609.711 144.926C609.558 144.168 609.72 143.979 610.422 144.096C610.541 144.116 610.561 143.729 610.468 143.238C610.347 142.602 610.421 142.222 610.724 141.923C610.958 141.692 611.149 141.374 611.149 141.217C611.149 141.061 611.389 140.932 611.681 140.932C612.134 140.932 612.187 140.808 612.041 140.09C611.897 139.379 611.94 139.274 612.317 139.417C612.687 139.557 612.763 139.404 612.763 138.522C612.763 137.822 612.901 137.407 613.167 137.306C613.389 137.222 613.57 136.866 613.57 136.516C613.57 136.128 613.728 135.88 613.974 135.88C614.273 135.88 614.378 135.57 614.378 134.683C614.378 133.797 614.273 133.487 613.974 133.487C613.705 133.487 613.57 133.221 613.57 132.689C613.57 132.157 613.436 131.891 613.167 131.891C612.945 131.891 612.763 131.712 612.763 131.493C612.763 131.273 612.643 131.094 612.496 131.094C612.349 131.094 611.977 130.566 611.671 129.922C611.057 128.631 611.03 126.655 611.628 126.775C611.817 126.813 612.041 126.663 612.127 126.443C612.213 126.222 612.45 126.041 612.654 126.041C612.946 126.041 612.989 125.705 612.855 124.446C612.717 123.138 612.759 122.85 613.085 122.85C613.535 122.85 614.218 121.084 614.068 120.311C614.005 119.992 613.466 119.617 612.585 119.281C610.808 118.602 610.428 117.936 610.395 115.448C610.381 114.375 610.254 113.358 610.114 113.188C609.821 112.833 609.506 108.976 609.543 106.211C609.562 104.807 609.462 104.242 609.148 103.984C608.917 103.795 608.728 103.415 608.728 103.141C608.728 102.866 608.618 102.641 608.483 102.641C608.348 102.641 607.562 101.979 606.736 101.169C605.598 100.053 605.194 99.4493 605.069 98.6742C604.942 97.889 604.598 97.3848 603.588 96.4999C602.719 95.7386 602.272 95.136 602.272 94.7241C602.272 94.3814 602.171 94.1625 602.047 94.238C601.924 94.3135 601.385 94.2423 600.849 94.0798C600.13 93.8615 599.835 93.6012 599.719 93.0813C599.506 92.1195 598.541 91.1524 596.832 90.1856C595.423 89.3889 593.395 87.6118 593.395 87.1741C593.395 87.0523 593.153 86.9526 592.857 86.9526C592.561 86.9526 592.319 86.833 592.319 86.6867C592.319 86.5405 591.986 86.4187 591.579 86.4163C590.342 86.4086 589.723 85.4779 589.501 83.2934C589.361 81.9139 589.199 81.3685 588.929 81.3685C588.707 81.3685 588.553 81.0959 588.553 80.7037C588.553 80.29 588.4 80.039 588.149 80.039C587.88 80.039 587.746 80.3049 587.746 80.8367C587.746 81.2754 587.616 81.6344 587.458 81.6344C587.299 81.6344 587.004 81.7982 586.801 81.9982C586.516 82.28 586.141 82.3053 585.139 82.1107C584.241 81.9362 583.598 81.9527 583.038 82.1644C582.594 82.3322 582.203 82.4665 582.169 82.4625C582.134 82.4585 581.684 82.6295 581.168 82.8425C580.121 83.2751 578.061 83.3663 578.061 82.9802C578.061 82.843 577.525 82.651 576.869 82.5539C576.213 82.4566 575.612 82.2101 575.532 82.0059C575.453 81.8014 575.082 81.6344 574.707 81.6344C574.281 81.6344 574.026 81.485 574.026 81.2355C574.026 81.0162 573.794 80.8367 573.51 80.8367C573.227 80.8367 572.803 80.7641 572.569 80.6753C572.248 80.5535 572.143 80.6843 572.143 81.2071C572.143 82.2697 571.713 82.0317 571.353 80.7702C571.175 80.1488 570.872 79.4282 570.678 79.1689C570.24 78.5815 568.108 78.3018 568.108 78.8315C568.108 79.2726 567.087 79.5412 566.242 79.3226C565.688 79.1793 565.623 79.234 565.754 79.731C565.892 80.2535 565.802 80.3049 564.743 80.3049C564.103 80.3049 563.538 80.4274 563.488 80.5771C563.438 80.7269 562.913 80.9247 562.322 81.017C561.732 81.1092 561.188 81.256 561.114 81.3432C560.823 81.6844 559.163 82.4311 558.738 82.4111C558.459 82.3981 558.416 82.3396 558.626 82.2561C559.25 82.007 558.968 81.6344 558.155 81.6344C557.711 81.6344 557.348 81.7541 557.348 81.9003C557.348 82.0466 557.166 82.1662 556.944 82.1662C556.722 82.1662 556.541 82.0304 556.541 81.8642C556.541 81.4693 554.445 81.7405 552.662 82.3665C551.581 82.7462 551.178 83.0799 550.457 84.193C549.971 84.9421 549.495 85.865 549.399 86.2442C549.228 86.9202 548.439 87.3951 547.968 87.1068C547.836 87.0265 546.957 87.3608 546.015 87.8495C545.072 88.3383 543.893 88.8148 543.395 88.9084C542.597 89.0589 540.955 90.4517 540.943 90.9899C540.94 91.0897 540.696 91.2473 540.4 91.3401C539.983 91.471 539.862 91.7425 539.862 92.5484C539.862 93.364 539.717 93.682 539.19 94.0237C538.82 94.2633 538.517 94.655 538.517 94.894C538.517 95.5266 535.787 97.6422 533.229 98.9909C531.053 100.139 530.133 101.125 529.979 102.476C529.891 103.247 529.984 103.842 530.257 104.266C530.521 104.677 530.732 105.952 530.854 107.875C530.992 110.069 531.142 110.887 531.424 110.994C531.726 111.109 531.783 111.649 531.7 113.604C531.59 116.158 531.165 117.698 530.417 118.253C530.178 118.43 529.822 118.968 529.625 119.45C529.428 119.931 529.2 120.384 529.117 120.457C528.711 120.818 528.026 122.339 528.026 122.882C528.026 123.226 528.337 123.74 528.733 124.053C529.288 124.49 529.469 124.91 529.576 126.008C529.687 127.145 529.843 127.488 530.416 127.85C531.692 128.657 531.814 128.873 531.629 130.016C531.521 130.684 531.559 131.094 531.729 131.094C531.879 131.094 532.086 131.423 532.188 131.825C532.406 132.69 533.075 133.487 533.582 133.487C533.824 133.487 533.944 133.833 533.944 134.528C533.944 135.125 534.088 135.617 534.28 135.68C534.519 135.759 534.643 136.753 534.707 139.093C534.775 141.59 534.89 142.447 535.178 142.608C535.392 142.728 535.558 143.227 535.558 143.753C535.558 144.308 535.667 144.62 535.827 144.522C535.975 144.432 536.096 144.538 536.096 144.759C536.096 144.98 536.296 145.271 536.539 145.406C536.783 145.541 537.002 145.935 537.027 146.283C537.051 146.631 537.172 147.433 537.294 148.067C537.469 148.97 537.616 149.192 537.979 149.099C538.887 148.864 539.255 149.381 539.448 151.163C539.551 152.114 539.747 152.961 539.883 153.044C540.02 153.128 540.131 153.884 540.131 154.725C540.131 155.657 540.285 156.455 540.526 156.77C540.744 157.053 540.925 157.776 540.93 158.375C540.935 158.974 541.131 159.846 541.367 160.313C541.969 161.507 541.714 161.939 540.405 161.939C539.21 161.939 537.172 162.483 537.172 162.802C537.172 162.913 537.004 163.003 536.797 163.003C536.591 163.003 536.353 163.182 536.268 163.402C536.183 163.621 535.919 163.801 535.682 163.801C535.445 163.801 535.069 163.98 534.847 164.2C534.538 164.506 533.756 164.598 531.485 164.598C529.213 164.598 528.432 164.691 528.122 164.997C527.9 165.217 527.364 165.396 526.931 165.396C526.497 165.396 526.143 165.5 526.143 165.628C526.143 165.756 525.659 165.936 525.067 166.03C524.475 166.124 523.991 166.318 523.991 166.463C523.991 166.613 523.099 166.726 521.906 166.727C520.583 166.728 519.54 166.874 519.051 167.126C518.52 167.4 517.459 167.523 515.643 167.523C514.018 167.523 512.97 167.632 512.911 167.807C512.858 167.962 512.275 168.161 511.615 168.249C510.954 168.336 510.252 168.568 510.055 168.763C509.857 168.959 509.474 169.119 509.205 169.119C508.936 169.119 508.645 169.298 508.56 169.518C508.464 169.766 508.053 169.917 507.471 169.917C506.958 169.917 506.471 170.022 506.39 170.151C506.31 170.28 505.334 170.469 504.223 170.572C503.111 170.675 502.201 170.869 502.201 171.003C502.201 171.137 501.851 171.246 501.423 171.246C500.979 171.246 500.578 171.418 500.49 171.645C500.405 171.864 500.044 172.044 499.687 172.044C499.331 172.044 498.888 172.223 498.704 172.443C498.492 172.695 497.898 172.842 497.086 172.842C496.193 172.842 495.756 172.963 495.648 173.24C495.563 173.46 495.242 173.639 494.935 173.639C494.373 173.639 493.925 173.916 493.111 174.769C492.866 175.025 492.451 175.235 492.188 175.235C491.925 175.235 491.71 175.354 491.71 175.501C491.71 175.647 491.464 175.767 491.164 175.767C490.863 175.767 490.547 175.946 490.462 176.165C490.377 176.385 490.032 176.564 489.696 176.564C489.361 176.564 488.935 176.744 488.751 176.963C488.567 177.183 488.18 177.362 487.892 177.362C487.603 177.362 487.186 177.542 486.964 177.761C486.742 177.98 486.206 178.16 485.773 178.16C485.339 178.16 484.985 178.279 484.985 178.426C484.985 178.572 484.852 178.692 484.689 178.692C484.526 178.692 483.879 179.23 483.25 179.888C482.621 180.546 481.967 181.085 481.797 181.085C481.627 181.085 481.488 181.264 481.488 181.484C481.488 181.703 481.316 181.883 481.107 181.883C480.897 181.883 480.565 182.242 480.369 182.68C480.172 183.119 479.859 183.478 479.673 183.478C479.488 183.478 479.336 183.639 479.336 183.835C479.336 184.314 478.194 185.605 477.772 185.605C477.587 185.605 477.366 185.785 477.281 186.004C477.196 186.224 477.018 186.403 476.885 186.403C476.753 186.403 476.175 186.882 475.601 187.467C475.026 188.052 474.421 188.53 474.256 188.53C474.091 188.53 473.955 188.71 473.955 188.929C473.955 189.149 473.821 189.328 473.657 189.328C473.492 189.328 472.797 189.869 472.11 190.531C470.151 192.418 470.029 192.519 469.696 192.519C469.524 192.519 469.382 192.698 469.382 192.918C469.382 193.137 469.201 193.317 468.979 193.317C468.757 193.317 468.575 193.436 468.575 193.583C468.575 193.729 468.333 193.848 468.037 193.848C467.738 193.848 467.499 194.026 467.499 194.247C467.499 194.467 467.356 194.646 467.181 194.646C466.731 194.646 463.195 198.314 463.195 198.781C463.195 198.993 463.066 199.167 462.909 199.167C462.751 199.167 462.317 199.526 461.943 199.964C461.57 200.403 461.093 200.762 460.885 200.762C460.676 200.762 460.505 200.942 460.505 201.161C460.505 201.38 460.35 201.56 460.16 201.56C459.969 201.56 459.595 201.926 459.328 202.373C459.06 202.821 458.49 203.543 458.059 203.978C457.629 204.413 457.277 204.885 457.277 205.026C457.277 205.167 457.095 205.283 456.873 205.283C456.651 205.283 456.47 205.462 456.47 205.682C456.47 205.901 456.288 206.08 456.066 206.08C455.844 206.08 455.663 206.2 455.663 206.346C455.663 206.493 455.421 206.612 455.125 206.612C454.826 206.612 454.587 206.79 454.587 207.011C454.587 207.23 454.467 207.41 454.322 207.41C454.176 207.41 453.034 208.427 451.785 209.67C450.536 210.913 449.385 211.93 449.226 211.93C449.067 211.93 448.938 212.11 448.938 212.329C448.938 212.549 448.756 212.728 448.534 212.728C448.312 212.728 448.131 212.867 448.131 213.037C448.131 213.371 446.558 214.855 446.203 214.855C445.829 214.855 441.92 218.858 442.067 219.092C442.264 219.408 436.963 224.694 436.449 224.694C436.216 224.694 436.025 224.874 436.025 225.093C436.025 225.312 435.796 225.492 435.516 225.492C435.236 225.492 434.937 225.671 434.852 225.891C434.767 226.11 434.525 226.29 434.314 226.29C434.103 226.29 433.861 226.469 433.776 226.688C433.691 226.908 433.436 227.087 433.209 227.087C432.983 227.087 432.797 227.207 432.797 227.353C432.797 227.499 432.616 227.619 432.394 227.619C432.172 227.619 431.99 227.742 431.99 227.892C431.99 228.041 431.688 228.278 431.318 228.417C430.948 228.556 430.645 228.779 430.645 228.913C430.645 229.047 430.343 229.232 429.973 229.324C429.603 229.416 429.3 229.608 429.3 229.751C429.3 229.895 429.005 230.012 428.643 230.012C428.282 230.012 427.918 230.123 427.833 230.258C427.749 230.393 427.318 230.582 426.876 230.678C426.434 230.774 426.072 230.957 426.072 231.085C426.072 231.213 425.629 231.4 425.088 231.5C424.547 231.601 423.791 231.844 423.407 232.043C423.023 232.24 422.437 232.403 422.104 232.404C421.771 232.405 421.499 232.525 421.499 232.671C421.499 232.818 421.088 232.937 420.586 232.937C420.023 232.937 419.614 233.09 419.518 233.336C419.433 233.556 419.072 233.735 418.716 233.735C418.359 233.735 417.917 233.915 417.733 234.134C417.549 234.353 417.183 234.533 416.922 234.533C416.66 234.533 416.376 234.712 416.29 234.932C416.205 235.151 415.95 235.33 415.724 235.33C415.497 235.33 415.312 235.437 415.312 235.568C415.312 235.698 415.009 235.88 414.639 235.972C414.269 236.063 413.967 236.253 413.967 236.393C413.967 236.532 413.422 236.892 412.756 237.192C412.09 237.492 411.546 237.854 411.546 237.996C411.546 238.139 411.316 238.255 411.036 238.255C410.756 238.255 410.457 238.435 410.372 238.654C410.287 238.874 409.972 239.053 409.671 239.053C409.37 239.053 409.125 239.17 409.125 239.314C409.125 239.457 408.793 239.657 408.387 239.758C407.982 239.858 407.489 240.1 407.292 240.295C407.095 240.489 406.64 240.649 406.281 240.649C405.921 240.649 405.627 240.768 405.627 240.915C405.627 241.061 405.495 241.181 405.334 241.181C405.172 241.181 404.732 241.42 404.356 241.712C403.979 242.005 403.446 242.244 403.17 242.244C402.894 242.244 402.668 242.364 402.668 242.51C402.668 242.656 402.426 242.776 402.13 242.776C401.834 242.776 401.592 242.926 401.592 243.11C401.592 243.294 401.218 243.608 400.76 243.808C400.302 244.008 399.572 244.516 399.137 244.936C398.702 245.357 398.229 245.701 398.086 245.701C397.943 245.701 397.826 245.88 397.826 246.1C397.826 246.319 397.658 246.499 397.451 246.499C397.245 246.499 397.007 246.678 396.922 246.898C396.837 247.117 396.63 247.296 396.463 247.296C396.296 247.296 395.836 247.625 395.441 248.028C395.047 248.43 394.102 249.321 393.342 250.008C392.583 250.695 391.376 252.012 390.662 252.933C389.109 254.938 386.854 257.135 386.351 257.135C386.153 257.135 385.99 257.243 385.99 257.375C385.99 257.507 385.625 257.741 385.179 257.894C384.734 258.048 384.297 258.389 384.209 258.652C383.744 260.043 382.769 261.656 382.392 261.656C382.172 261.656 379.803 263.917 379.803 264.126C379.803 264.21 379.276 264.796 378.632 265.427C377.987 266.059 377.235 266.964 376.96 267.439C376.684 267.914 376.303 268.303 376.113 268.303C375.923 268.303 375.768 268.416 375.768 268.552C375.768 268.808 375.418 269.222 373.076 271.746C372.337 272.543 371.732 273.283 371.732 273.39C371.732 273.498 371.486 273.663 371.184 273.758C370.865 273.858 370.393 274.478 370.058 275.238C369.74 275.958 369.381 276.547 369.261 276.547C369.141 276.547 369.042 276.72 369.042 276.932C369.042 277.144 368.88 277.413 368.681 277.53C368.483 277.647 368.093 278.102 367.816 278.541C367.235 279.459 366.162 280.535 365.827 280.535C365.701 280.535 365.16 281.163 364.624 281.931C364.088 282.699 363.224 283.686 362.703 284.125C362.182 284.564 361.394 285.252 360.951 285.654C360.509 286.056 360.03 286.385 359.887 286.385C359.744 286.385 359.627 286.502 359.627 286.645C359.627 286.942 357.444 287.981 356.817 287.981C356.587 287.981 356.399 288.098 356.399 288.242C356.399 288.385 356.088 288.58 355.709 288.674C355.059 288.835 353.709 290.53 353.709 291.185C353.709 291.858 352.82 292.342 351.723 292.266C351.114 292.224 350.575 292.08 350.526 291.946C350.476 291.813 349.856 291.703 349.146 291.703C348.328 291.703 347.734 291.558 347.522 291.305C347.337 291.085 346.908 290.906 346.567 290.906C346.225 290.906 345.765 290.726 345.543 290.507C345.302 290.269 344.644 290.108 343.909 290.108C342.996 290.108 342.68 290.006 342.68 289.709C342.68 289.131 339.235 289.131 339.011 289.709C338.926 289.928 338.634 290.108 338.363 290.108C338.091 290.108 337.794 290.228 337.703 290.374C337.612 290.52 337.308 290.64 337.028 290.64C336.748 290.64 336.414 290.826 336.285 291.053C336.135 291.319 335.486 291.524 334.46 291.628C333.585 291.718 332.729 291.921 332.558 292.079C332.388 292.238 331.95 292.581 331.586 292.84C330.973 293.278 330.555 294.223 330.181 296.018C330.068 296.558 329.808 296.799 329.158 296.965C328.676 297.089 328.152 297.457 327.983 297.792C327.815 298.124 327.543 298.529 327.377 298.693C327.212 298.856 327.077 299.551 327.077 300.237C327.077 301.054 326.949 301.534 326.705 301.626C326.285 301.786 326.107 302.675 325.745 306.437C325.606 307.886 325.381 309.142 325.246 309.229C325.11 309.316 324.915 309.957 324.811 310.655C324.692 311.453 324.515 311.858 324.334 311.747C323.98 311.531 324.136 312.411 324.905 314.965C325.212 315.985 325.463 317.203 325.463 317.671C325.463 318.139 325.645 318.702 325.867 318.921C326.089 319.141 326.27 319.619 326.27 319.985C326.27 320.35 326.452 320.829 326.674 321.049C326.896 321.268 327.077 321.635 327.077 321.865C327.077 322.095 327.198 322.283 327.346 322.283C327.511 322.283 327.621 323.6 327.63 325.673C327.652 330.848 328.308 335.692 329.246 337.607C329.572 338.273 329.899 339.343 329.972 339.985C330.045 340.627 330.197 341.096 330.309 341.027C330.937 340.644 331.037 345.366 330.438 347.112C330.054 348.23 329.903 352.473 330.031 358.584C330.057 359.821 329.929 360.716 329.651 361.243C329.421 361.679 329.232 362.299 329.231 362.619C329.23 362.94 329.108 363.276 328.96 363.366C328.812 363.457 328.691 363.994 328.691 364.56C328.691 365.126 328.51 365.768 328.288 365.987C328.066 366.207 327.884 366.561 327.884 366.774C327.884 366.987 327.703 367.504 327.482 367.923C327.261 368.342 327.08 368.898 327.079 369.158C327.078 369.419 326.896 369.701 326.674 369.785C326.441 369.873 326.27 370.27 326.27 370.723C326.27 371.154 325.968 372.043 325.598 372.698C325.228 373.353 324.925 374.171 324.925 374.515C324.925 374.86 324.744 375.211 324.522 375.296C324.3 375.38 324.118 375.739 324.118 376.093C324.118 376.448 323.937 376.807 323.715 376.891C323.493 376.975 323.311 377.28 323.311 377.568C323.311 377.857 323.197 378.163 323.058 378.248C322.919 378.333 322.527 378.953 322.187 379.626C321.847 380.298 321.416 380.907 321.229 380.977C321.043 381.048 320.89 381.256 320.89 381.44C320.89 381.624 320.604 382.06 320.254 382.409C319.904 382.758 319.533 383.313 319.429 383.642C319.325 383.971 319.127 384.24 318.989 384.24C318.851 384.24 318.738 384.465 318.738 384.74C318.738 385.014 318.556 385.388 318.334 385.57C318.113 385.752 317.931 386.056 317.931 386.245C317.931 386.434 317.835 386.629 317.718 386.678C317.6 386.726 317.227 387.215 316.889 387.763C316.55 388.312 316.176 388.761 316.057 388.761C315.939 388.761 315.771 388.97 315.684 389.226C315.459 389.888 314.895 390.719 314.501 390.968C314.316 391.085 314.165 391.354 314.165 391.566C314.165 391.778 314.046 391.952 313.901 391.952C313.756 391.952 313.561 392.251 313.468 392.616C313.376 392.982 313.192 393.281 313.06 393.281C312.928 393.281 312.82 393.461 312.82 393.68C312.82 393.899 312.651 394.079 312.445 394.079C312.24 394.079 311.995 394.378 311.902 394.744C311.809 395.109 311.615 395.408 311.47 395.408C311.324 395.408 311.206 395.575 311.206 395.779C311.206 395.982 311.024 396.218 310.802 396.302C310.58 396.386 310.399 396.702 310.399 397.004C310.399 397.306 310.217 397.621 309.995 397.705C309.773 397.79 309.592 398.025 309.592 398.229C309.592 398.433 309.484 398.599 309.352 398.599C309.22 398.599 309.036 398.898 308.943 399.264C308.85 399.63 308.625 399.929 308.442 399.929C308.259 399.929 307.939 400.318 307.731 400.793C307.294 401.793 305.918 403.626 305.225 404.132C304.797 404.445 304.75 405.03 304.75 410.054V415.628L305.489 415.45C305.896 415.351 306.477 415.02 306.779 414.713C307.719 413.759 309.054 411.966 309.054 411.657C309.054 411.495 309.152 411.363 309.272 411.363C309.393 411.363 309.751 410.773 310.07 410.052C310.388 409.331 311.019 408.367 311.471 407.91C311.923 407.453 312.541 406.558 312.843 405.923C313.145 405.287 313.627 404.557 313.913 404.301C314.2 404.045 314.434 403.738 314.434 403.619C314.434 403.501 314.8 403.034 315.248 402.581C316.259 401.559 317.393 399.808 317.393 399.269C317.393 399.047 317.491 398.865 317.61 398.865C317.871 398.865 319.51 396.66 320.08 395.541C320.626 394.47 323.662 389.98 323.916 389.869C324.027 389.82 324.118 389.679 324.118 389.555C324.118 389.431 324.582 388.634 325.15 387.782C325.717 386.931 326.513 385.576 326.918 384.772C328.166 382.293 328.913 380.93 329.201 380.607C329.352 380.436 329.555 379.986 329.652 379.607C329.748 379.228 329.935 378.851 330.066 378.771C330.198 378.69 330.305 378.407 330.305 378.141C330.305 377.875 330.487 377.509 330.709 377.327C330.931 377.144 331.112 376.771 331.112 376.496C331.112 376.222 331.229 375.997 331.371 375.997C331.513 375.997 331.76 375.518 331.919 374.933C332.079 374.348 332.326 373.87 332.468 373.87C332.61 373.87 332.726 373.584 332.726 373.235C332.726 372.886 332.907 372.258 333.128 371.839C333.349 371.42 333.531 370.861 333.532 370.597C333.533 370.332 333.641 370.181 333.772 370.262C333.904 370.342 334.093 369.87 334.192 369.214C334.292 368.557 334.487 368.02 334.626 368.02C334.765 368.02 334.878 367.687 334.878 367.281C334.878 366.875 335.044 366.306 335.247 366.018C335.45 365.73 335.68 365.075 335.76 364.563C336.341 360.822 336.603 359.593 336.896 359.245C337.08 359.025 337.295 358.251 337.373 357.525C337.451 356.798 337.649 356.16 337.811 356.107C337.974 356.053 338.107 355.427 338.107 354.715C338.107 353.888 338.242 353.344 338.482 353.208C338.889 352.977 339.508 346.908 339.46 343.606C339.421 340.872 339.724 338.77 340.157 338.77C340.447 338.77 340.528 338.19 340.528 336.11C340.528 333.83 340.465 333.451 340.089 333.451C339.717 333.451 339.679 333.243 339.837 332.055C339.939 331.287 340.136 330.619 340.275 330.571C340.414 330.522 340.528 330.24 340.528 329.943C340.528 329.505 340.65 329.435 341.184 329.568C341.544 329.657 341.91 329.618 341.995 329.482C342.081 329.345 341.816 329.183 341.406 329.122C340.491 328.985 343.94 328.818 345.715 328.913C346.423 328.95 347.149 328.867 347.329 328.727C347.509 328.587 347.984 328.395 348.384 328.301C348.784 328.206 349.45 327.99 349.864 327.821C350.277 327.652 350.686 327.503 350.772 327.491C350.857 327.478 351.437 326.96 352.06 326.338C352.682 325.717 353.429 325.208 353.719 325.208C354.012 325.208 354.247 325.028 354.247 324.805C354.247 324.583 354.7 324.194 355.253 323.941C355.806 323.687 356.567 323.174 356.942 322.799C357.318 322.425 357.833 322.04 358.088 321.944C358.343 321.847 358.551 321.645 358.551 321.494C358.551 321.343 358.712 321.219 358.909 321.219C359.106 321.219 359.429 320.92 359.627 320.555C359.825 320.189 360.148 319.89 360.345 319.89C360.542 319.89 360.703 319.764 360.703 319.609C360.703 319.455 361.763 318.28 363.057 316.997C365.884 314.197 366.89 313.037 366.89 312.578C366.89 312.39 367.072 312.167 367.294 312.082C367.516 311.998 367.697 311.74 367.697 311.509C367.697 311.057 368.453 309.473 368.773 309.254C368.88 309.18 369.172 308.725 369.422 308.243C369.673 307.76 370.053 307.298 370.267 307.217C370.481 307.136 370.66 306.933 370.664 306.765C370.668 306.598 371.183 305.904 371.807 305.223C373.507 303.369 374.423 302.249 374.423 302.024C374.423 301.914 374.965 301.252 375.629 300.553C376.292 299.854 376.837 299.183 376.839 299.064C376.846 298.76 377.557 298.085 377.87 298.085C378.012 298.085 378.681 297.547 379.356 296.889C380.032 296.231 380.772 295.692 381.001 295.692C381.23 295.692 381.417 295.575 381.417 295.432C381.417 295.288 381.931 294.914 382.56 294.598C383.881 293.937 385.87 292.452 387.6 290.836C389.205 289.337 390.734 288.247 391.233 288.247C391.456 288.247 391.639 288.067 391.639 287.848C391.639 287.595 391.896 287.449 392.34 287.449C392.853 287.449 393 287.342 392.887 287.05C392.793 286.807 392.886 286.651 393.127 286.651C393.344 286.651 393.522 286.532 393.522 286.385C393.522 286.239 393.685 286.119 393.884 286.119C394.083 286.119 394.465 285.88 394.733 285.587C395 285.295 395.372 285.056 395.559 285.056C395.746 285.056 395.939 284.961 395.988 284.845C396.037 284.729 396.532 284.36 397.086 284.026C397.641 283.691 398.095 283.307 398.095 283.173C398.095 283.038 398.277 282.928 398.499 282.928C398.721 282.928 398.902 282.817 398.902 282.68C398.902 282.544 399.172 282.348 399.502 282.244C399.832 282.141 400.407 281.85 400.78 281.597C402.257 280.598 404.516 279.206 404.662 279.206C404.746 279.206 405.611 278.667 406.583 278.009C407.556 277.351 408.525 276.812 408.738 276.812C408.95 276.812 409.125 276.693 409.125 276.547C409.125 276.4 409.352 276.281 409.63 276.281C409.907 276.281 410.285 276.101 410.47 275.882C410.654 275.662 411.005 275.483 411.25 275.483C411.716 275.483 412.622 276.363 412.622 276.815C412.622 276.96 413.287 277.078 414.101 277.078C415.237 277.078 415.581 277.171 415.581 277.477C415.581 277.958 416.565 278.015 416.725 277.544C416.813 277.286 416.942 277.296 417.297 277.586C417.644 277.869 417.831 277.885 418.067 277.652C418.238 277.483 418.657 277.344 418.997 277.344C419.337 277.344 419.616 277.212 419.616 277.05C419.616 276.888 419.787 276.821 419.997 276.9C420.207 276.98 420.443 276.879 420.521 276.677C420.6 276.474 421.064 276.106 421.552 275.859C422.355 275.453 424.296 273.54 426.072 271.404C427.595 269.573 429.171 267.865 429.915 267.24C430.861 266.444 431.89 265.447 432.773 264.47C433.129 264.075 433.772 263.683 434.2 263.599C434.691 263.502 434.929 263.317 434.845 263.099C434.715 262.766 434.971 262.418 437.169 259.941C437.723 259.316 438.177 258.694 438.177 258.56C438.177 258.427 438.389 258.134 438.648 257.911C438.907 257.688 439.785 256.74 440.598 255.804C442.543 253.568 444.123 252.083 444.554 252.083C444.746 252.083 444.903 251.972 444.903 251.837C444.903 251.588 447.867 249.577 449.341 248.826C450.911 248.026 452.434 247.7 452.992 248.044C453.273 248.218 454.102 248.36 454.833 248.36C455.656 248.36 456.316 248.512 456.566 248.759C456.806 248.996 457.464 249.158 458.191 249.158C459.166 249.158 459.381 249.238 459.257 249.557C459.089 249.99 459.567 250.114 459.823 249.704C459.91 249.566 460.598 250.045 461.353 250.768C462.109 251.491 462.785 252.083 462.857 252.083C462.929 252.083 463.562 252.677 464.263 253.404C465.65 254.842 466.496 255.274 467.92 255.274C468.428 255.274 468.844 255.393 468.844 255.54C468.844 255.686 469.013 255.806 469.219 255.806C469.425 255.806 469.663 255.985 469.749 256.204C469.834 256.424 470.2 256.603 470.562 256.603C471.499 256.603 472.072 256.867 472.072 257.297C472.072 257.557 472.424 257.667 473.261 257.667C473.914 257.667 474.489 257.773 474.538 257.902C474.588 258.031 475.263 258.222 476.04 258.326C477.233 258.485 477.453 258.449 477.453 258.091C477.453 257.858 477.619 257.667 477.822 257.667C478.026 257.667 478.571 257.592 479.033 257.501C479.698 257.369 479.874 257.424 479.874 257.767C479.874 258.142 480.312 258.199 483.236 258.199C486.046 258.199 486.599 258.133 486.599 257.8C486.599 257.474 487.007 257.408 488.818 257.441C490.039 257.463 490.705 257.531 490.298 257.591C489.891 257.652 489.558 257.808 489.558 257.938C489.558 258.067 491.863 258.162 494.68 258.149C500.61 258.122 500.558 258.1 500.587 260.592C500.597 261.442 500.77 262.271 500.999 262.571C501.216 262.855 501.398 263.453 501.403 263.9C501.407 264.348 501.589 264.946 501.806 265.23C502.023 265.514 502.201 265.942 502.201 266.183C502.201 266.423 502.665 267.116 503.232 267.723C503.799 268.33 504.405 269.134 504.577 269.508C504.966 270.351 505 272.39 504.622 272.159C504.447 272.052 504.353 273.735 504.353 277.012C504.353 281.012 504.433 282.134 504.748 282.545C504.966 282.829 505.147 283.331 505.152 283.66C505.157 284.01 505.327 284.258 505.564 284.258C505.816 284.258 505.967 284.51 505.967 284.931C505.967 285.301 506.149 285.673 506.371 285.757C506.593 285.841 506.774 286.067 506.774 286.259C506.774 286.45 506.896 286.647 507.046 286.696C507.366 286.802 507.923 294.226 507.875 297.753C507.759 306.367 507.786 308.264 508.047 310.043C508.208 311.136 508.471 312.073 508.633 312.126C508.794 312.179 508.926 312.76 508.926 313.416C508.926 314.123 509.091 314.772 509.33 315.009C509.552 315.228 509.733 315.778 509.733 316.231C509.733 316.684 510.097 317.691 510.54 318.468C511.434 320.032 511.596 321.591 510.953 322.432C510.407 323.145 510.401 326.172 510.944 326.709C511.166 326.928 511.348 327.338 511.348 327.62C511.348 327.902 511.455 328.133 511.587 328.133C511.719 328.133 511.903 328.432 511.996 328.798C512.089 329.164 512.284 329.463 512.429 329.463C512.59 329.463 512.693 331.055 512.693 333.551C512.693 336.505 512.804 337.953 513.096 338.77C513.649 340.319 513.649 344.432 513.096 344.885C512.874 345.068 512.693 345.33 512.693 345.469C512.693 345.608 512.511 345.901 512.289 346.12C512.067 346.339 511.885 346.75 511.885 347.032C511.885 347.314 511.764 347.545 511.616 347.545C511.455 347.545 511.348 348.608 511.348 350.204C511.348 351.799 511.455 352.863 511.616 352.863C511.764 352.863 511.885 353.092 511.885 353.373C511.885 354.232 512.198 354.754 512.864 355.004C513.609 355.284 513.692 356.081 513.094 357.214C512.486 358.367 512.51 368.175 513.123 369.04C513.519 369.599 513.517 369.687 513.096 370.147C512.746 370.529 512.683 370.897 512.824 371.724C512.926 372.318 513.119 372.871 513.254 372.953C513.389 373.036 513.5 373.682 513.5 374.389C513.5 375.286 513.621 375.72 513.903 375.827C514.233 375.952 514.307 376.607 514.307 379.415C514.307 381.945 514.413 383.05 514.708 383.612C514.929 384.03 515.111 384.991 515.112 385.747C515.113 386.503 515.242 387.163 515.4 387.215C515.557 387.267 515.755 387.816 515.839 388.434C515.923 389.052 516.081 389.558 516.19 389.558C516.299 389.558 516.445 391.197 516.513 393.2C516.597 395.639 516.742 396.876 516.952 396.945C517.124 397.002 517.266 397.521 517.266 398.098C517.266 398.786 517.405 399.201 517.669 399.301C517.891 399.385 518.073 399.746 518.073 400.104C518.073 400.461 518.261 401.112 518.49 401.552C518.945 402.42 518.775 405.133 518.311 404.41C518.181 404.206 518.079 407.921 518.077 412.974C518.073 420.413 518.138 421.984 518.468 422.414C518.685 422.698 518.867 423.199 518.871 423.528C518.876 423.857 519.001 424.127 519.149 424.127C519.297 424.127 519.418 424.289 519.418 424.487C519.418 424.686 519.811 425.376 520.292 426.023C521.674 427.879 521.839 428.284 521.839 429.818C521.839 430.734 521.961 431.302 522.174 431.372C522.421 431.454 522.534 432.831 522.605 436.646C522.667 439.973 522.81 441.941 523.007 442.179C523.178 442.387 523.357 443.844 523.413 445.503C523.475 447.316 523.632 448.531 523.82 448.647C524.091 448.816 524.367 456.309 524.307 461.886C524.298 462.69 524.302 463.887 524.315 464.545C524.328 465.203 524.348 466.34 524.359 467.071C524.405 470.044 523.998 473.715 523.588 474.014C523.341 474.194 523.184 474.738 523.184 475.41C523.184 476.149 523.073 476.489 522.848 476.445C522.591 476.394 522.494 477.468 522.438 480.965C522.374 484.928 522.42 485.552 522.774 485.552C523.073 485.552 523.184 485.84 523.184 486.616C523.184 487.201 523.305 487.679 523.453 487.679C523.789 487.679 523.82 492.917 523.485 493.042C523.354 493.09 523.197 494.297 523.136 495.723C523.035 498.081 523.068 498.316 523.508 498.316C523.914 498.316 523.991 498.548 523.991 499.778C523.991 500.583 524.112 501.241 524.26 501.241C524.418 501.241 524.529 502.171 524.529 503.501C524.529 505.333 524.605 505.761 524.932 505.761C525.179 505.761 525.336 506.009 525.336 506.397C525.336 506.747 525.154 507.103 524.932 507.187C524.588 507.317 524.529 508.369 524.529 514.395C524.529 518.921 524.433 521.45 524.26 521.45C524.112 521.45 523.991 521.988 523.991 522.646C523.991 523.305 524.112 523.843 524.26 523.843C524.425 523.843 524.529 525.108 524.529 527.108C524.529 530.05 524.582 530.418 525.07 530.831C525.368 531.082 525.731 531.288 525.877 531.288C526.023 531.288 526.143 531.458 526.143 531.665C526.143 531.872 526.238 532.082 526.354 532.131C526.471 532.179 526.839 532.603 527.172 533.073C527.686 533.797 527.751 534.13 527.599 535.266C527.5 536.004 527.313 536.607 527.184 536.607C527.055 536.607 526.95 536.906 526.95 537.271C526.95 537.685 526.797 537.936 526.546 537.936C526.205 537.936 526.143 538.586 526.143 542.191C526.143 545.795 526.205 546.445 526.546 546.445C526.889 546.445 526.95 547.122 526.95 550.944C526.95 554.186 527.039 555.471 527.27 555.547C527.459 555.61 527.637 556.384 527.705 557.431L527.82 559.209H526.981C526.415 559.209 526.143 559.079 526.143 558.81C526.143 558.591 525.961 558.411 525.739 558.411C525.47 558.411 525.336 558.677 525.336 559.209C525.336 559.741 525.47 560.007 525.739 560.007C525.961 560.007 526.143 560.186 526.143 560.406C526.143 560.625 526.325 560.805 526.546 560.805C526.829 560.805 526.95 561.087 526.95 561.748C526.95 562.459 527.172 562.919 527.851 563.61C528.347 564.114 528.902 564.527 529.083 564.527C529.314 564.527 529.358 564.78 529.228 565.365C529.072 566.067 529.111 566.176 529.475 566.038C529.835 565.902 529.909 566.078 529.909 567.062V568.25H587.611L587.517 562.998C587.465 560.11 587.314 557.707 587.181 557.658C587.048 557.609 586.939 556.316 586.939 554.784C586.939 552.994 587.035 552.057 587.208 552.162C587.364 552.258 587.477 551.994 587.477 551.532C587.477 551.095 587.658 550.558 587.88 550.339C588.102 550.12 588.284 549.715 588.284 549.44C588.284 549.165 588.461 548.708 588.679 548.424C588.896 548.14 589.078 547.713 589.082 547.475C589.087 547.237 589.272 546.893 589.494 546.711C589.716 546.529 589.898 546.06 589.898 545.668C589.898 545.277 590.018 544.838 590.164 544.693C590.311 544.548 590.511 543.836 590.609 543.111C590.707 542.385 590.92 541.706 591.082 541.602C591.285 541.47 591.377 538.957 591.377 533.548C591.377 526.915 591.315 525.647 590.982 525.443C590.647 525.239 590.639 525.058 590.929 524.265C591.176 523.59 591.192 523.183 590.988 522.806C590.832 522.518 590.705 521.213 590.705 519.905C590.705 518.405 590.548 517.099 590.279 516.365C589.842 515.167 589.695 511.002 590.036 509.466C590.185 508.799 590.129 508.686 589.65 508.686C589.118 508.686 589.091 508.546 589.091 505.801C589.091 503.271 589.17 502.768 589.732 501.723C590.085 501.067 590.459 500.032 590.563 499.423C590.667 498.814 590.851 498.316 590.972 498.316C591.093 498.316 591.276 497.718 591.377 496.986C591.479 496.255 591.672 495.59 591.806 495.508C591.94 495.426 592.051 494.559 592.051 493.58C592.053 492.522 592.216 491.492 592.455 491.039C592.944 490.113 593.026 485.028 592.559 484.566C591.894 483.909 591.945 470.667 592.611 471.074C592.746 471.157 592.857 470.813 592.857 470.311C592.857 468.985 593.154 467.722 593.428 467.889C593.558 467.968 593.664 466.973 593.664 465.678C593.664 464.241 593.786 463.201 593.977 463.013C594.149 462.842 594.338 461.712 594.398 460.5C594.457 459.288 594.61 458.057 594.737 457.764C594.864 457.472 595.03 455.956 595.106 454.396C595.183 452.836 595.368 451.34 595.519 451.072C595.669 450.804 595.869 449.418 595.964 447.992C596.058 446.566 596.245 445.4 596.379 445.4C596.513 445.4 596.623 445.056 596.623 444.635C596.623 444.215 596.804 443.362 597.026 442.74C597.248 442.119 597.431 441.176 597.432 440.646C597.433 440.116 597.614 439.34 597.835 438.921C598.056 438.502 598.241 437.664 598.246 437.06C598.25 436.455 598.432 435.727 598.649 435.444C598.866 435.16 599.044 434.538 599.044 434.063C599.044 433.588 599.157 433.13 599.294 433.046C599.432 432.962 599.619 432.207 599.711 431.368C599.802 430.53 599.992 429.636 600.133 429.382C600.274 429.128 600.39 428.35 600.391 427.654C600.392 426.957 600.553 426.082 600.75 425.709C600.947 425.336 601.186 424.379 601.282 423.583C601.377 422.787 601.579 422.095 601.729 422.045C601.88 421.996 602.003 421.501 602.003 420.946C602.003 420.374 602.178 419.794 602.407 419.606C602.629 419.424 602.81 418.885 602.81 418.407C602.81 417.93 602.991 417.197 603.212 416.778C603.433 416.359 603.614 415.627 603.616 415.152C603.616 414.677 603.737 414.288 603.883 414.288C604.029 414.288 604.227 413.807 604.322 413.219C604.417 412.63 604.6 412.085 604.728 412.006C604.857 411.928 604.962 411.46 604.962 410.967C604.962 410.475 605.144 409.892 605.366 409.673C605.588 409.453 605.771 408.936 605.773 408.523C605.776 408.111 605.866 407.651 605.975 407.501C606.375 406.951 610.381 404.715 610.968 404.715C611.179 404.715 611.503 404.536 611.687 404.316C611.872 404.097 612.235 403.918 612.494 403.918C612.754 403.918 613.117 403.738 613.301 403.519C613.486 403.299 613.917 403.12 614.26 403.12C614.603 403.12 614.959 403 615.05 402.854C615.141 402.708 615.497 402.588 615.84 402.588C616.183 402.588 616.614 402.408 616.799 402.189C616.983 401.97 617.529 401.79 618.013 401.79C618.547 401.79 618.954 401.633 619.048 401.391C619.133 401.172 619.434 400.992 619.716 400.992C619.999 400.992 620.38 400.813 620.565 400.594C620.749 400.374 621.043 400.195 621.22 400.195C621.51 400.195 623.055 399.482 624.062 398.884C624.284 398.752 624.889 398.451 625.407 398.215C626.403 397.762 626.734 397.574 628.581 396.406C629.217 396.003 629.901 395.674 630.099 395.674C630.298 395.674 630.53 395.495 630.615 395.275C630.7 395.056 630.957 394.877 631.185 394.877C631.413 394.877 632.31 394.398 633.177 393.813C634.044 393.228 634.822 392.749 634.905 392.749C634.989 392.749 635.456 392.39 635.941 391.952C636.428 391.513 636.907 391.154 637.006 391.154C637.179 391.154 637.472 390.921 639.664 389.044C640.182 388.6 640.757 388.235 640.942 388.233C641.127 388.231 641.278 388.049 641.278 387.83C641.278 387.611 641.431 387.431 641.617 387.431C641.804 387.431 642.283 387.132 642.682 386.766C643.08 386.401 643.512 386.102 643.64 386.102C643.769 386.102 644.856 385.174 646.057 384.041C647.257 382.907 648.459 381.786 648.727 381.548C649.479 380.88 651.559 378.587 652.308 377.599C652.677 377.111 653.313 376.381 653.72 375.976C654.127 375.571 654.46 375.111 654.46 374.954C654.46 374.796 654.641 374.667 654.863 374.667C655.085 374.667 655.267 374.529 655.267 374.359C655.267 374.07 657.212 371.391 657.843 370.812C658.411 370.291 660.178 367.789 660.568 366.956C660.67 366.737 660.985 366.318 661.268 366.025C661.55 365.733 661.901 365.165 662.047 364.762C662.194 364.36 662.423 364.031 662.556 364.031C662.69 364.031 662.799 363.851 662.799 363.632C662.799 363.413 662.912 363.233 663.05 363.233C663.188 363.233 663.386 362.964 663.489 362.635C663.594 362.306 663.753 361.977 663.844 361.904C664.108 361.692 665.22 360.08 665.22 359.909C665.22 359.72 665.729 359.094 666.363 358.502C666.622 358.26 666.834 357.91 666.834 357.723C666.834 357.536 666.928 357.383 667.042 357.383C667.156 357.383 667.472 356.935 667.744 356.386C668.016 355.838 668.347 355.209 668.479 354.99C668.612 354.771 668.801 354.412 668.899 354.192C668.997 353.973 669.42 353.4 669.839 352.92C670.257 352.44 670.6 351.871 670.6 351.657C670.6 351.443 670.692 351.267 670.805 351.267C670.918 351.267 671.13 351.03 671.276 350.74C672.812 347.691 673.69 346.059 673.856 345.946C673.965 345.872 674.138 345.483 674.24 345.082C674.341 344.682 674.509 344.354 674.613 344.354C674.831 344.354 675.711 342.465 675.711 341.996C675.711 341.821 675.893 341.609 676.115 341.525C676.337 341.441 676.518 341.214 676.518 341.02C676.518 340.827 676.67 340.511 676.855 340.317C677.04 340.124 677.432 339.516 677.725 338.966C678.292 337.902 678.832 337.276 680.328 335.95C680.84 335.496 681.494 334.834 681.781 334.479C682.288 333.849 684.322 332.654 684.885 332.654C685.839 332.654 686.349 330.567 685.93 328.379C685.781 327.604 685.752 326.903 685.864 326.821C686.537 326.327 687.332 323.993 687.332 322.514C687.332 321.39 687.444 320.874 687.709 320.774C687.916 320.695 688.086 320.408 688.086 320.136C688.086 319.805 688.22 319.692 688.489 319.794C688.815 319.918 688.893 319.687 688.893 318.589C688.893 317.842 689 317.231 689.131 317.231C689.261 317.231 689.452 316.575 689.553 315.773C689.654 314.97 689.85 314.245 689.987 314.161C690.125 314.077 690.238 313.806 690.239 313.559C690.24 313.312 690.422 312.766 690.643 312.348C690.864 311.929 691.045 311.307 691.045 310.967C691.045 310.627 691.158 310.28 691.296 310.195C691.434 310.111 691.684 309.388 691.852 308.589C692.02 307.789 692.27 307.066 692.408 306.982C692.546 306.898 692.659 306.588 692.659 306.294C692.659 306 692.84 305.579 693.062 305.36C693.284 305.14 693.466 304.734 693.466 304.456C693.466 304.117 693.598 304.002 693.869 304.105C694.187 304.226 694.273 304.028 694.273 303.166C694.273 302.565 694.38 302.074 694.512 302.074C694.643 302.074 694.83 301.655 694.928 301.143C695.025 300.631 695.22 300.213 695.361 300.213C695.502 300.213 695.618 300.044 695.618 299.839C695.618 299.596 695.806 299.513 696.156 299.604C696.53 299.7 696.694 299.612 696.694 299.313C696.694 299.076 696.815 298.883 696.963 298.883C697.111 298.883 697.232 298.597 697.232 298.247C697.232 297.897 697.413 297.541 697.635 297.457C697.857 297.373 698.039 297.05 698.039 296.739C698.039 296.428 698.297 295.796 698.612 295.334C699.179 294.504 705.505 288.247 705.778 288.247C705.855 288.247 706.485 287.738 707.177 287.116C709.363 285.154 710.188 284.524 710.575 284.524C710.782 284.524 710.951 284.344 710.951 284.125C710.951 283.906 711.072 283.726 711.22 283.726C711.538 283.726 712.565 282.755 712.565 282.454C712.565 282.339 712.93 282.032 713.376 281.772C714.191 281.296 716.039 279.839 717.542 278.487C718.045 278.034 718.586 277.791 718.979 277.841C719.504 277.907 719.581 277.83 719.437 277.381C719.279 276.891 719.352 276.856 720.219 276.995C720.891 277.103 721.174 277.048 721.174 276.811C721.174 276.626 721.476 276.197 721.846 275.858C722.216 275.52 722.519 275.129 722.519 274.99C722.519 274.851 723.063 274.517 723.728 274.246C724.393 273.976 724.938 273.622 724.939 273.459C724.939 273.287 725.221 273.217 725.612 273.29C726.089 273.381 726.285 273.301 726.285 273.017C726.285 272.797 726.436 272.623 726.621 272.629C727.52 272.662 727.899 272.523 727.899 272.159C727.899 271.94 728.08 271.76 728.302 271.76C728.524 271.76 728.706 271.637 728.706 271.485C728.706 271.141 730.247 269.633 730.598 269.633C730.741 269.633 730.858 269.453 730.858 269.234C730.858 269.015 731.039 268.835 731.261 268.835C731.483 268.835 731.665 268.723 731.665 268.587C731.665 268.451 731.937 268.255 732.27 268.153C732.603 268.05 732.962 267.832 733.069 267.669C733.175 267.506 733.598 267.373 734.01 267.373C734.666 267.373 734.749 267.282 734.681 266.641C734.627 266.127 734.726 265.91 735.017 265.91C735.245 265.91 735.431 265.731 735.431 265.511C735.431 265.292 735.551 265.112 735.697 265.112C736.106 265.112 737.045 264.238 737.045 263.857C737.045 263.67 737.227 263.517 737.448 263.517C737.699 263.517 737.852 263.266 737.852 262.852C737.852 262.487 737.973 262.187 738.121 262.187C738.269 262.187 738.39 262.022 738.39 261.82C738.39 261.617 738.637 261.388 738.939 261.31C739.377 261.197 739.452 261.029 739.313 260.481C739.18 259.956 739.24 259.794 739.572 259.794C739.809 259.794 740.004 259.615 740.004 259.395C740.004 259.176 740.186 258.996 740.408 258.996C740.63 258.996 740.811 258.877 740.811 258.731C740.811 258.584 740.993 258.465 741.215 258.465C741.437 258.465 741.618 258.349 741.618 258.208C741.618 258.067 741.981 257.584 742.425 257.135C742.869 256.686 743.232 256.184 743.232 256.018C743.232 255.852 743.306 255.79 743.395 255.878C743.486 255.967 743.879 255.744 744.27 255.383C744.661 255.021 745.253 254.656 745.586 254.572C745.919 254.487 746.191 254.307 746.191 254.17C746.191 253.719 747.139 252.907 748.152 252.488C748.701 252.261 749.15 251.958 749.15 251.813C749.15 251.669 749.332 251.551 749.554 251.551C749.776 251.551 749.957 251.372 749.957 251.152C749.957 250.933 750.139 250.753 750.361 250.753C750.583 250.753 750.764 250.643 750.764 250.508C750.764 249.954 752.527 248.518 753.118 248.59C753.521 248.639 753.723 248.524 753.723 248.246C753.723 248.016 753.905 247.828 754.127 247.828C754.349 247.828 754.531 247.649 754.531 247.429C754.531 247.21 754.712 247.031 754.934 247.031C755.18 247.031 755.338 246.782 755.338 246.394C755.338 246.044 755.519 245.689 755.741 245.605C755.963 245.521 756.145 245.149 756.145 244.779C756.145 244.408 756.266 244.106 756.414 244.106C756.562 244.106 756.683 243.747 756.683 243.308C756.683 242.776 756.817 242.51 757.086 242.51C757.308 242.51 757.49 242.331 757.49 242.111C757.49 241.892 757.671 241.712 757.893 241.712C758.138 241.712 758.297 241.465 758.297 241.085C758.297 240.726 758.584 240.244 758.969 239.958C759.502 239.562 759.642 239.224 759.642 238.325C759.642 237.369 759.726 237.192 760.18 237.192C760.476 237.192 760.718 237.072 760.718 236.926C760.718 236.78 761.02 236.66 761.39 236.66C761.88 236.66 762.063 236.518 762.063 236.136C762.063 235.78 762.192 235.662 762.466 235.766C762.745 235.872 762.87 235.749 762.87 235.367C762.87 234.986 762.995 234.863 763.273 234.968C763.579 235.084 763.677 234.92 763.677 234.295C763.677 233.554 763.76 233.469 764.484 233.469C765.022 233.469 765.291 233.336 765.291 233.07C765.291 232.822 765.545 232.671 765.963 232.671C766.382 232.671 766.636 232.521 766.636 232.273C766.636 232.053 766.817 231.874 767.039 231.874C767.261 231.874 767.443 231.754 767.443 231.608C767.443 231.462 767.749 231.342 768.124 231.342C768.498 231.342 768.875 231.162 768.96 230.943C769.045 230.724 769.404 230.544 769.758 230.544C770.151 230.544 770.402 230.389 770.402 230.145C770.402 229.879 770.671 229.746 771.209 229.746C771.747 229.746 772.016 229.613 772.016 229.348C772.016 229.082 772.285 228.949 772.823 228.949C773.364 228.949 773.63 228.816 773.63 228.547C773.63 228.226 773.849 228.179 774.706 228.315C775.427 228.429 775.782 228.386 775.782 228.185C775.782 227.644 776.844 226.821 777.543 226.821C778.173 226.821 778.214 226.751 778.059 225.933C777.894 225.066 777.909 225.049 778.719 225.166C779.353 225.258 779.548 225.185 779.548 224.857C779.548 224.558 779.792 224.428 780.355 224.428C780.893 224.428 781.162 224.295 781.162 224.029C781.162 223.69 781.733 223.482 782.076 223.697C782.134 223.734 782.406 223.57 782.681 223.333C782.955 223.096 783.664 222.832 784.256 222.745C785.89 222.505 786.241 222.421 786.445 222.22C786.548 222.118 787.096 222.035 787.663 222.035C788.23 222.035 788.694 221.928 788.694 221.798C788.694 221.667 789.007 221.483 789.39 221.388C789.772 221.293 790.345 220.977 790.662 220.684C790.98 220.392 791.514 220.085 791.85 220.002C792.186 219.918 792.461 219.694 792.461 219.503C792.461 219.312 792.904 218.704 793.446 218.152C794.729 216.847 794.931 215.739 794.778 210.867C794.711 208.746 794.715 207.4 794.786 207.875C794.87 208.431 795.067 208.739 795.34 208.739C795.693 208.739 795.738 208.495 795.611 207.277C795.511 206.316 795.558 205.814 795.748 205.814C796.318 205.814 797.841 203.985 797.841 203.302C797.841 202.756 797.972 202.624 798.51 202.624C799.387 202.624 800.262 201.864 800.262 201.102C800.262 200.633 800.414 200.496 800.934 200.496C801.353 200.496 801.607 200.345 801.607 200.097C801.607 199.802 801.921 199.699 802.817 199.699C803.714 199.699 804.028 199.595 804.028 199.3C804.028 199.034 804.297 198.901 804.835 198.901C805.279 198.901 805.642 198.776 805.642 198.624C805.642 198.084 806.68 197.234 807.131 197.405C807.431 197.519 807.619 197.408 807.71 197.063C807.784 196.782 808.136 196.48 808.492 196.392C808.848 196.304 809.139 196.114 809.139 195.971C809.139 195.827 809.321 195.71 809.543 195.71C809.765 195.71 809.946 195.59 809.946 195.444C809.946 195.298 810.128 195.178 810.35 195.178C810.572 195.178 810.753 194.999 810.753 194.779C810.753 194.56 810.935 194.38 811.157 194.38C811.379 194.38 811.56 194.201 811.56 193.981C811.56 193.716 811.829 193.583 812.367 193.583C812.905 193.583 813.174 193.45 813.174 193.184C813.174 192.894 813.475 192.785 814.269 192.785C815.326 192.785 816.133 192.332 816.133 191.74C816.133 191.583 816.44 191.455 816.814 191.455C817.189 191.455 817.565 191.276 817.65 191.056C817.735 190.837 818.095 190.658 818.449 190.658C818.841 190.658 819.092 190.502 819.092 190.259C819.092 190.011 819.346 189.86 819.762 189.86C820.502 189.86 821.513 189.134 821.513 188.604C821.513 188.417 821.644 188.264 821.803 188.264C821.962 188.264 822.447 187.915 822.879 187.487C823.312 187.06 823.665 186.581 823.665 186.423C823.665 186.266 823.847 186.137 824.069 186.137C824.291 186.137 824.472 185.958 824.472 185.738C824.472 185.519 824.603 185.339 824.763 185.339C825.372 185.339 827.432 182.995 827.432 182.302C827.432 181.63 827.47 181.617 829.323 181.617C830.756 181.617 831.252 181.52 831.369 181.218C831.455 180.998 831.814 180.819 832.168 180.819C832.561 180.819 832.812 180.663 832.812 180.42C832.812 180.103 833.202 180.021 834.714 180.021C836.573 180.021 837.385 179.704 837.385 178.976C837.385 178.82 837.566 178.692 837.788 178.692C838.01 178.692 838.192 178.512 838.192 178.293C838.192 178.073 838.374 177.894 838.595 177.894C838.817 177.894 838.999 177.714 838.999 177.495C838.999 177.276 839.181 177.096 839.402 177.096C839.671 177.096 839.806 176.83 839.806 176.298C839.806 175.86 839.927 175.501 840.075 175.501C840.223 175.501 840.344 175.321 840.344 175.102C840.344 174.882 840.513 174.703 840.719 174.703C840.925 174.703 841.157 174.538 841.235 174.337C841.326 174.104 841.631 174.019 842.071 174.102C842.64 174.209 842.765 174.132 842.765 173.67C842.765 173.222 842.93 173.108 843.572 173.108C844.074 173.108 844.379 172.971 844.379 172.746C844.379 172.503 844.601 172.425 845.052 172.511C845.575 172.609 845.724 172.528 845.724 172.139C845.724 171.712 845.896 171.655 846.935 171.736C847.905 171.813 848.145 171.747 848.145 171.406C848.145 171.172 848.275 170.98 848.433 170.98C848.592 170.98 848.903 170.801 849.125 170.581C849.393 170.317 850.065 170.182 851.123 170.182C852.392 170.182 852.718 170.097 852.718 169.766C852.718 169.439 852.967 169.367 853.862 169.433C854.845 169.506 854.999 169.448 854.961 169.016C854.922 168.555 855.069 168.526 856.777 168.668C858.289 168.793 858.636 168.75 858.636 168.439C858.636 168.19 858.92 168.055 859.443 168.055C860.161 168.055 860.251 167.967 860.251 167.257C860.251 166.819 860.352 166.46 860.477 166.46C860.951 166.46 861.384 164.411 861.211 162.979C861.115 162.188 860.97 160.714 860.889 159.703C860.805 158.656 860.578 157.704 860.361 157.49C860.152 157.283 859.982 156.601 859.982 155.968C859.982 155.337 859.801 154.478 859.58 154.059C859.359 153.64 859.177 152.742 859.176 152.063C859.175 151.212 859.049 150.78 858.771 150.675C858.506 150.574 858.367 150.159 858.367 149.465C858.367 148.885 858.262 148.345 858.134 148.266C858.005 148.188 857.822 147.642 857.727 147.054C857.632 146.466 857.449 145.985 857.319 145.985C857.19 145.985 857.001 145.327 856.9 144.522C856.798 143.718 856.618 143.06 856.501 143.06C856.383 143.06 856.218 142.554 856.134 141.935C856.05 141.317 855.852 140.768 855.695 140.716C855.537 140.665 855.408 140.228 855.408 139.746C855.408 139.264 855.227 138.721 855.005 138.539C854.783 138.357 854.601 137.915 854.601 137.557C854.601 137.199 854.42 136.726 854.198 136.507C853.976 136.287 853.794 135.891 853.794 135.626C853.794 135.36 853.614 134.8 853.392 134.381C853.172 133.963 852.99 133.41 852.989 133.155C852.988 132.899 852.866 132.689 852.718 132.689C852.57 132.689 852.449 132.473 852.449 132.208C852.449 131.944 852.271 131.495 852.054 131.211C851.837 130.927 851.656 130.43 851.651 130.106C851.646 129.781 851.473 129.123 851.265 128.643C851.058 128.163 850.679 127.052 850.423 126.174C850.168 125.297 849.793 124.261 849.59 123.873C849.387 123.485 849.221 122.797 849.221 122.344C849.221 121.891 849.108 121.521 848.969 121.521C848.83 121.521 848.634 120.981 848.534 120.321C848.434 119.661 848.245 119.056 848.114 118.976C847.983 118.896 847.876 118.502 847.876 118.099C847.876 117.697 847.698 117.136 847.481 116.852C847.264 116.568 847.082 116.03 847.078 115.655C847.073 115.281 846.891 114.743 846.674 114.459C846.457 114.175 846.275 113.628 846.271 113.244C846.266 112.859 846.081 112.396 845.859 112.214C845.637 112.032 845.455 111.479 845.455 110.985C845.455 110.491 845.348 110.087 845.216 110.087C845.085 110.087 844.897 109.668 844.8 109.156C844.703 108.644 844.518 108.225 844.388 108.225C844.259 108.225 844.069 107.837 843.966 107.361C843.863 106.886 843.689 106.377 843.578 106.231C843.468 106.085 843.298 105.636 843.201 105.234C843.103 104.832 842.905 104.503 842.76 104.503C842.615 104.503 842.496 104.218 842.496 103.87C842.496 103.523 842.314 103.089 842.093 102.907C841.871 102.725 841.689 102.359 841.689 102.093C841.689 101.827 841.568 101.535 841.421 101.445C841.273 101.355 840.852 100.66 840.486 99.9003C840.119 99.1409 839.514 98.1722 839.14 97.747C838.767 97.3221 838.461 96.8224 838.461 96.6363C838.461 96.4504 838.158 96.0627 837.788 95.7752C837.419 95.4875 837.116 95.0865 837.116 94.8842C837.116 94.6818 836.904 94.3274 836.645 94.0966C836.386 93.866 835.932 93.3382 835.636 92.9242C833.745 90.2768 832.307 88.7339 829.824 86.6867C829.203 86.1748 828.288 85.3673 827.789 84.8918C827.291 84.4166 826.826 84.0276 826.754 84.0276C826.683 84.0276 826.398 83.8181 826.121 83.5623C825.844 83.3065 825.094 82.6781 824.455 82.1662C823.815 81.6544 823.073 81.0263 822.806 80.7702C822.539 80.5144 822.21 80.3049 822.074 80.3049C821.938 80.3049 821.787 80.215 821.737 80.1054C821.688 79.9956 821.153 79.5744 820.549 79.1692C819.945 78.7639 819.193 78.1957 818.879 77.9061C818.565 77.6168 818.229 77.3799 818.134 77.3799C818.038 77.3799 817.518 77.0408 816.979 76.6263C816.44 76.212 815.787 75.7969 815.528 75.7041C815.269 75.611 815.057 75.4119 815.057 75.2608C815.057 75.11 814.876 74.9867 814.654 74.9867C814.432 74.9867 814.25 74.867 814.25 74.7207C814.25 74.5745 814.075 74.4548 813.86 74.4548C813.646 74.4548 813.373 74.299 813.255 74.1086C813.066 73.8052 810.381 72.0617 810.102 72.0617C810.044 72.0617 809.168 71.5235 808.155 70.8656C807.143 70.2077 806.163 69.6693 805.978 69.669C805.793 69.6687 805.642 69.5488 805.642 69.4025C805.642 69.2563 805.469 69.1366 805.258 69.1366C805.046 69.1366 804.713 68.9872 804.518 68.8043C804.323 68.6216 803.59 68.1956 802.891 67.8579C802.191 67.5202 801.549 67.1314 801.463 66.9937C801.377 66.8562 801.018 66.7435 800.665 66.7435C800.313 66.7435 799.958 66.6371 799.877 66.507C799.795 66.377 799.41 66.1914 799.021 66.0949C798.632 65.9984 798.138 65.7458 797.924 65.5338C797.709 65.3216 797.307 65.148 797.031 65.148C796.754 65.148 796.453 65.0283 796.361 64.8821C796.27 64.7358 795.969 64.6162 795.692 64.6162C795.415 64.6162 795.022 64.4513 794.818 64.2497C794.615 64.0482 794.061 63.7993 793.589 63.6967C793.116 63.5943 792.73 63.4002 792.73 63.2656C792.73 63.1308 792.442 63.0207 792.09 63.0207C791.738 63.0207 791.3 62.8412 791.116 62.6218C790.931 62.4025 790.342 62.2192 789.805 62.2145C789.268 62.2099 788.594 62.0305 788.307 61.8156C788.006 61.5906 787.202 61.4252 786.41 61.4252C785.654 61.4252 784.901 61.2915 784.735 61.1282C784.57 60.9647 783.789 60.8152 783 60.7958C781.487 60.7586 779.47 61.5024 778.51 62.4514C778.238 62.7205 777.632 63.1082 777.165 63.3129C776.696 63.5177 776.241 63.9245 776.151 64.217C776.062 64.5098 775.769 64.9884 775.499 65.2809C775.229 65.5734 774.852 66.4111 774.66 67.1423C774.468 67.8736 774.189 68.5578 774.038 68.6625C773.654 68.9303 773.722 72.7908 774.117 73.1817C774.293 73.3553 774.437 73.8363 774.437 74.2506C774.437 74.6649 774.619 75.4334 774.841 75.9583C775.063 76.4835 775.244 77.2445 775.244 77.6498C775.244 78.0595 775.423 78.4547 775.648 78.5397C775.87 78.6238 776.055 78.9657 776.06 79.2995C776.064 79.6329 776.246 80.1384 776.463 80.4221C776.68 80.7061 776.858 81.2829 776.858 81.7043C776.858 82.1255 777.04 82.6497 777.262 82.869C777.484 83.0884 777.665 83.6184 777.665 84.0465C777.665 84.4749 777.786 84.8253 777.934 84.8253C778.082 84.8253 778.203 85.2442 778.203 85.756C778.203 86.4059 778.325 86.6867 778.607 86.6867C778.837 86.6867 779.01 86.926 779.01 87.2449C779.01 87.794 779.499 89.0629 780.245 90.4504C780.453 90.8386 780.624 91.3388 780.624 91.5616C780.624 91.7845 780.782 92.1251 780.974 92.3184C781.818 93.1643 782.206 94.8143 782.047 96.8857C781.937 98.3243 781.982 98.9186 782.2 98.9186C782.377 98.9186 782.522 98.4402 782.541 97.7885L782.575 96.6583L782.784 97.8549C783.054 99.398 782.589 102.969 782.081 103.253C781.872 103.37 781.7 103.759 781.7 104.117C781.7 104.475 781.64 104.769 781.566 104.769C781.32 104.769 780.355 103.709 780.355 103.439C780.355 103.293 780.174 103.173 779.952 103.173C779.73 103.173 779.548 103.353 779.548 103.572C779.548 103.791 779.44 103.971 779.308 103.971C779.176 103.971 778.998 103.791 778.913 103.572C778.815 103.32 778.402 103.173 777.789 103.173C776.841 103.173 776.051 102.698 776.051 102.128C776.051 101.972 775.809 101.844 775.513 101.844C775.214 101.844 774.975 102.021 774.975 102.242C774.975 102.462 774.794 102.641 774.572 102.641C774.35 102.641 774.168 102.761 774.168 102.907C774.168 103.053 773.986 103.173 773.765 103.173C773.543 103.173 773.361 103.286 773.361 103.424C773.361 103.563 772.803 103.712 772.122 103.757C770.921 103.836 770.871 103.874 770.487 105C770.203 105.832 770.173 106.244 770.381 106.449C770.54 106.607 770.675 107.042 770.68 107.414C770.684 107.787 770.866 108.325 771.083 108.609C771.313 108.909 771.478 109.703 771.478 110.506C771.478 111.266 771.659 112.23 771.88 112.649C772.168 113.196 772.282 114.277 772.283 116.482C772.284 118.171 772.398 119.667 772.536 119.806C772.887 120.158 773.394 123.337 773.543 126.108L773.668 128.435H772.875C772.439 128.435 771.931 128.614 771.747 128.833C771.563 129.053 771.176 129.232 770.888 129.232C770.599 129.232 770.195 129.382 769.989 129.565C769.23 130.237 768.875 130.497 768.3 130.801C767.977 130.972 767.712 131.335 767.712 131.606C767.712 131.878 767.557 132.159 767.368 132.231C767.178 132.303 766.785 132.824 766.493 133.39C766.202 133.955 765.812 134.513 765.627 134.63C765.442 134.747 765.291 135.025 765.291 135.247C765.291 135.47 765.14 135.807 764.955 135.997C764.02 136.954 762.332 139.206 762.332 139.495C762.332 139.594 762.043 139.939 761.691 140.262C761.338 140.585 760.967 141.107 760.866 141.423C760.764 141.738 760.569 141.996 760.431 141.996C760.293 141.996 760.18 142.176 760.18 142.395C760.18 142.614 760.087 142.794 759.974 142.794C759.861 142.794 759.469 143.272 759.104 143.857C758.738 144.442 758.358 144.921 758.259 144.921C758.16 144.921 757.638 145.579 757.098 146.384C756.558 147.188 756.001 147.846 755.861 147.846C755.721 147.846 755.607 148.029 755.607 148.253C755.607 148.477 755.425 148.729 755.203 148.813C754.981 148.898 754.799 149.133 754.799 149.337C754.799 149.541 754.618 149.707 754.396 149.707C754.174 149.707 753.992 149.8 753.992 149.914C753.992 150.028 753.659 150.492 753.253 150.945C751.659 152.72 751.033 153.493 751.033 153.686C751.033 153.797 750.731 154.112 750.361 154.387C749.991 154.661 749.688 155.027 749.688 155.2C749.688 155.372 749.597 155.553 749.487 155.602C749.376 155.65 748.812 156.272 748.233 156.984C747.655 157.695 746.838 158.649 746.417 159.103C745.997 159.558 745.653 160.014 745.653 160.115C745.653 160.216 745.169 160.813 744.577 161.44C743.985 162.067 743.501 162.676 743.501 162.792C743.501 162.908 743.32 163.003 743.098 163.003C742.876 163.003 742.694 163.163 742.694 163.358C742.694 163.553 742.361 164.014 741.954 164.383C740.988 165.26 739.466 167.053 739.466 167.317C739.466 167.43 739.284 167.523 739.063 167.523C738.841 167.523 738.659 167.633 738.659 167.768C738.659 167.902 738.175 168.51 737.583 169.119C736.991 169.728 736.507 170.336 736.507 170.47C736.507 170.604 736.401 170.714 736.271 170.714C736.141 170.714 735.469 171.402 734.777 172.243C734.086 173.084 733.345 173.983 733.13 174.241C732.916 174.498 732.741 174.776 732.741 174.858C732.741 175.116 731.985 175.767 731.684 175.767C731.526 175.767 731.396 175.858 731.396 175.969C731.396 176.08 731.12 176.469 730.783 176.833C730.446 177.197 729.877 177.914 729.518 178.426C729.16 178.938 728.28 179.94 727.562 180.654C726.846 181.367 725.932 182.381 725.532 182.905C725.132 183.43 724.351 184.312 723.796 184.865C723.242 185.419 722.788 185.947 722.788 186.04C722.788 186.133 722.485 186.486 722.115 186.825C721.745 187.164 721.443 187.565 721.443 187.715C721.443 187.866 720.716 188.711 719.828 189.594C718.941 190.477 718.214 191.264 718.214 191.343C718.214 191.422 717.67 192.017 717.004 192.666C716.338 193.315 715.793 194.005 715.793 194.201C715.793 194.397 715.491 194.716 715.121 194.912C714.751 195.108 714.448 195.474 714.448 195.726C714.448 195.978 714.267 196.254 714.045 196.338C713.823 196.422 713.641 196.668 713.641 196.885C713.641 197.102 713.486 197.374 713.296 197.491C712.879 197.749 711.22 199.981 711.22 200.286C711.22 200.406 710.766 201.001 710.211 201.611C706.783 205.375 705.376 206.363 703.375 206.408C702.486 206.428 701.972 206.566 701.877 206.811C701.784 207.051 701.388 207.163 700.76 207.126C699.216 207.036 698.846 207.117 698.846 207.543C698.846 207.762 698.664 207.942 698.442 207.942C698.22 207.942 698.039 208.121 698.039 208.341C698.039 208.629 697.74 208.739 696.963 208.739C696.371 208.739 695.887 208.844 695.887 208.971C695.887 209.099 695.394 209.281 694.792 209.376C694.19 209.472 693.375 209.846 692.979 210.208C692.584 210.57 692.048 210.867 691.787 210.867C691.485 210.867 691.314 211.069 691.314 211.427C691.314 211.816 691.19 211.941 690.91 211.834C690.688 211.75 690.507 211.797 690.507 211.939C690.507 212.08 690.635 212.196 690.792 212.196C690.948 212.196 691.002 212.316 690.91 212.462C690.819 212.608 690.328 212.728 689.818 212.728C689.309 212.728 688.893 212.848 688.893 212.994C688.893 213.14 688.62 213.264 688.287 213.269C687.955 213.274 687.198 213.509 686.606 213.792C686.014 214.074 685.379 214.309 685.194 214.315C685.009 214.32 684.857 214.443 684.857 214.589C684.857 214.736 684.676 214.855 684.454 214.855C684.232 214.855 684.049 215.005 684.048 215.188C684.046 215.371 683.505 215.755 682.844 216.042C682.184 216.329 681.583 216.718 681.51 216.906C681.437 217.095 681.205 217.249 680.994 217.249C680.783 217.249 680.541 217.428 680.456 217.647C680.371 217.867 680.116 218.046 679.889 218.046C679.663 218.046 679.477 218.226 679.477 218.445C679.477 218.665 679.296 218.844 679.074 218.844C678.852 218.844 678.67 219.024 678.67 219.243C678.67 219.462 678.562 219.642 678.43 219.642C678.155 219.642 675.711 221.869 675.711 222.119C675.711 222.209 675.35 222.676 674.909 223.156C673.562 224.622 673.29 224.953 673.29 225.129C673.29 225.222 672.988 225.575 672.618 225.914C672.248 226.253 671.945 226.586 671.945 226.655C671.945 226.724 671.612 227.124 671.205 227.543C670.096 228.686 668.717 230.31 668.717 230.473C668.717 230.552 668.414 230.893 668.044 231.232C667.675 231.571 667.372 231.95 667.372 232.075C667.372 232.306 666.285 233.704 665.422 234.585C665.163 234.849 664.951 235.145 664.951 235.243C664.951 235.767 663.957 237.445 663.644 237.451C663.441 237.455 663.344 237.625 663.426 237.835C663.506 238.042 663.398 238.278 663.185 238.358C662.973 238.439 662.799 238.808 662.799 239.178C662.799 239.575 662.646 239.851 662.424 239.851C662.219 239.851 661.974 240.15 661.881 240.516C661.788 240.881 661.594 241.181 661.449 241.181C661.303 241.181 661.185 241.36 661.185 241.579C661.185 241.799 661.083 241.978 660.96 241.978C660.836 241.978 660.081 242.966 659.283 244.172C658.485 245.378 657.739 246.406 657.625 246.454C657.511 246.503 657.419 246.647 657.419 246.775C657.419 246.903 657.104 247.461 656.719 248.016C656.335 248.571 655.914 249.294 655.784 249.623C655.655 249.952 655.425 250.221 655.273 250.221C655.122 250.221 654.998 250.461 654.998 250.753C654.998 251.046 654.89 251.285 654.758 251.285C654.626 251.285 654.442 251.584 654.349 251.95C654.256 252.315 654.071 252.615 653.938 252.615C653.805 252.615 653.615 252.974 653.518 253.412C653.421 253.851 653.229 254.21 653.093 254.21C652.957 254.21 652.846 254.426 652.846 254.689C652.846 254.952 652.723 255.288 652.573 255.436C652.424 255.584 652.081 256.117 651.812 256.62C650.786 258.535 650.284 259.4 650.125 259.528C650.033 259.601 649.874 259.931 649.77 260.26C649.666 260.589 649.468 260.858 649.33 260.858C649.192 260.858 649.079 260.973 649.079 261.115C649.079 261.256 648.729 261.725 648.302 262.158C647.874 262.591 647.07 263.671 646.515 264.56C645.96 265.449 645.402 266.176 645.275 266.176C645.148 266.176 645.044 266.356 645.044 266.575C645.044 266.794 644.923 266.974 644.775 266.974C644.627 266.974 644.506 267.153 644.506 267.373C644.506 267.592 644.415 267.771 644.305 267.77C643.938 267.767 643.161 266.147 643.161 265.385C643.161 264.966 642.984 264.57 642.758 264.484C642.536 264.4 642.354 264.043 642.354 263.691C642.354 263.339 642.173 262.901 641.951 262.719C641.729 262.537 641.547 262.058 641.547 261.653C641.547 261.249 641.366 260.576 641.145 260.157C640.924 259.738 640.743 259.15 640.742 258.85C640.741 258.55 640.589 258.155 640.404 257.972C640.145 257.715 640.068 254.821 640.068 245.33C640.068 235.943 639.989 232.927 639.735 232.624C639.501 232.345 639.41 231.067 639.428 228.327L639.454 224.428H640.635C641.707 224.428 641.816 224.368 641.816 223.781C641.816 223.273 641.975 223.116 642.556 223.05C643.218 222.974 643.304 222.847 643.378 221.836C643.435 221.066 643.585 220.705 643.849 220.705C644.14 220.705 644.237 220.34 644.237 219.243C644.237 217.898 644.287 217.78 644.85 217.78C645.451 217.78 646.389 216.968 646.389 216.448C646.389 216.303 646.571 216.185 646.793 216.185C647.015 216.185 647.196 215.992 647.196 215.757C647.196 215.43 647.36 215.37 647.891 215.502C648.446 215.64 648.615 215.565 648.73 215.132C648.928 214.383 650.156 214.374 650.156 215.121C650.156 215.417 650.335 215.653 650.559 215.653C650.841 215.653 650.963 215.372 650.963 214.722C650.963 213.899 651.043 213.792 651.656 213.792C652.357 213.792 654.729 211.756 654.729 211.154C654.729 210.996 655.092 210.867 655.536 210.867C656.074 210.867 656.343 210.734 656.343 210.468C656.343 210.249 656.454 210.069 656.591 210.069C656.914 210.069 658.495 208.507 658.495 208.187C658.495 208.052 658.676 207.942 658.898 207.942C659.12 207.942 659.302 207.762 659.302 207.543C659.302 207.324 659.483 207.144 659.705 207.144C659.927 207.144 660.109 206.965 660.109 206.745C660.109 206.526 660.298 206.346 660.53 206.346C660.826 206.346 660.902 206.191 660.786 205.828C660.618 205.306 661.433 204.219 661.992 204.219C662.14 204.219 662.261 203.967 662.261 203.659C662.261 203.27 662.384 203.145 662.664 203.252C662.932 203.353 663.068 203.241 663.068 202.918C663.068 202.651 663.582 201.847 664.21 201.132C664.838 200.417 665.474 199.692 665.622 199.522C665.771 199.352 666.195 198.816 666.565 198.331C666.935 197.846 668.327 196.345 669.659 194.996C672.398 192.22 672.471 192.135 673.012 191.1C673.491 190.183 675.18 188.829 675.644 188.99C675.842 189.059 675.98 188.882 675.98 188.561C675.98 188.208 676.11 188.065 676.349 188.155C676.57 188.239 676.777 188.066 676.868 187.721C676.966 187.35 677.138 187.219 677.353 187.35C677.585 187.492 677.634 187.42 677.514 187.111C677.392 186.796 677.486 186.669 677.843 186.669C678.118 186.669 678.413 186.489 678.499 186.27C678.584 186.051 678.784 185.871 678.943 185.871C679.102 185.871 679.552 185.578 679.943 185.219C680.334 184.861 681.237 184.294 681.949 183.96C682.661 183.626 683.243 183.261 683.243 183.149C683.243 183.038 683.471 182.946 683.749 182.946C684.026 182.946 684.404 182.767 684.589 182.547C684.773 182.328 685.143 182.148 685.412 182.148C685.682 182.148 685.981 182.021 686.078 181.866C686.175 181.711 686.515 181.47 686.834 181.331C687.996 180.823 689.84 179.669 690.049 179.318C690.168 179.12 690.44 178.958 690.655 178.958C690.869 178.958 691.045 178.838 691.045 178.692C691.045 178.545 691.28 178.426 691.567 178.426C691.854 178.426 692.157 178.316 692.241 178.183C692.463 177.827 694.633 176.83 695.184 176.83C695.444 176.83 695.838 176.651 696.06 176.431C696.282 176.212 696.818 176.033 697.251 176.033C697.684 176.033 698.039 175.913 698.039 175.767C698.039 175.62 698.292 175.501 698.603 175.501C698.913 175.501 699.488 175.331 699.88 175.123C700.709 174.684 702.841 174.027 704.293 173.763C704.848 173.662 705.302 173.474 705.302 173.344C705.302 173.214 705.613 173.108 705.994 173.108C706.374 173.108 706.867 172.928 707.089 172.709C707.311 172.489 707.735 172.31 708.031 172.31C708.327 172.31 708.75 172.13 708.972 171.911C709.194 171.692 709.678 171.512 710.048 171.512C710.418 171.512 710.902 171.333 711.124 171.113C711.346 170.894 711.761 170.714 712.046 170.714C712.332 170.714 712.565 170.595 712.565 170.448C712.565 170.299 713.321 170.182 714.295 170.182C715.473 170.182 716.153 170.055 716.427 169.784C716.649 169.564 717.002 169.385 717.212 169.385C717.806 169.385 718.877 168.3 719.516 167.05C719.975 166.152 720.098 165.44 720.098 163.675C720.098 162.445 720.203 161.375 720.332 161.296C720.461 161.217 720.626 160.539 720.698 159.789C720.771 159.039 720.955 158.349 721.106 158.255C721.257 158.161 721.427 156.742 721.483 155.101C721.547 153.214 721.707 151.999 721.917 151.791C722.1 151.61 722.25 150.909 722.25 150.233C722.25 149.557 722.436 148.465 722.663 147.805C723 146.828 723.059 145.495 722.981 140.644C722.843 132.083 722.193 117.158 721.95 116.995C721.837 116.919 721.658 115.325 721.553 113.454C721.448 111.583 721.277 110.187 721.174 110.352C720.937 110.731 720.635 107.286 720.635 104.197C720.635 102.902 720.532 101.844 720.405 101.844C720.278 101.844 720.113 99.323 720.038 96.2425C719.949 92.5862 719.796 90.5366 719.596 90.3392C719.428 90.1731 719.29 89.6423 719.29 89.1597C719.29 88.4595 719.399 88.2822 719.828 88.2822C720.225 88.2822 720.367 88.1048 720.367 87.6091C720.367 87.2387 720.185 86.867 719.963 86.783C719.404 86.5708 719.399 84.5594 719.958 84.5594C720.273 84.5594 720.323 84.3188 720.197 83.4112C720.085 82.6047 720.151 82.15 720.418 81.8822C720.773 81.5262 721.448 77.0621 721.444 75.0928C721.443 74.6391 721.767 73.6818 722.163 72.9655C722.599 72.1757 722.965 70.9823 723.091 69.9344C723.205 68.9837 723.508 67.129 723.764 65.8128C724.114 64.0131 724.219 62.1996 724.188 58.5002C724.122 50.4301 723.863 44.8593 723.536 44.4708C723.005 43.8382 722.927 38.7859 723.426 37.3386C723.667 36.6403 723.864 35.6785 723.864 35.2015C723.864 34.7241 723.968 34.2702 724.095 34.1926C724.222 34.1149 724.409 33.2457 724.511 32.2608C724.614 31.2756 724.792 30.3449 724.909 30.1922C725.026 30.0399 725.397 29.1685 725.734 28.2564C726.072 27.3443 726.439 26.654 726.551 26.7224C726.663 26.7907 726.836 26.131 726.936 25.2564C727.037 24.3816 727.233 23.666 727.374 23.666C727.515 23.666 727.63 23.1541 727.63 22.5287C727.63 21.903 727.821 21.121 728.055 20.7905C728.683 19.9044 728.321 16.4332 727.467 15.159C726.411 13.5808 726.112 13.2955 725.515 13.2955C725.199 13.2955 724.94 13.1758 724.94 13.0296C724.94 12.8833 724.728 12.7629 724.469 12.7621C724.21 12.761 723.651 12.5815 723.228 12.3632C722.016 11.7383 720.602 11.858 719.611 12.6693C719.139 13.0562 718.752 13.5348 718.752 13.7329C718.752 13.931 718.631 14.0932 718.483 14.0932C718.336 14.0932 718.214 14.4881 718.214 14.9707C718.214 15.4534 718.111 15.9621 717.984 16.1009C717.675 16.4407 716.951 18.7608 716.744 20.0762C716.585 21.0845 716.422 21.7094 715.378 25.3279C715.135 26.1687 714.827 26.8569 714.692 26.8569C714.558 26.8569 714.448 27.0776 714.448 27.3475C714.448 28.178 713.451 28.8443 712.344 28.7529C711.8 28.7077 711.314 28.5619 711.265 28.4287C711.216 28.2955 710.943 28.1865 710.66 28.1865C710.376 28.1865 710.144 28.007 710.144 27.7876C710.144 27.5682 709.963 27.3887 709.741 27.3887C709.519 27.3887 709.337 27.2606 709.337 27.104C709.337 26.9471 709.156 26.6394 708.934 26.42C708.712 26.2007 708.53 25.8031 708.53 25.5369C708.53 25.2705 708.349 24.9836 708.127 24.8993C707.829 24.7865 707.723 24.3207 707.723 23.1235C707.723 22.0357 707.59 21.3693 707.32 21.1018C707.098 20.8825 706.916 20.2998 706.916 19.8071C706.916 19.3141 706.795 18.8371 706.647 18.7467C706.499 18.6563 706.377 18.2005 706.376 17.7338C706.375 17.2671 706.194 16.5425 705.973 16.1237C705.752 15.7047 705.57 15.1064 705.569 14.7942C705.568 14.4817 705.387 13.8834 705.166 13.4646C704.945 13.0456 704.76 12.2079 704.755 11.6033C704.749 10.9983 704.572 10.2043 704.361 9.83868C704.149 9.47305 703.972 8.79205 703.966 8.32538C703.961 7.85871 703.85 7.41145 703.719 7.33141C703.588 7.25164 703.399 6.64376 703.298 5.98112C703.198 5.31847 703.002 4.84541 702.864 4.92997C702.725 5.01453 702.612 4.897 702.612 4.66912C702.612 4.44123 702.43 4.25456 702.208 4.25456C701.987 4.25456 701.805 4.08996 701.805 3.88894C701.805 3.66876 701.515 3.52331 701.077 3.52331C700.676 3.52331 700.303 3.38876 700.247 3.22416C700.191 3.05956 699.868 2.92501 699.529 2.92501C699.189 2.92501 698.761 2.74552 698.577 2.52615C698.365 2.27406 697.772 2.12728 696.963 2.12728C696.154 2.12728 695.561 1.9805 695.349 1.72842C695.165 1.50904 694.847 1.32955 694.643 1.32955C694.44 1.32955 694.273 1.15006 694.273 0.930686C694.273 0.684985 694.02 0.53182 693.616 0.53182C693.255 0.53182 692.885 0.412161 692.793 0.26591C692.702 0.11966 691.666 0 690.491 0C689.246 0 688.355 0.110885 688.355 0.26591ZM713.641 31.0049C713.641 31.2386 713.466 31.8071 713.252 32.2679C713.037 32.7288 712.814 33.4648 712.754 33.9035C712.695 34.3423 712.628 33.9485 712.606 33.0282C712.581 32.014 712.698 31.2062 712.902 30.9775C713.35 30.4738 713.641 30.4847 713.641 31.0049ZM710.322 34.3689C710.248 34.5518 710.187 34.4021 710.187 34.0365C710.187 33.6709 710.248 33.5214 710.322 33.7041C710.397 33.8871 710.397 34.1862 710.322 34.3689ZM711.129 35.6984C711.055 35.8814 710.994 35.7317 710.994 35.3661C710.994 35.0004 711.055 34.851 711.129 35.0337C711.204 35.2166 711.204 35.5158 711.129 35.6984ZM712.027 36.4297C712.027 36.5759 711.853 36.6956 711.64 36.6956C711.426 36.6956 711.177 36.5759 711.086 36.4297C710.994 36.2834 711.169 36.1638 711.473 36.1638C711.778 36.1638 712.027 36.2834 712.027 36.4297ZM779.798 112.562C779.809 112.68 779.696 112.703 779.548 112.613C779.4 112.523 779.288 112.186 779.298 111.866C779.316 111.304 779.325 111.303 779.548 111.815C779.675 112.108 779.788 112.444 779.798 112.562ZM780.264 113.344C780.19 113.527 780.129 113.377 780.129 113.012C780.129 112.646 780.19 112.497 780.264 112.679C780.339 112.862 780.339 113.162 780.264 113.344ZM781.969 114.799C781.969 114.84 781.727 114.873 781.431 114.873C781.073 114.873 780.893 114.696 780.893 114.344C780.893 113.84 780.919 113.837 781.431 114.27C781.727 114.521 781.969 114.759 781.969 114.799ZM644.456 151.219C644.65 151.295 644.882 151.286 644.971 151.198C645.061 151.109 644.902 151.047 644.618 151.058C644.305 151.071 644.241 151.134 644.456 151.219ZM583.442 211.829C583.442 211.884 583.199 211.93 582.904 211.93C582.608 211.93 582.366 211.822 582.366 211.689C582.366 211.557 582.608 211.511 582.904 211.587C583.199 211.664 583.442 211.772 583.442 211.829Z" fill="white"/>
</svg>
