<svg width="196" height="444" viewBox="0 0 196 444" fill="none" xmlns="http://www.w3.org/2000/svg">
<path fill-rule="evenodd" clip-rule="evenodd" d="M149.891 0H45.9537C33.7684 0.00785893 22.0845 4.85192 13.4682 13.4682C4.85192 22.0845 0.00785892 33.7684 0 45.9537L0 397.919C0.00391325 410.111 4.84481 421.803 13.4602 430.43C22.0757 439.056 33.7618 443.912 45.9537 443.932H149.817C162.019 443.916 173.718 439.065 182.351 430.44C190.984 421.816 195.847 410.122 195.874 397.919V45.9537C195.855 33.7669 191.003 22.0853 182.382 13.4707C173.762 4.85613 162.078 0.0117665 149.891 0Z" fill="#FFFFFE"/>
<path fill-rule="evenodd" clip-rule="evenodd" d="M124.114 81.3823L124.218 82.8953C127.392 84.7346 128.994 86.2476 132.198 88.2946C140.668 93.6346 151.11 103.128 149.79 135.806C152.164 142.926 153.217 156.928 155.427 161.423C159.832 170.175 162.784 175.871 164.075 184.133C164.075 184.133 165.336 196.993 166.997 197.928C175.763 199.915 173.227 200.776 174.517 202.274C175.882 204.039 180.94 203.95 180.94 208.667C182.691 211.011 183.996 213.458 184.975 215.995V45.9603C184.967 36.6546 181.27 27.7316 174.694 21.1473C168.118 14.563 159.2 10.8546 149.894 10.835H116.311C121.711 12.7633 124.766 15.018 126.532 18.6076C130.863 18.9785 136.025 28.6943 127.985 43.0678C131.545 45.4411 128.771 48.9715 126.22 53.0803C125.478 54.4005 124.663 56.7441 122.274 56.581C119.234 63.0038 115.54 69.219 112.766 69.6046C111.921 70.643 111.313 73.402 112.573 74.7073C116.667 76.5318 121.651 79.0535 124.114 81.3823ZM184.975 239.031C182.655 244.863 178.635 249.862 173.437 253.38C168.239 256.899 162.104 258.773 155.827 258.759C151.716 258.761 147.644 257.953 143.845 256.381C140.046 254.809 136.594 252.504 133.687 249.597C130.779 246.691 128.472 243.24 126.898 239.442C125.324 235.644 124.514 231.572 124.514 227.461C124.514 212.702 134.66 200.316 148.44 197.008C144.836 187.96 137.212 173.319 134.942 168.528C132.806 163.752 127.644 133.966 126.532 128.078C126.279 126.787 113.018 135.776 112.989 136.325C112.217 137.067 103.05 161.037 102.665 162.328C102.472 163.144 102.457 166.333 102.457 166.333C102.457 166.333 106.966 166.896 109.562 174.773C112.128 182.635 119.946 211.307 119.946 211.307C119.946 211.307 117.839 213.503 117.75 213.384C127.644 246.492 124.188 260.747 128.623 270.463C134.2 284.139 135.713 282.344 140.49 293.855C143.931 302.236 147.758 335.21 149.034 336.664C154.374 343.443 157.251 348.723 157.251 352.536C157.251 356.392 152.727 367.74 154.374 374.355C155.382 378.257 155.902 386.964 157.711 388.625C157.711 388.625 159.373 391.903 158.557 393.372C158.319 393.861 157.845 394.618 158.067 395.226C161.004 405.609 170.527 423.35 155.115 432.636H155.442C163.707 431.349 171.235 427.137 176.655 420.766C182.076 414.396 185.028 406.29 184.975 397.926V239.031Z" fill="#B52532"/>
<path fill-rule="evenodd" clip-rule="evenodd" d="M145.426 391.163C139.789 386.12 143.557 383.998 143.319 382.011C139.611 366.629 127.388 357.328 133.707 352.255C132.15 347.182 128.976 340.804 129.094 340.819C110.063 329.886 93.8503 312.131 91.1061 309.52C87.7686 305.901 82.0726 302.252 81.0195 299.315C76.436 295.117 54.008 263.3 48.7866 251.581L39.679 250.291C35.5256 233.381 21.701 219.185 21.3598 202.231C21.2411 195.808 24.2671 182.072 25.3945 179.343C26.507 176.554 31.8025 172 31.8025 172V167.461C11.9406 168.025 17.6515 165.993 14.2398 158.265C11.8368 152.925 13.5575 151.738 14.4178 148.03C17.0878 137.098 25.9433 120.217 29.5923 112.548C30.7196 108.677 34.5466 99.3468 34.5466 99.3468C49.3503 69.2055 54.8831 71.4156 72.4606 69.7098L73.321 68.4638C90.943 67.6925 88.0505 66.3723 90.5276 49.403C87.9763 50.5006 87.205 44.0778 87.205 44.0778C85.8106 34.4361 89.875 36.2606 91.8033 36.0678C92.2335 20.1961 93.8503 15.1825 105.302 10.8066H45.9683C41.3511 10.8066 36.7792 11.7165 32.5139 13.4844C28.2486 15.2522 24.3734 17.8432 21.11 21.1094C17.8465 24.3757 15.2587 28.253 13.4945 32.5198C11.7303 36.7866 10.8242 41.3593 10.8281 45.9765V397.927C10.8281 417.344 26.5515 433.082 45.9831 433.082H149.891C137.994 426.644 145.025 414.392 145.426 391.163Z" fill="#253B73"/>
</svg>
