<svg width="1317" height="573" viewBox="0 0 1317 573" fill="none" xmlns="http://www.w3.org/2000/svg">
<path fill-rule="evenodd" clip-rule="evenodd" d="M456.5 0.928007C439.091 1.76901 425.949 4.118 411.5 8.969C397.524 13.661 389.544 17.881 379.391 25.95C365.054 37.343 356.361 50.672 349.624 71.593C342.099 94.961 342.5 83.026 342.5 283.799C342.5 449.155 342.637 464.253 344.242 475.411C346.23 489.229 349.621 501.932 354.222 512.799C363.574 534.887 380.48 551.659 403.408 561.595C417.663 567.773 431.996 570.694 454 571.906C511.669 575.084 546.258 566.021 570.58 541.363C583.725 528.035 591.51 512.303 596.837 488.299L599.5 476.299L599.344 309.299C599.182 134.575 598.679 109.599 594.932 90.183C586.912 48.624 567.364 24.132 531 10.081C511.696 2.62201 486.213 -0.508994 456.5 0.928007ZM906 0.843004C872.665 3.2 845.746 13.07 826.53 29.98C820.246 35.51 811.011 47.96 807.215 56.019C798.392 74.749 795.009 91.602 795.014 116.799C795.019 149.416 798.891 167.022 812.057 194.299C823.639 218.294 854.039 259.764 890.497 301.299C929.603 345.853 945.659 367.673 958.168 393.263C970.138 417.75 973.775 444.954 968.335 469.299C962.523 495.304 942.242 509.02 914.313 505.835C896.197 503.768 884.136 495.912 876.188 481C870.404 470.148 869.796 465.66 869.117 428.799L868.5 395.299L827.25 395.038L786 394.777L785.779 408.038C785.104 448.459 787.143 474.832 792.385 493.456C798.557 515.384 804.792 526.727 817.804 539.702C834.895 556.744 860.624 567.707 890.991 570.886C906.525 572.513 948.014 571.529 958 569.298C988.719 562.433 1011.54 549.971 1026.63 531.826C1038.14 517.981 1046.65 496.238 1050.13 471.799C1052.11 457.818 1051.57 426.427 1049.1 412.452C1041.36 368.712 1013.08 322.385 951.039 251.799C922.278 219.077 905.712 196.642 892.335 172.299C878.102 146.398 874.247 135.432 873.351 118.299C872.581 103.589 874.13 93.207 878.458 84.069C885.973 68.201 898.221 60.232 918.035 58.317C931.675 56.999 946.435 61.888 953.583 70.091C962.631 80.475 964.98 91.391 965.858 127.133L966.5 153.299L1001 153.587C1019.98 153.746 1037.03 153.6 1038.91 153.263L1042.31 152.65L1041.69 127.475C1041 99.633 1039.92 88.716 1036.51 75.299C1027.79 40.9 1011.51 21.355 981.985 9.836C969.044 4.786 956.57 2.174 939 0.834005C924.401 -0.279995 921.878 -0.278996 906 0.843004ZM655.75 7.87901C654.09 8.84601 654 23.208 654 287.24V565.582L656.645 566.246C658.099 566.611 676.549 566.59 697.645 566.2L736 565.49V286.791V8.092L728.349 7.446C715.836 6.388 657.714 6.73501 655.75 7.87901ZM1095.76 7.461C1094.12 7.915 1094.01 22.863 1093.76 285.12C1093.62 437.568 1093.66 563.087 1093.87 564.049C1094.21 565.703 1100.34 565.799 1205.62 565.799H1317V535.299V504.799H1242.61C1175.69 504.799 1168.15 504.64 1167.61 503.217C1166.79 501.086 1166.83 346.924 1167.66 319.549L1168.32 297.799H1231.69C1293.45 297.799 1295.08 297.75 1295.78 295.863C1296.18 294.798 1296.38 279.498 1296.22 261.863L1295.95 229.799H1232.12H1168.3L1167.65 219.143C1166.81 205.318 1166.81 101.412 1167.66 79.056L1168.31 61.813L1235.91 61.556L1303.5 61.299V34.299V7.29901L1200.5 7.14C1143.85 7.053 1096.72 7.197 1095.76 7.461ZM0.667 8.466C0.3 8.832 0 134.374 0 287.447V565.761L2.25 566.312C3.487 566.615 21.15 566.511 41.5 566.081L78.5 565.299L78.225 547.799C78.074 538.174 77.292 503.524 76.487 470.799C75.683 438.074 74.561 391.949 73.994 368.299C71.876 279.929 70.133 217.338 66.405 95.799C65.961 81.318 66.076 74.625 66.756 75.299C67.312 75.849 68.258 78.999 68.859 82.299C69.974 88.423 75.758 116.632 87.417 172.799C91.013 190.124 95.777 213.074 98.003 223.799C100.229 234.524 104.082 252.524 106.565 263.799C109.048 275.074 111.718 287.224 112.499 290.799C113.28 294.374 115.954 306.074 118.442 316.799C120.929 327.524 123.897 340.574 125.037 345.799C126.176 351.024 129.576 365.874 132.591 378.799C139.784 409.638 142.886 422.982 144.561 430.299C159.296 494.656 163.575 513.141 166.392 524.61C168.242 532.139 171.016 544.149 172.557 551.299C174.098 558.449 175.751 564.749 176.23 565.299C177.254 566.475 283.067 566.13 284.252 564.946C284.665 564.533 284.89 439.119 284.752 286.247L284.5 8.299L251.086 8.035L217.672 7.772L218.326 87.535C218.996 169.175 219.917 218.431 222.504 310.799C224.242 372.84 227.712 467.335 228.497 473.975C229.161 479.6 227.504 481.349 226.539 476.04C226.165 473.983 218.885 444.174 210.361 409.799C180.465 289.23 175.008 266.58 165.555 223.799C162.455 209.774 158.845 193.574 157.532 187.799C156.219 182.024 152.177 163.349 148.55 146.299C144.923 129.249 141.293 112.374 140.484 108.799C137.844 97.138 130.993 64.854 125.418 37.799C122.414 23.224 119.711 10.511 119.411 9.549C118.899 7.908 115.192 7.79901 60.099 7.79901C27.778 7.79901 1.033 8.099 0.667 8.466ZM493.125 65.735C506.118 70.173 514.463 79.478 518.742 94.299C520.976 102.035 521.714 163.226 521.524 324.799C521.36 464.855 521.322 467.428 519.316 474.799C516.294 485.908 513.78 490.865 508.329 496.461C498.777 506.268 484.626 510.567 465.5 509.474C450.272 508.604 441.104 505.069 433.331 497.072C427.935 491.519 425.553 487.017 422.697 476.968L420.517 469.299L420.232 289.393C419.979 129.663 420.123 108.467 421.516 100.393C424.958 80.436 433.769 70.268 452.5 64.637C461.391 61.964 483.862 62.571 493.125 65.735Z" fill="black"/>
</svg>
