<svg width="867" height="535" viewBox="0 0 867 535" fill="none" xmlns="http://www.w3.org/2000/svg">
<path fill-rule="evenodd" clip-rule="evenodd" d="M430.975 3.646C419.391 14.112 410.063 41.716 404.055 83.309C402.402 94.754 400.785 104.547 400.461 105.071C400.137 105.595 397.442 107.578 394.471 109.479C391.075 111.651 387.722 114.964 385.44 118.401C382.021 123.549 381.757 124.533 380.896 135.307C380.232 143.611 379.162 149.112 376.993 155.372C371.971 169.865 373.437 177.822 382.612 185.871C392.344 194.409 395.744 202.968 390.782 206.443C386.472 209.462 375.657 207.449 363.201 201.309C349.589 194.599 345.37 189.442 336.462 168.632L332.666 159.764L335.086 157.904C338.86 155.003 340.466 155.594 343.386 160.959C348.517 170.386 353.365 172.06 361.178 167.105C370.427 161.24 373.288 154.347 371.184 143C368.585 128.979 361.835 118.159 352.002 112.25C347.077 109.29 345.864 109 338.43 109C327.011 109 316.379 111.064 294.89 117.452C275.212 123.301 256.153 128.057 234.005 132.644C221.322 135.271 219.023 135.438 196.005 135.403C177.159 135.375 167.236 134.856 153.005 133.156C103.675 127.262 77.3046 120.408 27.9046 100.643C16.0246 95.889 5.1596 92 3.7616 92C-1.3434 92 -1.2634 98.373 4.0696 116.604C9.4866 135.12 15.6006 147.794 21.0496 151.802C32.0806 159.914 64.5756 163.645 128.505 164.141C148.859 164.299 151.554 164.467 143.005 165.045C124.022 166.328 80.2156 166.032 61.5046 164.493C51.6046 163.679 41.1506 163.01 38.2736 163.007C33.4996 163.001 32.9866 163.222 32.4036 165.548C30.7326 172.205 47.1856 202.084 57.1306 210.452C59.2986 212.277 61.3226 213 64.2616 213C68.5126 213 105.204 207.846 117.505 205.521C121.355 204.793 124.646 204.331 124.818 204.495C124.99 204.658 114.865 208.221 102.318 212.412C89.7706 216.603 78.8506 220.446 78.0506 220.951C76.1166 222.174 77.3216 224.37 85.0806 233.768C94.5196 245.201 103.94 251 113.071 251C124.245 251 145.002 242.081 168.892 227.013C176.804 222.023 183.426 218.088 183.608 218.269C184.12 218.782 163.958 234.632 149.005 245.471C141.58 250.853 135.32 255.422 135.094 255.622C133.989 256.606 139.043 260.294 146.363 263.848C156.32 268.681 169.823 273.011 174.807 272.968C180.752 272.917 181.826 271.628 193.521 250.5C205.696 228.505 207.13 226 207.547 226C207.915 226 205.794 230.634 194.729 254C187.775 268.687 187.086 273.534 191.671 275.513C192.68 275.948 199.424 276.512 206.658 276.765C222.641 277.325 221.581 278.304 225.897 259C227.557 251.575 229.382 244.15 229.953 242.5C230.913 239.725 230.946 239.801 230.388 243.5C228.667 254.907 228.067 261.221 228.038 268.227C227.994 278.538 229.158 279.391 243.26 279.391C255.982 279.391 256.434 278.958 257.422 265.814C258.624 249.817 259.773 247.895 260.002 261.5C260.254 276.455 260.684 278.057 265.034 280.248C268.804 282.148 278.814 282.578 285.121 281.112C287.11 280.649 289.429 280.658 290.273 281.13C294.624 283.565 334.853 344.562 336.539 351.281C337.921 356.784 331.054 364.126 315.513 373.765C286.784 391.581 256.928 400.473 234.813 397.8C225.937 396.727 222.531 397.188 221.61 399.586C220.144 403.407 230.693 419.574 238.241 425.073C244.546 429.667 247.667 428.968 269.051 418.168C278.926 413.181 287.005 409.313 287.005 409.571C287.005 411.461 248.8 432 245.283 432C244.751 432 243.49 432.911 242.482 434.025C240.687 436.009 240.731 436.135 244.577 440.078C249.28 444.9 260.987 451 265.538 451C269.543 451 276.36 447.48 290.041 438.346C303.25 429.528 303.51 429.374 302.545 430.935C301.391 432.803 282.821 446.423 275.722 450.608C272.303 452.624 264.142 456.591 257.586 459.423C243.173 465.649 241.635 467.252 243.124 474.5C243.708 477.341 244.012 488.784 243.828 501L243.505 522.5L249.505 522.448C255.559 522.395 294.129 518.492 299.289 517.41C303.275 516.574 304.686 513.593 305.399 504.5C306.883 485.571 314.427 463.116 322.534 453.5L325.063 450.5L323.395 454.5C314.63 475.518 308.877 493.668 308.653 501.014C308.534 504.897 308.991 506.356 311.005 508.516C314.354 512.108 322.014 515.902 327.411 516.642C331.124 517.151 331.968 516.938 332.863 515.266C333.445 514.178 334.391 506.586 334.965 498.394C335.988 483.788 339.075 462.434 341.022 456.5C342.179 452.973 341.835 456.801 339.453 474C338.653 479.775 337.705 491.79 337.347 500.701C336.578 519.836 337.565 524.062 343.797 528.319C351.599 533.649 370.945 536.489 374.594 532.84C376.029 531.404 375.895 530.775 373.092 525.808C363.513 508.835 363.162 477.345 372.176 443.656C374.199 436.097 374.369 435.832 376.89 436.361C382.678 437.574 390.524 439.397 390.829 439.599C391.007 439.717 390.444 441.184 389.579 442.857C387.467 446.94 387.597 450.211 389.989 453.253C392.7 456.699 396.249 457.365 402.351 455.571C413.002 452.439 427.005 440.433 427.005 434.433C427.005 431.259 422.896 426.705 418.068 424.528C413.684 422.551 413.265 421.563 415.537 418.559C416.344 417.491 417.005 414.929 417.005 412.864C417.005 409.438 416.123 408.232 406.876 399.018C401.305 393.466 396.996 388.676 397.3 388.372C398.499 387.173 414.202 396.468 421.413 402.645L429.047 409.185L431.972 402.734C435.676 394.563 442.677 388.082 453.432 382.865C457.791 380.75 461.524 379.186 461.727 379.388C462.528 380.19 459.544 389.828 456.737 395.5C455.105 398.8 451.861 404.2 449.53 407.5C443.374 416.212 441.781 419.702 442.488 422.922C443.524 427.641 448.894 431.582 462.12 437.331C477.344 443.949 478.362 444.557 479.793 447.886C480.411 449.324 481.84 451.625 482.969 453C484.768 455.192 484.879 455.931 483.865 459C483.23 460.925 481.854 464.176 480.808 466.224C479.288 469.201 479.134 470.372 480.041 472.068C481.51 474.812 488.619 477.93 495.18 478.707C501.423 479.447 506.877 483.84 510.55 491.088C513.87 497.641 517.486 500.32 521.895 499.493C530.244 497.926 559.84 484.071 563.496 480.017C565.487 477.809 565.487 477.809 563.346 476.155C562.168 475.245 559.671 473.312 557.797 471.86C555.204 469.853 553.933 467.698 552.487 462.86C551.255 458.741 549.515 455.477 547.545 453.595C545.662 451.796 544.968 450.532 545.722 450.273C546.392 450.043 549.317 448.65 552.222 447.178C559.898 443.287 560.269 441.382 555.688 429.377C552.81 421.833 552.255 419.404 553.162 418.311C553.8 417.542 563.589 410.809 574.914 403.351C600.486 386.51 608.598 380.426 609.92 377.098C610.488 375.669 611.634 371.147 612.467 367.05C613.861 360.192 613.843 359.161 612.243 354.083C609.934 346.755 605.504 342.347 599.55 341.454C597.064 341.082 594.392 341.021 593.612 341.321C592.832 341.62 590.798 344.485 589.09 347.688C586.492 352.563 584.636 354.433 577.699 359.165C559.757 371.402 522.586 393.314 517.68 394.546C514.649 395.306 512.533 392.816 509.934 385.43C506.989 377.061 506.438 362.813 508.35 344.5C510.518 323.737 509.467 317.601 502.945 312.957C500.199 311.002 498.918 310.806 491.43 311.199C486.548 311.456 483.005 311.248 483.005 310.705C483.005 309.682 491.092 302 492.169 302C493.747 302 500.533 291.242 502.803 285.145C504.833 279.689 505.378 275.995 505.847 264.5L506.418 250.5L507.589 264.828C508.246 272.864 509.275 279.67 509.931 280.328C510.6 280.998 515.058 281.645 520.333 281.839C528.313 282.132 529.89 281.913 531.977 280.224L534.39 278.27L532.668 265.998C531.72 259.249 531.108 253.564 531.306 253.365C531.505 253.167 532.926 258.516 534.464 265.252C538.276 281.945 538.319 282.001 547.278 281.994C551.253 281.991 556.193 281.52 558.255 280.947C561.806 279.961 562.005 279.689 562.005 275.823C562.005 273.578 560.848 266.581 559.433 260.275C558.019 253.969 557.078 248.594 557.341 248.331C557.9 247.771 559.829 254.248 563.571 269.25L566.252 280L574.378 279.994C583.134 279.988 589.834 278.61 590.582 276.661C590.838 275.993 590.138 270.127 589.026 263.624C586.174 246.938 586.641 245.32 590.074 260C594.357 278.316 594.173 278 600.577 278C607.949 278 615.424 276.245 618.561 273.777C621.034 271.832 621.155 271.355 620.5 266.117C620.117 263.045 619.181 257.6 618.421 254.016C615.424 239.881 617.157 243.829 624.068 266.885L626.282 274.27L633.442 273.665C637.379 273.332 643.638 272.122 647.349 270.975C656.971 268.003 657.144 267.363 652.919 250.259C647.577 228.633 648.086 227.397 654.603 246.174C659.795 261.135 661.989 265.86 664.047 266.513C668.186 267.827 694.005 257.172 694.005 254.15C694.005 252.761 684.442 238.416 677.239 229C668.128 217.091 667.932 216.624 675.193 224.151C678.722 227.809 684.511 234.547 688.057 239.124C697.453 251.251 699.337 253 703.002 253C708.894 253 728.067 245.491 734.505 240.661C736.487 239.175 736.482 239.137 734.005 236.499C731.02 233.32 713.148 221.181 696.505 211.028C685.382 204.243 678.246 199.153 683.505 201.756C713.959 216.833 743.126 230.341 746.082 230.737C749.135 231.147 751.065 230.594 755.703 227.982C762.669 224.059 771.216 217.553 776.005 212.526L779.505 208.852L777.005 206.777C771.619 202.305 752.8 194.94 722.665 185.51C712.4 182.298 704.188 179.483 704.416 179.256C705.033 178.638 724.963 184.12 747.005 190.971C771.917 198.713 780.444 200.497 785.731 199.074C794.588 196.689 812.843 181.641 822.558 168.717C831.389 156.97 834.188 157.637 758.505 153.469C712.852 150.955 693.08 149.522 699.503 149.193C702.802 149.024 720.873 149.586 739.662 150.443C787.09 152.605 827.018 152.554 833.577 150.324C843.619 146.909 853.384 133.449 862.468 110.5C863.992 106.65 865.728 102.458 866.326 101.185C867.107 99.52 867.108 98.397 866.327 97.185C864.382 94.165 853.603 95.346 824.005 101.819C771.997 113.195 736.845 117.93 682.005 120.95C651.661 122.621 623.155 119.608 582.343 110.415C557.437 104.805 550.334 105.616 535.296 115.787C532.111 117.94 525.992 121.624 521.699 123.973C511.643 129.473 510.555 131.128 511.296 139.791C511.612 143.481 512.625 148.29 513.546 150.477C517.478 159.81 524.482 166.987 529.665 166.996C530.852 166.998 535.748 164.075 540.543 160.5C545.338 156.925 549.599 154 550.011 154C550.423 154 551.32 154.675 552.005 155.5C553.02 156.723 552.641 158.713 549.961 166.25C545.831 177.863 538.042 193.619 534.607 197.308C528.834 203.509 513.204 208.219 498.005 208.336C483.016 208.452 475.344 205.197 471.266 196.991C469.002 192.436 464.005 166.369 464.005 159.116C464.005 155.813 464.903 154.469 471.931 147.26C481.546 137.396 486.129 130.682 501.801 103.5C515.156 80.337 519.185 71.119 519.337 63.378C519.457 57.22 516.237 52.272 509.811 48.741C503.232 45.125 502.129 44.422 499.969 42.467C498.205 40.871 498.009 40.846 498.561 42.286C498.914 43.206 500.749 44.915 502.639 46.083C505.049 47.572 505.91 48.723 505.525 49.936C505.223 50.888 505.655 53.589 506.484 55.94C508.249 60.943 507.919 61.897 504.641 61.271C503.314 61.017 501.236 61.341 500.022 61.991C498.201 62.965 497.922 63.743 498.426 66.431C498.884 68.871 498.513 70.356 496.948 72.345C495.117 74.673 494.375 74.923 490.932 74.372C487.193 73.774 485.54 74.976 488.005 76.5C489.566 77.465 489.179 85.307 487.448 87.777C486.26 89.474 484.899 90 481.698 89.999L477.505 89.997L477.834 95.263C478.219 101.426 476.237 104.713 470.495 107.438C467.003 109.095 466.892 109.082 465.054 106.815C462.627 103.822 461.229 105.166 463.37 108.434C466.068 112.553 465.46 116.745 461.605 120.6C457.981 124.224 453.391 125.168 452.367 122.5C452.05 121.675 451.002 121 450.037 121C448.481 121 448.403 121.449 449.345 124.978C450.774 130.333 449.376 134.108 445.297 135.908C443.075 136.89 442.016 138.103 441.806 139.908C441.55 142.115 440.949 142.546 437.757 142.81C434.384 143.089 433.798 142.764 431.908 139.56C430.753 137.602 429.41 136 428.925 136C425.211 136 428.609 123.009 434.603 114.298C438.089 109.232 438.354 107 435.472 107C434.693 107 433.32 105.577 432.421 103.838C429.992 99.14 431.843 93.854 437.304 89.898C442.387 86.216 442.722 84.405 438.255 84.754C435.027 85.006 435.005 84.977 435.005 80.454C435.005 73.089 439.043 67.535 444.417 67.509C447.355 67.495 447.473 65.156 444.573 64.428C441.466 63.648 437.005 58.606 437.005 55.874C437.005 53.426 439.714 48.044 441.031 47.875C441.567 47.806 442.522 47.694 443.154 47.625C445.828 47.334 447.114 38 444.48 38C443.642 38 442.517 36.846 441.98 35.435C440.209 30.776 440.849 27.248 444.146 23.492C446.918 20.335 447.153 19.62 446.146 17.41C443.485 11.571 446.238 7.051 453.095 6.003C456.492 5.483 457.045 5.164 455.505 4.615C454.405 4.222 451.841 3.023 449.807 1.95C447.427 0.695 444.131 0 440.56 0C435.58 0 434.597 0.374 430.975 3.646ZM460.432 6.521C462.487 8.076 463.635 7.829 462.546 6.067C462.184 5.48 461.126 5.014 460.196 5.032C458.711 5.06 458.74 5.241 460.432 6.521ZM461.005 12.5C461.005 13.325 461.68 14 462.505 14C463.33 14 464.005 13.325 464.005 12.5C464.005 11.675 463.33 11 462.505 11C461.68 11 461.005 11.675 461.005 12.5ZM474.005 12.393C474.005 12.609 474.68 13.045 475.505 13.362C476.33 13.678 477.005 13.501 477.005 12.969C477.005 12.436 476.33 12 475.505 12C474.68 12 474.005 12.177 474.005 12.393ZM457.515 16.016C457.861 16.575 458.562 16.774 459.074 16.457C460.461 15.6 460.203 15 458.446 15C457.589 15 457.17 15.457 457.515 16.016ZM485.005 21.847C485.005 22.605 488.019 25.53 492.922 29.529L495.338 31.5L493.43 28.206C491.65 25.134 485.005 20.118 485.005 21.847ZM464.505 27C464.845 27.55 465.573 28 466.123 28C466.673 28 466.845 27.55 466.505 27C466.165 26.45 465.437 26 464.887 26C464.337 26 464.165 26.45 464.505 27ZM455.005 27.941C455.005 29.807 457.231 30.203 458.815 28.618C460.306 27.127 460.22 27 457.719 27C456.226 27 455.005 27.423 455.005 27.941ZM454.52 33.067C454.89 34.754 455.823 37.342 456.593 38.817C457.363 40.293 457.995 42.089 457.999 42.809C458.002 43.529 458.408 43.869 458.9 43.565C459.393 43.26 460.053 43.684 460.369 44.506C461.064 46.318 462.668 46.487 462.681 44.75C462.686 44.063 463.003 42.53 463.385 41.345C463.925 39.669 463.426 38.724 461.138 37.095C459.52 35.943 457.703 35 457.101 35C456.498 35 456.005 33.875 456.005 32.5C456.005 31.125 455.519 30 454.926 30C454.241 30 454.093 31.123 454.52 33.067ZM481.255 33.25C481.484 33.938 482.272 34.5 483.005 34.5C483.738 34.5 484.526 33.938 484.755 33.25C485.003 32.506 484.294 32 483.005 32C481.716 32 481.007 32.506 481.255 33.25ZM429.505 44.5C429.505 47.478 425.601 47.181 425.175 44.17C424.9 42.231 425.236 41.895 427.175 42.17C428.728 42.39 429.505 43.167 429.505 44.5ZM484.451 45.087C483.421 46.755 485.738 48.667 487.118 47.287C488.272 46.133 487.55 44 486.005 44C485.52 44 484.821 44.489 484.451 45.087ZM464.182 46.553C464.634 48.725 466.409 48.858 466.815 46.75C467.025 45.655 466.535 45 465.505 45C464.544 45 463.993 45.647 464.182 46.553ZM444.656 52.468C444.346 53.275 444.609 54.255 445.24 54.645C445.871 55.035 446.548 54.872 446.744 54.283C446.94 53.694 447.979 53.442 449.053 53.723C451.377 54.331 451.701 52.481 449.423 51.607C446.847 50.618 445.255 50.906 444.656 52.468ZM451.699 63.639C450.9 64.438 451.803 66 453.064 66C453.582 66 454.005 65.325 454.005 64.5C454.005 62.954 452.825 62.513 451.699 63.639ZM470.005 68C467.47 70.535 467.315 72.934 469.834 70.655C470.84 69.745 472.19 69 472.834 69C473.478 69 474.005 68.325 474.005 67.5C474.005 65.422 472.379 65.626 470.005 68ZM480.005 71C480.005 71.55 480.68 72 481.505 72C482.33 72 483.005 71.55 483.005 71C483.005 70.45 482.33 70 481.505 70C480.68 70 480.005 70.45 480.005 71ZM444.234 77.188C444.852 79.042 447.005 79.349 447.005 77.583C447.005 76.713 446.293 76 445.422 76C444.551 76 444.016 76.534 444.234 77.188ZM464.699 79.639C464.347 79.991 464.287 80.647 464.564 81.096C465.188 82.105 468.005 81.12 468.005 79.893C468.005 78.867 465.652 78.686 464.699 79.639ZM470.005 95C470.005 97.228 471.965 97.64 473.805 95.8C475.669 93.936 475.235 93 472.505 93C470.672 93 470.005 93.533 470.005 95ZM444.515 98.016C444.861 98.575 445.562 98.774 446.074 98.457C447.461 97.6 447.203 97 445.446 97C444.589 97 444.17 97.457 444.515 98.016ZM413.334 139.364C417.545 141.123 421.63 146.017 423.165 151.14C424.093 154.237 424.113 156.742 423.249 161.783C421.834 170.043 418.129 175.547 411.468 179.283C407.253 181.647 405.581 182.018 400.375 181.743C389.516 181.171 384.35 174.828 385.272 163.198L385.645 158.5L385.825 163.79C386.063 170.784 388.82 175.966 393.788 178.758C401.411 183.042 408.992 181.23 415.799 173.497C420.772 167.847 422.418 162.617 421.708 154.713C421.135 148.332 420.336 146.997 414.605 142.833C410.256 139.674 405.838 139.202 400.723 141.352C396.886 142.965 389.42 150.826 387.473 155.305C386.708 157.062 386.066 157.923 386.044 157.218C385.926 153.337 390.218 147.146 396.005 142.852C402.34 138.151 407.801 137.052 413.334 139.364ZM415.242 147.128C421.008 153.97 418.967 165.903 410.666 173.875C407.292 177.115 406.9 177.233 400.923 176.8C395.51 176.409 394.39 175.968 392.355 173.425C391.067 171.816 389.739 169.05 389.403 167.277C387.95 159.602 393.547 148.477 400.427 145.367C404.704 143.434 412.955 144.415 415.242 147.128ZM444.051 155.639C445.746 160.73 446.123 163.587 445.67 167.889C445.133 172.986 440.833 192.819 437.85 203.96L436.655 208.42L435.58 204.034C434.989 201.622 433.949 199.467 433.269 199.246C432.137 198.877 431.599 199.806 428.854 206.879C427.306 210.866 426.806 208.526 427.919 202.505C428.498 199.375 430.779 192.693 432.988 187.655C435.197 182.618 437.005 177.555 437.005 176.405C437.005 175.254 436.124 171.754 435.048 168.626C433.972 165.498 433.345 162.277 433.655 161.469C434.007 160.553 433.615 160 432.612 160C431.375 160 431.005 158.968 431.005 155.519C431.005 151.444 431.254 150.983 433.755 150.432C435.267 150.098 436.955 149.675 437.505 149.491C440.982 148.331 441.909 149.202 444.051 155.639ZM266.983 157.646C274.688 159.187 283.005 172.385 306.402 220.204C315.362 238.517 325.3 259.125 328.487 266C331.673 272.875 340.688 291.775 348.52 308C356.352 324.225 366.261 344.925 370.542 354C379.477 372.945 380.399 374.597 383.935 378C385.364 379.375 386.099 380.163 385.569 379.75C382.71 377.526 371.602 379.785 367.205 383.485L364.343 385.893L359.322 378.197C356.561 373.964 349.433 362.4 343.482 352.5C329.411 329.09 310.896 300.457 300.48 286C295.924 279.675 287.606 267.075 281.996 258C276.387 248.925 267.75 235.425 262.802 228C252.665 212.787 241.703 191.478 239.924 183.529C237.887 174.426 240.594 167.286 247.919 162.438C255.04 157.726 260.509 156.351 266.983 157.646ZM398.377 159.655C397.118 164.669 401.425 167.739 405.079 164.433C408.693 161.163 406.87 157 401.824 157C399.648 157 398.898 157.578 398.377 159.655ZM252.142 162.796C247.808 165.707 244.383 169.711 245.377 170.705C245.693 171.021 247.681 169.755 249.794 167.89C251.906 166.026 254.956 163.513 256.57 162.306C261 158.994 257.173 159.418 252.142 162.796ZM462.966 228.016C465.42 229.382 468.445 232.01 469.688 233.855C471.722 236.876 471.81 237.474 470.571 239.855C469.814 241.31 468.058 243.562 466.668 244.86L464.141 247.221L458.767 242.86C455.811 240.462 449.504 235.8 444.75 232.5C439.997 229.2 436.085 226.114 436.057 225.642C436.028 225.17 441.068 224.952 447.255 225.158C456.956 225.48 459.119 225.873 462.966 228.016ZM427.013 232.25C433.213 236.472 433.188 236.58 422.912 250.067C417.738 256.858 413.055 262.36 412.505 262.295C410.997 262.115 409.838 254.24 410.359 247.714C410.844 241.645 413.462 236.898 418.884 232.255C422.151 229.457 422.911 229.457 427.013 232.25ZM280.005 243.48C280.005 243.745 283.188 247.452 287.078 251.72C295.644 261.117 300.117 268.288 303.004 277.25C305.301 284.38 306.572 285.575 307.581 281.553C309.353 274.492 297.442 254.162 287.075 246.551C282.71 243.347 280.005 242.172 280.005 243.48ZM452.255 250.808C455.418 253.276 458.005 255.478 458.005 255.701C458.005 256.378 446.958 270 446.409 270C445.04 270 431.007 258.823 431.02 257.743C431.028 257.059 433.302 253.427 436.074 249.67L441.112 242.84L443.809 244.58C445.292 245.537 449.092 248.34 452.255 250.808ZM478.785 260.423C478.245 270.74 476.732 274.797 471.025 281.228L467.272 285.457L463.224 282.652C460.998 281.109 458.392 278.98 457.433 277.92C455.503 275.787 454.286 277.713 471.424 255.778C478.689 246.48 479.488 246.984 478.785 260.423ZM346.506 279.795C347.35 282.118 353.794 284 360.901 284C370.475 284 371.035 283.361 375.54 267.31C377.757 259.411 379.912 254.242 379.975 256.673C379.991 257.319 378.622 263.534 376.931 270.486C374.034 282.394 373.951 283.268 375.486 285.612C376.515 287.181 377.742 287.913 378.811 287.595C384.267 285.97 390.155 284.817 390.62 285.281C390.916 285.577 387.496 287.724 383.022 290.052C374.943 294.255 367.609 300.497 360.96 308.829L357.505 313.157L350.636 299.535C342.781 283.955 342.176 280.768 343.579 262.368L344.408 251.5L345.222 265C345.669 272.425 346.247 279.083 346.506 279.795ZM289.005 262.488C289.005 264.219 299.413 281.264 301.556 283.042C304.748 285.692 302.844 280.849 296.844 271.055C290.92 261.388 289.005 259.295 289.005 262.488ZM442.255 279.831C449.267 285.039 455.005 289.683 455.005 290.15C455.005 291.582 439.683 291.093 434.284 289.49C431.032 288.524 427.352 286.319 424.074 283.372C416.621 276.671 416.393 275.927 420.154 270.591L423.325 266.092L426.415 268.227C428.115 269.401 435.243 274.623 442.255 279.831ZM407.418 286.967C411.276 288.434 416.231 293.289 418.125 297.459C420.624 302.96 420.548 314.142 417.908 329.389C414.821 347.218 415.546 360.891 420.327 375C424.855 388.362 426.809 393 427.908 393C428.39 393 429.997 387.938 431.479 381.75C434.892 367.504 439.844 357.145 449.288 344.499C462.504 326.802 477.435 311 480.939 311C481.288 311 478.381 314.262 474.481 318.25C460.916 332.116 443.104 356.005 438.402 366.637C437.082 369.621 434.618 377.592 432.926 384.349C429.839 396.673 428.62 399.948 427.526 398.854C426.288 397.617 416.03 368.404 414.554 361.916C412.466 352.736 412.585 348.909 415.501 331.448C420.932 298.925 418.088 291.546 398.557 287.477C396.257 286.997 395.927 286.653 397.057 285.91C398.525 284.944 403.408 285.442 407.418 286.967ZM597.005 346C597.005 346.55 596.078 347 594.946 347C593.814 347 593.165 346.55 593.505 346C593.845 345.45 594.771 345 595.564 345C596.357 345 597.005 345.45 597.005 346ZM608.005 356.265V359.499L604.121 355.25C600.42 351.201 598.005 349.895 598.005 351.943C598.005 353.667 602.256 360.471 604.603 362.502L606.915 364.504L598.21 369.921C593.422 372.901 584.555 378.34 578.505 382.008C572.455 385.676 561.283 392.8 553.679 397.839C546.075 402.877 539.36 407 538.758 407C538.155 407 536.812 407.77 535.773 408.71C534.141 410.187 533.753 410.221 532.935 408.96C532.414 408.157 531.738 406.375 531.433 405C531.128 403.625 530.303 400.901 529.599 398.947L528.32 395.393L533.413 392.022C536.213 390.168 549.98 381.459 564.005 372.67C578.03 363.881 592.43 354.491 596.005 351.804L602.505 346.919L605.255 349.975C607.058 351.979 608.005 354.145 608.005 356.265ZM329.076 376.147C326.236 381.782 322.358 388.553 320.46 391.196L317.008 396H320.328C322.153 396 328.565 394.121 334.576 391.824C340.587 389.526 347.08 387.647 349.005 387.647C352.649 387.646 360.73 390.609 359.751 391.587C359.443 391.895 357.821 391.439 356.148 390.574C352.075 388.468 346.735 388.588 342.215 390.888C336.186 393.956 321.08 399 317.922 399C315.084 399 315.035 398.918 316.252 396.159C318.77 390.45 333.292 364.954 333.76 365.421C334.025 365.686 331.917 370.513 329.076 376.147ZM607.005 373.372C607.005 374.612 605.768 376.786 604.255 378.204C601.133 381.13 554.503 411.685 548.432 414.782C544.083 417.001 535.013 418.743 534.991 417.364C534.984 416.889 534.698 415.375 534.355 414C533.843 411.944 533.97 411.722 535.069 412.75C536.867 414.432 538.005 414.325 538.005 412.475C538.005 411.637 539.198 410.497 540.655 409.943C544.039 408.656 556.766 400.805 579.505 385.975C605.31 369.145 607.005 368.368 607.005 373.372ZM481.005 374C482.385 375.38 483.005 377.333 483.005 380.3C483.005 384.946 481.692 387 478.722 387C477.65 387 477.026 387.539 477.273 388.25C477.512 388.938 478.638 389.468 479.776 389.429C481.686 389.364 481.515 390.018 477.551 397.929C472.355 408.299 471.553 411.609 472.966 416.856C474.01 420.734 476.745 422.897 478.911 421.558C479.419 421.244 480.036 421.553 480.283 422.244C480.529 422.935 481.124 423.132 481.603 422.682C482.085 422.229 481.528 421.111 480.357 420.182C478.356 418.593 476.005 414.953 476.005 413.443C476.005 413.065 476.617 413.263 477.366 413.884C478.488 414.816 478.707 414.006 478.616 409.257C478.517 404.102 478.926 402.873 482.535 397.5C487.293 390.416 487.434 390.401 499.521 395.65L507.941 399.307L498.723 406.236C493.653 410.047 487.563 414.313 485.189 415.716C482.281 417.435 481.202 418.597 481.883 419.278C483.284 420.679 487.962 418.605 494.88 413.515C499.751 409.932 508.128 404.379 513.005 401.501C517.809 398.666 510.552 404.703 499.153 413.023C486.352 422.367 483.005 425.852 483.005 429.837C483.005 432.052 479.943 433.538 476.251 433.114C474.94 432.964 473.745 433.513 473.394 434.428C472.497 436.766 471.267 436.461 459.628 431.012C444.32 423.845 444.101 422.957 454.173 408.918C457.164 404.749 461.162 398.339 463.058 394.672L466.505 388.005L471.255 388.632C474.082 389.004 476.005 388.866 476.005 388.289C476.005 386.972 471.47 385 468.439 385C466.249 385 466.042 384.686 466.626 382.25C466.989 380.738 467.921 378.239 468.698 376.698C471.081 371.97 477.555 370.55 481.005 374ZM363.788 390.25C363.862 392.955 363.705 393.196 362.857 391.689C362.296 390.693 362.086 389.231 362.39 388.439C363.26 386.173 363.693 386.734 363.788 390.25ZM394.819 392.363L398.022 394.726L391.517 398.531C385.235 402.205 381.234 405.562 382.103 406.432C382.334 406.662 385.207 405.534 388.488 403.925C395.747 400.366 401.557 400.013 402.528 403.072C403.334 405.613 401.808 407.4 393.931 413.136C387.878 417.544 386.795 419 389.571 419C391.796 419 394.607 417.354 401.815 411.833C405.285 409.175 408.496 407 408.95 407C410.547 407 413.109 412.096 412.492 414.042C411.823 416.15 402.017 423.491 395.458 426.795C390.244 429.421 384.926 430.395 380.417 429.549C376.074 428.735 368.358 421.442 367.468 417.311C367.135 415.765 366.516 413.609 366.092 412.521C365.341 410.593 365.29 410.599 364.14 412.748C362.458 415.89 364.915 421.278 370.801 427.36C375.157 431.861 375.272 432.103 372.345 430.631C365.328 427.102 360.442 417.726 362.857 412.425C366.13 405.243 384.483 390.428 390.561 390.063C391.141 390.029 393.058 391.063 394.819 392.363ZM525.005 402C525.005 402.55 525.85 403.845 526.883 404.878C529.116 407.111 533.694 420.257 532.403 420.73C531.909 420.911 528.355 423.007 524.505 425.389C520.127 428.097 517.557 430.334 517.644 431.36C517.941 434.875 516.364 432.638 513.149 424.987C508.373 413.622 506.422 414.404 510.12 426.201C511.707 431.261 513.005 435.524 513.005 435.675C513.005 436.157 495.622 447.641 492.305 449.351C488.867 451.122 485.342 451.706 487.913 450.078C489.115 449.317 489.078 448.322 487.663 443.278C486.751 440.028 486.061 435.823 486.13 433.934C486.232 431.107 486.386 431.383 487 435.5C487.888 441.451 490.483 448 491.954 448C493.45 448 493.269 446.208 491.089 439.444C490.035 436.175 488.897 432.244 488.56 430.709C488.222 429.174 487.51 428.188 486.976 428.518C485.34 429.529 485.9 427.333 487.65 425.872C490.68 423.344 523.495 401.084 524.255 401.042C524.668 401.019 525.005 401.45 525.005 402ZM512.699 416.639C511.9 417.438 512.803 419 514.064 419C514.582 419 515.005 418.325 515.005 417.5C515.005 415.954 513.825 415.513 512.699 416.639ZM548.158 422.75C549.988 425.926 554.005 437.352 554.005 439.382C554.005 440.137 553.296 441.344 552.429 442.063C550.396 443.75 549.042 441.874 549.02 437.339C549.012 435.601 548.111 431.326 547.018 427.839C545.925 424.353 545.025 421.163 545.018 420.75C544.989 419.091 546.665 420.159 548.158 422.75ZM499.461 424.622C500.644 430.942 503.412 438.338 504.755 438.767C506.499 439.325 506.308 437.606 503.676 429.063C501.166 420.921 498.178 417.771 499.461 424.622ZM495.597 426.54C496.462 433.568 497.736 438.25 499.403 440.529C502.027 444.118 502.019 441.455 499.379 432.425C496.309 421.926 494.725 419.461 495.597 426.54ZM505.005 424.651C505.005 430.034 508.809 438.529 510.474 436.864C511.089 436.25 507.126 423.919 505.874 422.55C505.364 421.993 505.005 422.862 505.005 424.651ZM491.005 427.818C491.005 432.337 493.348 440.72 495.393 443.516C497.838 446.859 498.112 444.624 496.008 438.508C494.906 435.306 494.005 431.444 494.005 429.925C494.005 428.406 493.732 426.452 493.398 425.582C492.3 422.72 491.005 423.93 491.005 427.818ZM419.782 430.557C423.392 433.085 422.6 436.5 417.136 441.965C409.212 449.888 397.843 454.695 394.629 451.481C392.74 449.593 392.67 448.747 394.001 443.956C395.203 439.629 399.84 435.066 406.505 431.653C412.273 428.7 416.619 428.341 419.782 430.557ZM392.255 433.662C391.568 433.94 390.443 433.94 389.755 433.662C389.068 433.385 389.63 433.158 391.005 433.158C392.38 433.158 392.943 433.385 392.255 433.662ZM544.005 439.613C544.005 443.732 538.344 448.827 530.384 451.874C522.788 454.78 520.388 454.663 519.555 451.345C518.866 448.598 520.087 447.06 523.005 447C524.338 446.973 524.338 446.862 523.005 446C520.864 444.617 516.263 444.773 515.667 446.25C515.279 447.212 515.145 447.218 515.084 446.273C514.969 444.48 518.729 442.315 526.623 439.63C530.456 438.326 535.373 436.33 537.549 435.194C541.173 433.301 541.61 433.264 542.755 434.755C543.443 435.65 544.005 437.836 544.005 439.613ZM440.505 437C440.845 437.55 441.546 438 442.064 438C442.582 438 443.005 437.55 443.005 437C443.005 436.45 442.303 436 441.446 436C440.589 436 440.165 436.45 440.505 437ZM541.423 452.607C542.293 452.941 543.005 453.793 543.005 454.5C543.005 455.207 543.656 456.036 544.453 456.342C545.249 456.647 546.386 458.701 546.98 460.906C547.574 463.111 548.497 465.186 549.032 465.517C550.421 466.375 550.235 470.57 548.755 471.762C548.068 472.316 546.043 473.082 544.255 473.464C542.154 473.913 541.005 474.753 541.005 475.839C541.005 476.763 540.057 478.111 538.898 478.835C535.224 481.129 513.719 488.151 513.099 487.259C512.773 486.789 511.104 484.401 509.392 481.952C507.68 479.503 505.966 476.5 505.583 475.277C504.778 472.706 507.722 465.304 510.466 463C511.449 462.175 518.384 459.398 525.879 456.829C533.373 454.26 539.581 452.122 539.673 452.079C539.766 452.035 540.553 452.273 541.423 452.607ZM499.155 458.485C504.534 459.322 505.243 460.752 502.889 466.011C499.172 474.313 495.819 475.786 488.539 472.315C482.571 469.469 484.369 464.597 490.832 466.099C495.8 467.253 501.005 467.217 501.005 466.028C501.005 465.493 498.538 464.339 495.523 463.462C489.709 461.772 488.491 460.782 489.378 458.47C489.738 457.533 490.898 457.188 492.717 457.476C494.25 457.718 497.147 458.172 499.155 458.485ZM539.451 461.087C538.304 462.943 540.703 464.495 542.463 463.035C543.311 462.331 544.005 461.36 544.005 460.878C544.005 459.619 540.252 459.792 539.451 461.087ZM544.005 463C544.005 463.55 544.455 464 545.005 464C545.555 464 546.005 463.55 546.005 463C546.005 462.45 545.555 462 545.005 462C544.455 462 544.005 462.45 544.005 463ZM524.505 465.916C520.851 466.829 515.359 469.619 514.509 470.993C513.375 472.828 516.998 472.038 522.288 469.297C528.353 466.155 528.33 466.157 533.299 468.372C536.911 469.982 539.005 469.865 539.005 468.052C539.005 467.319 537.417 466.894 529.505 465.515C528.405 465.323 526.155 465.503 524.505 465.916ZM541.005 472C541.005 472.55 541.68 473 542.505 473C543.33 473 544.005 472.55 544.005 472C544.005 471.45 543.33 471 542.505 471C541.68 471 541.005 471.45 541.005 472Z" fill="black"/>
</svg>
