<svg width="867" height="535" viewBox="0 0 867 535" fill="none" xmlns="http://www.w3.org/2000/svg">
<path fill-rule="evenodd" clip-rule="evenodd" d="M432.946 1.865C426.373 6.197 418.911 20.385 413.065 39.668C409.263 52.207 406.668 65.772 403.753 88.344C402.687 96.594 401.525 104.075 401.169 104.969C400.814 105.862 398.794 107.373 396.68 108.327C391.983 110.444 386.525 115.957 383.717 121.419C382.107 124.55 381.508 127.986 381.134 136.247C380.728 145.18 380.13 148.286 377.599 154.609C373.567 164.676 373.099 169.059 375.333 175.807C376.841 180.363 378.137 182.065 383.141 186.061C395.278 195.751 397.324 207.071 387.139 208.18C375.473 209.45 351.684 197.852 344.988 187.63C343.804 185.823 340.467 178.778 337.571 171.974L332.306 159.605L334.724 157.778C339.421 154.228 340.394 154.588 343.886 161.168C347.743 168.437 350.682 170.434 356.039 169.429C360.187 168.651 367.818 162.335 370.218 157.696C373.135 152.054 371.025 137.339 365.863 127.318C362.817 121.405 357.068 115.178 351.808 112.096C347.423 109.526 346.454 109.368 335.642 109.456C323.467 109.555 316.754 110.998 290.141 119.238C272.701 124.637 238.436 132.557 222.843 134.793C204.97 137.357 193.814 137.36 166.697 134.811C108.455 129.337 78.7467 121.99 25.1407 99.807C17.4407 96.621 9.17366 93.438 6.76966 92.734C2.76566 91.562 2.27766 91.618 0.966661 93.399C-1.05534 96.146 -0.0233393 102.497 5.18466 119.359C10.7307 137.317 14.4547 145.427 19.2757 150.051C23.9887 154.572 28.3177 156.166 42.8867 158.744C63.5947 162.41 79.4287 163.344 120.832 163.344C142.662 163.344 159.559 163.701 158.38 164.137C154.819 165.453 106.283 167.101 88.5937 166.506C79.4937 166.2 63.5667 165.176 53.2027 164.23C35.0117 162.57 34.3117 162.574 33.0207 164.339C31.2047 166.823 31.9497 169.455 38.1167 182.344C43.5847 193.773 51.7417 205.592 57.4527 210.361C60.6087 212.996 61.1147 213.097 68.1427 212.503C75.0597 211.919 118.991 205.302 121.838 204.417C125.853 203.167 129.053 202.787 128.141 203.668C127.591 204.199 118.591 207.426 108.141 210.839C83.5497 218.871 77.6857 220.963 77.0997 221.911C76.8357 222.337 79.8867 226.85 83.8807 231.939C91.7557 241.977 99.0037 247.724 106.22 249.654C112.501 251.334 114.911 251.168 125.508 248.329C138.524 244.842 150.386 238.688 176.01 222.127C181.438 218.619 186.045 215.915 186.248 216.117C186.954 216.823 164.991 234.423 149.824 245.304L134.547 256.265L136.844 258.092C143.829 263.649 163.477 271.544 172.725 272.511C178.163 273.079 178.701 272.938 181.399 270.23C182.982 268.643 187.338 261.494 191.08 254.344C194.822 247.194 199.404 238.988 201.263 236.109C203.121 233.23 204.641 230.619 204.641 230.306C204.641 229.994 205.766 228.082 207.141 226.059C208.516 224.035 209.641 222.684 209.641 223.055C209.641 223.427 205.102 232.954 199.554 244.228C194.006 255.501 189.228 266.506 188.936 268.684C188.115 274.805 191.068 276.248 205.348 276.701C211.561 276.899 217.753 276.782 219.107 276.442C221.864 275.75 222.287 274.561 225.579 258.246C227.805 247.214 230.57 237.844 231.599 237.844C231.958 237.844 231.417 241.782 230.396 246.594C228.286 256.541 227.559 275.148 229.215 276.812C232.134 279.747 251.52 280.238 255.028 277.467C256.006 276.694 256.628 273.227 257.026 266.344C257.62 256.048 258.957 248.71 260.746 245.931C261.552 244.678 261.662 244.87 261.265 246.844C258.925 258.5 259.563 275.291 262.483 278.897C264.68 281.61 276.936 282.692 284.611 280.851C289.825 279.6 289.882 279.612 292.26 282.467C299.116 290.701 324.817 329.007 332.565 342.542C337.468 351.109 337.754 351.97 336.729 355.076C335.07 360.105 330.947 364.016 318.994 371.903C288.482 392.035 254.444 402.169 231.775 397.87C225.754 396.728 221.641 397.86 221.641 400.66C221.641 404.364 227.707 414.474 233.586 420.569C239.934 427.15 242.638 428.449 247.898 427.446C251.42 426.774 268.229 418.724 281.391 411.407C290.243 406.485 292.259 406.453 285.377 411.344C275.277 418.522 262.632 425.352 250.141 430.377C239.685 434.583 239.564 434.819 245.051 440.307C250.314 445.569 260.512 450.842 265.431 450.843C269.497 450.844 274.534 448.319 286.141 440.46C300.585 430.68 303.641 428.829 303.641 429.859C303.641 431.54 286.565 444.495 276.141 450.722C270.641 454.008 261.273 458.575 255.324 460.87C242.452 465.837 241.65 466.845 243.613 475.592C245.159 482.484 245.159 495.632 243.611 508.592C242.109 521.175 242.567 522.844 247.524 522.844C249.638 522.844 253.701 522.401 256.553 521.861C259.405 521.32 269.929 520.182 279.94 519.331C289.95 518.481 299.384 517.292 300.904 516.688C304.032 515.446 304.282 514.624 305.122 502.854C305.783 493.585 309.284 478.467 312.77 469.828C315.097 464.06 322.57 451.978 325.118 449.863C325.941 449.18 324.873 452.392 322.743 457.001C317.002 469.427 309.472 492.479 308.901 499.375C308.453 504.796 308.665 505.719 310.999 508.492C313.849 511.879 321.142 515.421 327.293 516.404C333.139 517.339 333.944 515.799 334.28 503.026C334.66 488.564 337.361 468.774 340.753 455.594C342.701 448.024 343.176 452.137 341.503 462.094C339.094 476.435 337.359 495.384 337.268 508.344C337.181 520.714 338.255 523.935 343.89 528.203C349.81 532.688 365.127 535.606 372.391 533.633C376.314 532.567 376.42 531.455 373.069 526.523C365.282 515.064 362.91 489.963 367.241 464.844C369.559 451.398 372.672 438.497 374.048 436.628C375.238 435.012 375.617 435.027 380.487 436.878C383.334 437.959 387.023 438.844 388.687 438.844C391.467 438.844 391.619 439.017 390.566 440.983C385.194 451.022 390.418 458.247 401.288 455.811C406.617 454.617 417.078 448.209 421.335 443.53C427.195 437.091 427.951 433.778 424.546 429.451C422.272 426.559 415.273 422.545 414.265 423.554C413.922 423.897 413.641 423.257 413.641 422.133C413.641 421.009 414.266 419.57 415.03 418.936C418.761 415.84 417.001 407.37 411.975 404.229C407.726 401.575 396.641 389.441 396.641 387.445C396.641 386.596 411.801 394.444 415.498 397.207C417.344 398.586 421.038 401.782 423.706 404.308L428.557 408.901L430.085 406.57C430.925 405.288 431.882 402.888 432.212 401.237C433.427 395.165 445.193 385.357 456.705 380.819C459.563 379.692 462.034 378.903 462.196 379.066C462.358 379.228 461.915 381.832 461.212 384.852C459.602 391.769 455.723 399.505 449.681 407.853C443.536 416.342 442.641 418.108 442.641 421.743C442.641 425.877 447.281 430.878 453.305 433.239C459.251 435.568 467.433 439.202 474.391 442.603C477.903 444.319 479.641 445.78 479.641 447.015C479.641 448.031 480.991 450.275 482.641 452.001C485.876 455.386 486.228 456.363 484.582 457.38C483.999 457.74 483.653 459.027 483.812 460.24C483.971 461.452 483.097 463.72 481.871 465.279C477.192 471.227 479.829 474.781 491.141 477.774C493.341 478.357 496.502 478.835 498.166 478.838C501.894 478.845 508.844 485.787 511.79 492.448C514.239 497.985 517.48 500.258 521.624 499.348C531.425 497.195 560.44 483.686 563.359 479.917C565.208 477.529 564.978 477.082 560.413 474.2C554.757 470.63 554.295 470.065 552.745 464.844C550.316 456.66 549.463 454.957 546.978 453.329C543.684 451.171 544.34 449.908 549.679 448.131C555.357 446.241 558.641 443.215 558.641 439.873C558.641 438.431 557.074 433.447 555.159 428.797C553.244 424.148 551.694 419.894 551.714 419.344C551.755 418.212 555.185 415.797 575.449 402.637C596.662 388.86 606.739 381.657 608.903 378.725C609.966 377.285 610.979 374.36 611.154 372.225C611.329 370.09 612.009 366.454 612.665 364.144C613.667 360.62 613.582 359.064 612.137 354.472C609.526 346.169 606.218 342.795 599.679 341.761C593.427 340.773 592.63 341.205 589.684 347.175C588.552 349.468 586.842 352.309 585.884 353.488C584.331 355.398 563.927 368.93 556.141 373.213C554.491 374.121 548.866 377.57 543.641 380.878C538.416 384.186 532.116 387.921 529.641 389.179C527.166 390.437 524.128 392.001 522.891 392.655C517.409 395.552 516.913 395.664 514.632 394.51C511.308 392.828 507.717 382.379 506.709 371.456C506.061 364.43 506.313 358.911 507.832 346.87C510.642 324.604 509.455 317.227 502.342 312.733C499.535 310.959 498.157 310.793 491.141 311.383C486.741 311.753 482.521 312.083 481.764 312.116C477.854 312.289 448.996 347.326 440.915 361.712C438.947 365.214 436.492 371.514 435.46 375.712C430.671 395.185 429.279 399.844 428.248 399.844C427.125 399.844 426.052 397.227 417.995 374.844C411.864 357.812 411.402 350.619 415.171 330.844C418.561 313.06 418.767 303.93 415.904 298.344C412.375 291.459 408.22 288.939 398.721 287.924C393.363 287.351 393.331 287.328 395.958 285.932C400.433 283.554 409.112 286.065 414.29 291.236C421.444 298.38 422.458 307.445 418.45 328.449C415.03 346.374 415.307 358.569 419.426 371.344C422.702 381.502 426.898 392.435 427.911 393.448C428.218 393.754 429.21 390.481 430.115 386.175C434.465 365.484 437.975 358.384 454.006 337.844C467.225 320.907 480.144 308.422 481.755 311.028C482.291 311.896 482.821 311.502 483.492 309.735C484.024 308.337 485.659 306.407 487.127 305.445C499.754 297.172 505.738 283.508 506.003 262.344C506.079 256.294 505.772 249.994 505.32 248.344C504.658 245.922 504.744 245.585 505.771 246.595C506.614 247.424 507.322 253.149 507.87 263.573C508.324 272.222 509.117 279.72 509.632 280.235C510.966 281.569 525.476 282.225 529.641 281.14C532.75 280.33 533.176 279.818 533.45 276.556C533.62 274.536 532.816 267.416 531.663 260.735C530.509 254.053 529.753 248.399 529.982 248.17C530.531 247.62 534.227 261.404 536.298 271.726C537.524 277.842 538.454 280.209 539.942 281.005C542.983 282.633 559.309 281.604 561.251 279.663C562.871 278.042 562.109 272.809 557.167 251.624C556.372 248.217 555.892 245.26 556.1 245.051C556.934 244.218 558.665 249.054 561.6 260.413C563.295 266.975 565.141 274.032 565.702 276.094L566.721 279.844H575.213C584.023 279.844 590.654 278.038 590.626 275.645C590.617 274.929 589.717 269.43 588.626 263.425C586.774 253.237 586.046 244.915 587.098 245.967C587.349 246.219 588.718 252.031 590.139 258.884C591.561 265.737 593.404 272.872 594.235 274.739L595.747 278.134L604.092 277.545C608.883 277.207 614.078 276.186 616.289 275.148C619.564 273.612 620.186 272.81 620.439 269.798C620.603 267.849 619.816 262.117 618.689 257.06C616.768 248.434 615.996 240.405 617.42 243.844C617.761 244.669 619.888 251.644 622.147 259.344L626.254 273.344L630.493 273.654C635.315 274.006 649.802 270.624 653.307 268.327C654.678 267.429 655.641 265.809 655.641 264.4C655.641 261.73 652.722 249.024 649.67 238.41C648.574 234.596 647.858 231.294 648.079 231.073C649.054 230.097 651.802 236.352 656.104 249.344C658.654 257.044 661.556 264.169 662.552 265.178C664.309 266.955 664.588 266.945 671.752 264.826C683.411 261.377 693.641 256.334 693.641 254.034C693.641 252.012 682.924 236.383 673.309 224.382C667.601 217.258 666.599 214.597 671.253 218.923C674.71 222.137 687.459 237.321 692.78 244.564C698.109 251.816 699.347 252.773 703.455 252.812C709.834 252.873 735.641 241.789 735.641 238.988C735.641 236.624 719.265 225.014 696.641 211.337C681.487 202.177 676.865 198.874 681.78 200.719C683.232 201.264 697.71 208.265 713.954 216.277C736.518 227.406 744.399 230.844 747.344 230.844C750.348 230.844 753.179 229.559 760.17 225.024C769.917 218.7 779.022 210.486 778.389 208.587C777.206 205.039 755.248 195.804 729.014 187.822C719.734 184.998 708.991 181.604 705.141 180.279C698.767 178.085 698.544 177.92 702.641 178.441C709.45 179.306 723.964 183.296 746.141 190.398C771.83 198.625 780.015 200.359 785.802 198.801C793.806 196.645 808.544 185.166 818.856 173.055C828.192 162.09 828.673 159.733 821.942 157.931C819.852 157.371 804.191 156.227 787.141 155.388C745.583 153.344 702.248 150.645 682.141 148.848C666.903 147.486 709.353 148.534 747.141 150.453C764.191 151.318 789.391 152.079 803.141 152.142C826.87 152.252 828.43 152.143 833.818 150.006C840.474 147.367 846.172 142.023 851.257 133.654C855.418 126.803 864.618 106.167 864.632 103.653C864.637 102.723 865.091 101.684 865.641 101.344C867.132 100.422 866.849 97.261 865.149 95.85C863.532 94.508 853.183 95.595 841.141 98.371C781.901 112.027 754.15 116.281 697.641 120.368C662.811 122.887 653.364 122.535 613.943 117.249C607.784 116.423 594.509 113.744 584.443 111.296C556.907 104.598 551.588 105.048 536.561 115.339C532.034 118.439 525.363 122.471 521.736 124.299C512.369 129.021 511.107 130.701 511.294 138.206C511.481 145.734 514.263 153.319 519.221 159.821C523.329 165.208 527.26 167.407 531.07 166.451C532.427 166.111 536.89 163.135 540.988 159.838C548.8 153.554 550.586 152.868 552.654 155.359C553.685 156.602 553.368 158.266 550.89 164.609C549.228 168.863 547.539 173.469 547.137 174.844C546.735 176.219 544.144 181.775 541.381 187.191C535.652 198.417 532.298 201.502 522.322 204.721C501.359 211.486 481.719 210.221 473.592 201.583C472.433 200.352 470.816 197.769 469.999 195.844C468.176 191.549 463.641 165.377 463.641 159.152C463.641 154.828 463.961 154.322 470.561 148.212C479.212 140.202 485.514 131.692 494.16 116.344C497.878 109.744 503.843 99.398 507.416 93.354C517.19 76.816 521.053 64.71 518.614 58.256C517.328 54.852 512.813 49.844 511.031 49.844C510.351 49.844 508.472 48.732 506.857 47.372C505.241 46.012 503.682 45.136 503.394 45.425C503.105 45.713 501.918 44.74 500.755 43.262C499.592 41.784 498.641 41.007 498.641 41.535C498.641 42.829 503.15 47.001 503.823 46.329C504.116 46.036 504.941 46.501 505.656 47.362C506.591 48.489 506.652 49.233 505.87 50.015C505.208 50.677 505.121 51.734 505.648 52.722C506.123 53.614 506.957 55.777 507.501 57.528C508.395 60.403 508.232 60.881 505.816 62.453C503.416 64.014 503.282 64.021 504.513 62.519C505.681 61.094 505.673 60.844 504.463 60.844C503.68 60.844 501.809 61.406 500.306 62.094C497.649 63.309 497.487 64.101 499.098 67.999C499.548 69.087 498.793 70.762 496.897 72.884C494.4 75.678 493.727 75.96 491.892 74.978C490.726 74.354 489.042 73.844 488.15 73.844C486.673 73.844 486.667 74.043 488.084 76.067C490.565 79.609 490.085 85.491 487.068 88.508C484.986 90.59 483.845 90.977 481.097 90.531L477.7 89.979L478.21 95.352C478.67 100.198 478.446 101.023 475.93 103.77C472.424 107.6 465.641 110.647 465.641 108.393C465.641 107.58 464.707 106.414 463.565 105.803C461.678 104.794 461.588 104.876 462.571 106.713C463.165 107.824 464.099 109.009 464.646 109.347C466.041 110.209 465.822 115.89 464.288 118.654C462.774 121.383 457.848 124.828 455.448 124.837C454.516 124.841 453.054 123.844 452.198 122.621C451.158 121.137 450.636 120.888 450.626 121.871C450.612 123.15 450.482 123.146 449.641 121.844C448.142 119.525 448.467 122.279 450.052 125.335C452.505 130.064 448.534 136.844 443.31 136.844C441.822 136.844 441.55 137.347 442.023 139.23C442.916 142.788 440.447 144.396 435.841 143.258C433.164 142.597 432.055 141.743 431.831 140.17C431.661 138.974 430.424 137.276 429.081 136.397C426.104 134.446 426.014 131.996 428.664 125.025C430.869 119.222 432.951 115.544 435.952 112.145C437.119 110.824 437.635 109.27 437.244 108.252C436.886 107.32 436.304 106.848 435.949 107.203C434.773 108.379 431.69 104.624 431.056 101.244C430.267 97.036 433.271 91.85 438.173 88.957C440.081 87.832 441.641 86.473 441.641 85.937C441.641 84.215 439.599 83.634 438.055 84.916C435.787 86.798 434.308 84.666 434.308 79.516C434.308 74.66 437.303 69.403 440.682 68.331C441.775 67.984 442.384 67.238 442.035 66.672C441.618 65.998 442.085 66.011 443.389 66.709C445.337 67.752 446.641 67.338 446.641 65.677C446.641 65.219 445.853 64.842 444.891 64.839C443.929 64.837 441.679 63.464 439.891 61.789C437.495 59.543 436.641 57.875 436.641 55.439C436.641 51.524 440.846 46.325 443.262 47.252C444.24 47.627 444.642 47.386 444.355 46.595C444.106 45.907 444.501 44.652 445.234 43.807C446.816 41.98 445.94 37.515 444.134 38.208C442.447 38.856 440.641 34.589 440.641 29.958C440.641 26.882 441.316 25.551 444.214 22.914C447.508 19.917 447.664 19.527 446.214 17.925C444.022 15.503 444.251 10.639 446.68 8.03299C448.21 6.38999 449.874 5.844 453.347 5.844C458.52 5.844 458.595 4.96099 453.485 4.20299C451.646 3.92999 449.58 2.979 448.895 2.09C446.833 -0.586004 436.877 -0.726005 432.946 1.865ZM460.2 6.312C462.747 8.239 464.201 8.261 462.284 6.344C461.459 5.519 460.216 4.844 459.521 4.844C458.813 4.844 459.11 5.488 460.2 6.312ZM461.335 11.483C460.536 12.282 461.439 13.844 462.7 13.844C463.218 13.844 463.641 13.169 463.641 12.344C463.641 10.798 462.461 10.357 461.335 11.483ZM474.641 12.237C474.641 12.453 475.339 12.898 476.193 13.226C477.083 13.567 477.484 13.399 477.134 12.833C476.547 11.882 474.641 11.427 474.641 12.237ZM457.151 15.86C457.497 16.419 458.198 16.618 458.71 16.301C460.097 15.444 459.839 14.844 458.082 14.844C457.225 14.844 456.806 15.301 457.151 15.86ZM486.633 23.594C488.472 25.931 490.391 27.844 490.898 27.844C491.405 27.844 492.705 28.857 493.786 30.094C494.867 31.331 494.542 30.431 493.063 28.094C491.585 25.757 489.902 23.844 489.323 23.844C488.744 23.844 487.15 22.831 485.78 21.594C484.008 19.992 484.254 20.569 486.633 23.594ZM464.641 26.844C464.641 27.394 465.118 27.844 465.7 27.844C466.282 27.844 466.481 27.394 466.141 26.844C465.801 26.294 465.325 25.844 465.082 25.844C464.839 25.844 464.641 26.294 464.641 26.844ZM455.641 27.785C455.641 29.517 457.401 29.838 458.65 28.333C459.679 27.094 459.53 26.844 457.763 26.844C456.596 26.844 455.641 27.267 455.641 27.785ZM454.153 30.824C453.747 31.481 453.865 32.468 454.415 33.018C455.718 34.321 456.754 32.645 455.7 30.939C455.085 29.945 454.714 29.917 454.153 30.824ZM480.891 33.094C481.521 34.986 484.641 35.255 484.641 33.417C484.641 32.49 483.786 31.844 482.558 31.844C481.336 31.844 480.646 32.361 480.891 33.094ZM456.499 37.851C457.587 39.641 458.24 41.726 457.948 42.486C457.585 43.432 457.925 43.672 459.03 43.248C460.099 42.838 460.641 43.17 460.641 44.237C460.641 45.121 461.118 45.844 461.7 45.844C462.282 45.844 462.492 45.412 462.166 44.885C461.84 44.357 462.138 43.021 462.829 41.915C463.901 40.198 463.772 39.615 461.948 37.915C460.773 36.82 458.621 35.626 457.166 35.261L454.52 34.597L456.499 37.851ZM430.128 42.823C431.109 44.41 428.653 47.993 426.824 47.646C425.838 47.459 425.01 46.191 424.825 44.585C424.554 42.242 424.872 41.844 427.016 41.844C428.395 41.844 429.795 42.285 430.128 42.823ZM484.641 45.959C484.641 47.098 485.169 47.835 485.829 47.615C487.68 46.998 487.89 45.154 486.183 44.499C485.102 44.084 484.641 44.521 484.641 45.959ZM464.377 45.442C463.475 46.343 464.716 48.915 465.746 48.279C466.238 47.975 466.641 47.078 466.641 46.285C466.641 44.812 465.45 44.369 464.377 45.442ZM445.891 51.59C444.409 52.089 444.197 54.844 445.641 54.844C446.191 54.844 446.641 54.364 446.641 53.777C446.641 53.164 447.494 52.98 448.641 53.344C449.741 53.693 450.641 53.551 450.641 53.028C450.641 51.897 447.66 50.995 445.891 51.59ZM451.641 64.344C451.641 65.169 452.091 65.844 452.641 65.844C453.191 65.844 453.641 65.169 453.641 64.344C453.641 63.519 453.191 62.844 452.641 62.844C452.091 62.844 451.641 63.519 451.641 64.344ZM470.192 68.046C468.57 69.549 467.591 71.127 468.017 71.553C468.443 71.979 469.23 71.544 469.766 70.586C470.302 69.628 471.366 68.844 472.132 68.844C473.874 68.844 474.726 67.555 473.825 66.28C473.434 65.727 471.878 66.483 470.192 68.046ZM480.141 70.844C479.801 71.394 480.225 71.844 481.082 71.844C481.939 71.844 482.641 71.394 482.641 70.844C482.641 70.294 482.218 69.844 481.7 69.844C481.182 69.844 480.481 70.294 480.141 70.844ZM443.87 77.032C444.487 78.883 446.331 79.093 446.986 77.386C447.401 76.305 446.964 75.844 445.526 75.844C444.387 75.844 443.65 76.372 443.87 77.032ZM465.308 79.511C464.093 80.725 464.617 81.791 466.141 81.206C466.966 80.889 467.641 80.228 467.641 79.737C467.641 78.689 466.263 78.555 465.308 79.511ZM469.915 94.863C469.702 97.679 471.106 98.093 473.162 95.82C474.146 94.733 474.769 93.811 474.546 93.77C474.323 93.729 473.223 93.521 472.101 93.308C470.647 93.032 470.019 93.479 469.915 94.863ZM444.641 97.903C444.641 98.485 445.091 98.684 445.641 98.344C446.191 98.004 446.641 97.528 446.641 97.285C446.641 97.042 446.191 96.844 445.641 96.844C445.091 96.844 444.641 97.321 444.641 97.903ZM415.351 139.809C417.116 140.885 419.792 143.626 421.296 145.899C423.582 149.353 424.033 151.124 424.046 156.688C424.072 168.359 419.051 176.566 409.226 180.91C400.432 184.799 390.183 181.661 386.14 173.842C384.359 170.397 384.26 159.789 385.967 155.16C390.839 141.946 405.928 134.063 415.351 139.809ZM402.199 141.092C399.715 141.748 396.57 143.838 393.699 146.739C380.186 160.392 385.285 180.844 402.201 180.844C409.64 180.844 417.811 173.92 420.7 165.166C421.339 163.23 421.678 158.769 421.454 155.252C421.094 149.6 420.652 148.45 417.638 145.341C414.845 142.459 408.849 139.521 406.641 139.953C406.366 140.007 404.367 140.519 402.199 141.092ZM415.696 146.916C418.624 150.796 419.713 156.699 418.451 161.855C417.099 167.383 411.296 175.33 407.449 176.923C403.798 178.436 395.926 177.412 393.362 175.091C385.461 167.941 388.155 153.172 398.662 146.031C401.587 144.044 403.075 143.732 408.002 144.077C412.764 144.411 414.207 144.943 415.696 146.916ZM444.318 155.348C447.199 163.888 447.197 164.184 444.141 179.123C440.052 199.117 434.188 218.252 435.417 207.593C435.836 203.965 434.233 198.844 432.68 198.844C432.124 198.844 431.163 200.855 430.544 203.314C429.925 205.772 428.799 208.298 428.042 208.926C426.893 209.88 426.753 209.149 427.196 204.485C427.691 199.266 429.28 194.836 435.178 182.231C437.718 176.801 437.634 175.733 433.976 166.989C433.205 165.143 432.865 162.713 433.222 161.588C433.717 160.028 433.512 159.68 432.359 160.122C431.253 160.547 430.72 159.85 430.373 157.523C429.645 152.65 431.1 149.847 434.366 149.829C435.892 149.82 437.816 149.378 438.641 148.845C441.11 147.251 441.887 148.14 444.318 155.348ZM270.4 158.534C275.254 160.837 285.259 176.356 296.066 198.344C318.073 243.117 327.549 262.794 335.144 279.492C339.684 289.474 345.048 300.724 347.064 304.492C349.079 308.261 355.172 320.794 360.603 332.344C380.189 373.996 381.681 376.905 384.004 377.963C387.1 379.374 389.129 382.756 387.723 384.162C386.947 384.938 386.641 384.632 386.641 383.079C386.641 378.594 380.779 377.698 372.269 380.882C363.76 384.066 361.862 388.436 365.711 395.981C366.849 398.212 367.53 400.288 367.224 400.595C366.68 401.139 361.641 390.618 361.641 388.938C361.641 388.471 362.297 387.545 363.099 386.879C364.363 385.83 364.31 385.405 362.701 383.678C360.82 381.66 347.592 360.368 337.767 343.545C330.729 331.496 305.298 292.493 301.129 287.357C297.046 282.325 287.749 268.509 285.253 263.766C284.218 261.798 282.109 258.423 280.565 256.266C279.022 254.109 275.936 249.144 273.707 245.232C271.478 241.321 266.655 233.896 262.99 228.732C249.565 209.818 238.641 186.92 238.641 177.693C238.641 172.159 241.111 167.412 246.132 163.298C253.729 157.073 263.343 155.185 270.4 158.534ZM398.616 159.409C396.695 164.462 401.363 167.979 405.07 164.273C408.171 161.171 406.335 156.844 401.916 156.844C400.341 156.844 399.277 157.671 398.616 159.409ZM252.408 162.777C248.245 165.417 245.641 168.379 245.641 170.474C245.641 170.893 247.103 169.86 248.891 168.177C250.679 166.495 253.933 163.932 256.123 162.481C261.594 158.858 258.155 159.132 252.408 162.777ZM461.404 226.837C466.972 229.232 469.986 231.968 471.52 236.015C472.42 238.392 472.082 239.198 468.451 243.323L464.37 247.959L461.756 245.531C458.572 242.576 440.926 229.602 437.854 227.958C432.71 225.205 437.102 223.817 449.252 224.354C453.718 224.552 458.238 225.475 461.404 226.837ZM426.443 231.242C430.28 233.226 432.978 236.469 432.091 238.031C430.436 240.945 413.096 263.744 412.498 263.792C410.398 263.962 408.981 248.942 410.551 243.149C411.755 238.708 419.562 229.844 422.27 229.844C423.078 229.844 424.957 230.473 426.443 231.242ZM280.383 243.435C280.058 243.761 283.108 247.343 287.16 251.396C295.383 259.618 301.913 270.305 303.778 278.594C304.994 283.997 305.959 285.063 307.054 282.21C309.658 275.425 298.548 255.644 287.23 246.913C281.72 242.661 281.346 242.472 280.383 243.435ZM447.247 246.524C449.939 248.548 453.593 251.45 455.369 252.974L458.596 255.744L456.273 258.544C454.995 260.084 452.338 263.472 450.37 266.072L446.791 270.801L438.966 265.224C434.662 262.156 430.729 259.256 430.226 258.78C429.321 257.924 440.087 242.844 441.603 242.844C442.016 242.844 444.556 244.5 447.247 246.524ZM348.026 281.386C350.448 283.154 356.684 284.066 363.591 283.662C368.542 283.373 369.213 283.046 370.936 280.088C371.979 278.297 373.693 273.347 374.744 269.088C377.004 259.937 378.555 255.844 379.762 255.844C381.001 255.844 380.965 256.065 377.635 268.728C374.305 281.391 374.074 283.699 375.891 286.142C377.034 287.678 377.561 287.694 382.05 286.333C387.467 284.69 391.641 284.399 391.641 285.663C391.641 286.114 388.248 287.974 384.102 289.796C375.73 293.475 368.823 299.161 362.081 307.922L357.605 313.739L351.503 302.041C342.182 284.173 341.79 282.64 342.753 267.844C344.184 245.855 345.083 244.401 345.641 263.177C346.087 278.177 346.346 280.16 348.026 281.386ZM479.212 252.472C480.226 259.23 479.03 269.16 476.639 273.848C475.493 276.095 472.957 279.702 471.005 281.863L467.455 285.792L461.548 281.781C458.299 279.575 455.649 277.224 455.659 276.557C455.669 275.89 458.932 271.266 462.909 266.282C466.887 261.298 471.716 255.125 473.641 252.563C475.566 250.002 477.451 247.892 477.83 247.875C478.209 247.858 478.831 249.926 479.212 252.472ZM289.213 263.094C289.601 264.332 291.542 267.819 293.526 270.844C295.51 273.869 297.36 276.794 297.637 277.344C299.011 280.07 301.969 283.844 302.731 283.844C304.17 283.844 301.931 279.186 296.833 271.575C294.169 267.598 291.7 263.556 291.347 262.594C290.373 259.944 288.371 260.413 289.213 263.094ZM439.671 277.521C448.455 283.943 455.641 289.548 455.641 289.975C455.641 292.271 441.749 292.203 433.641 289.868C429.232 288.598 421.049 282.306 418.567 278.278L416.677 275.211L419.909 270.538C421.687 267.967 423.267 265.859 423.421 265.854C423.575 265.848 430.888 271.099 439.671 277.521ZM597.641 345.785C597.641 346.303 597.169 347.017 596.593 347.374C595.125 348.281 592.382 347.072 593.137 345.851C593.923 344.578 597.641 344.524 597.641 345.785ZM605.566 349.264C607.996 351.85 609.422 358.243 607.794 359.249C607.254 359.583 605.833 358.273 604.637 356.338C602.304 352.562 599.114 350.27 598.215 351.724C597.914 352.211 598.562 353.745 599.655 355.134C600.747 356.523 601.641 358.066 601.641 358.563C601.641 360.501 605.694 363.763 607.398 363.196C608.357 362.877 607.791 363.776 606.141 365.194C604.491 366.612 602.781 367.788 602.341 367.808C601.901 367.828 597.176 370.714 591.841 374.223C586.506 377.731 580.566 381.392 578.641 382.358C574.107 384.634 551.411 399.285 545.814 403.548C543.435 405.361 540.707 406.844 539.753 406.844C538.799 406.844 537.004 407.789 535.763 408.945C534.523 410.1 533.405 410.887 533.277 410.695C532.241 409.125 530.641 404.401 530.641 402.911C530.641 401.9 529.976 399.79 529.162 398.223L527.684 395.373L540.166 387.358C553.362 378.886 565.837 371.024 580.957 361.65C586.008 358.519 590.591 355.574 591.141 355.106C591.691 354.638 593.704 353.15 595.614 351.799C597.524 350.449 599.694 348.782 600.435 348.094C602.314 346.352 602.971 346.502 605.566 349.264ZM329.668 375.79C326.874 381.357 322.983 388.147 321.021 390.878L317.453 395.844H320.5C322.176 395.844 324.581 395.408 325.844 394.876C335.317 390.882 347.023 386.844 349.13 386.844C351.784 386.844 360.272 390.438 361.213 391.96C361.994 393.224 361.375 393.088 356.141 390.844C349.954 388.192 348.103 388.307 340.91 391.792C333.612 395.327 320.116 399.844 316.851 399.844C313.735 399.844 314.165 398.634 322.475 384.007C326.141 377.554 329.797 370.939 330.6 369.309C332.68 365.08 334.01 363.452 334.408 364.645C334.595 365.207 332.462 370.222 329.668 375.79ZM607.237 375.319C606.747 377.271 603.574 379.848 594.542 385.633C587.92 389.874 574.126 398.865 563.889 405.613C549.695 414.97 544.548 417.858 542.209 417.78C540.522 417.724 538.128 417.993 536.891 418.378C535.326 418.864 534.618 418.661 534.567 417.711C534.526 416.959 534.304 415.332 534.073 414.094C533.842 412.856 534.101 411.844 534.647 411.844C535.194 411.844 535.641 412.294 535.641 412.844C535.641 413.394 536.111 413.844 536.685 413.844C537.259 413.844 537.596 413.083 537.435 412.154C537.228 410.964 538.177 410.181 540.641 409.51C542.566 408.985 545.802 407.271 547.832 405.7C549.863 404.129 551.85 402.844 552.249 402.844C553.08 402.844 570.988 391.427 583.815 382.72C588.585 379.482 595.56 375.078 599.315 372.933C605.637 369.322 606.206 369.17 607.015 370.875C607.496 371.888 607.596 373.888 607.237 375.319ZM481.2 373.263C482.714 374.37 483.141 375.892 483.141 380.18C483.141 386.403 482.745 387.094 479.183 387.094C476.306 387.094 476.101 387.447 477.919 389.265C478.957 390.303 479.447 390.277 480.52 389.128C483.455 385.986 482.487 389.108 477.693 398.244C473.679 405.896 472.641 408.852 472.641 412.636C472.641 417.639 474.722 421.844 477.198 421.844C479.029 421.844 479.017 420.794 477.147 417.208C475.147 413.373 475.125 410.782 477.115 413.403C478.512 415.243 478.579 415.188 478.407 412.344C478.307 410.694 477.829 409.068 477.344 408.73C475.503 407.447 485.275 390.848 487.872 390.846C488.824 390.845 492.424 392.162 495.872 393.773C499.32 395.383 503.676 397.268 505.551 397.96L508.961 399.219L506.551 400.782C505.226 401.641 499.518 405.851 493.867 410.138C488.216 414.425 483.153 417.661 482.617 417.329C482.08 416.997 481.641 417.428 481.641 418.285C481.641 421.589 486.586 419.354 498.141 410.827C504.724 405.969 515.557 399.426 516.106 399.976C516.592 400.462 501.313 412.254 492.276 418.367C485.067 423.244 483.663 425.169 483.562 430.317C483.519 432.532 483.25 433.763 482.965 433.052C482.567 432.06 482.121 432.031 481.044 432.925C480.272 433.565 479.634 433.696 479.626 433.216C479.617 432.737 479.174 433.019 478.641 433.844C477.995 434.844 477.667 434.927 477.656 434.094C477.648 433.407 476.741 432.844 475.641 432.844C473.851 432.844 473.173 433.883 473.523 436.094C473.588 436.507 473.304 436.837 472.891 436.829C471.179 436.795 464.968 434.221 462.668 432.594C461.309 431.632 459.705 430.844 459.106 430.844C458.506 430.844 455.716 429.735 452.907 428.38C445.009 424.569 444.702 419.838 451.835 411.861C456.056 407.14 465.641 390.853 465.641 388.402C465.641 387.278 466.314 387.177 468.884 387.914C473.011 389.097 475.641 389.1 475.641 387.922C475.641 386.659 468.904 384.529 467.1 385.221C465.349 385.893 465.348 385.892 466.766 380.261C467.426 377.641 468.93 374.975 470.401 373.818C473.339 371.507 478.44 371.245 481.2 373.263ZM384.641 385.563C383.816 385.872 381.004 386.955 378.391 387.97C375.778 388.985 373.641 389.574 373.641 389.281C373.641 388.356 382.047 384.885 384.141 384.945C385.574 384.986 385.715 385.161 384.641 385.563ZM395.758 392.457L398.485 395.069L392.617 398.096C386.661 401.168 379.031 407.735 383.143 406.25C384.242 405.854 386.971 404.481 389.207 403.199C391.444 401.918 395.125 400.723 397.388 400.544C400.876 400.268 401.698 400.582 402.778 402.601C403.972 404.831 403.706 405.292 398.597 409.855C395.596 412.535 391.909 415.256 390.404 415.902C388.898 416.548 387.929 417.5 388.249 418.019C389.207 419.569 394.447 417.871 397.515 415.014C401.632 411.181 407.775 406.844 409.086 406.844C409.704 406.844 411 408.182 411.966 409.817C413.623 412.623 413.626 412.937 412.02 415.388C410.163 418.223 398.691 426.086 392.822 428.548C390.797 429.397 386.858 430.148 384.068 430.218C379.945 430.32 378.31 429.823 375.346 427.565C369.811 423.348 366.241 418.14 366.241 414.281C366.241 411.646 365.964 411.161 364.941 412.01C361.761 414.649 365.199 422.525 372.234 428.717C376.309 432.304 376.54 432.701 374.026 431.797C370.206 430.424 367.332 427.951 364.209 423.349C359.423 416.297 360.975 411.503 371.114 402.018C378.497 395.111 386.891 389.868 390.586 389.853C391.931 389.848 394.259 391.02 395.758 392.457ZM525.379 401.844C525.248 402.944 525.495 403.828 525.927 403.808C527.584 403.733 529.227 406.595 531.366 413.288C532.587 417.107 533.486 420.294 533.364 420.37C533.241 420.446 529.541 422.693 525.141 425.363C515.506 431.21 516.18 430.716 516.889 431.425C517.208 431.745 518.521 431.459 519.805 430.79C523.595 428.816 521.543 430.444 513.085 436.122C508.716 439.055 502.422 443.318 499.1 445.595C495.777 447.872 491.822 450.205 490.31 450.78C487.763 451.748 487.403 451.555 485.382 448.129C484.183 446.097 483.104 443.514 482.986 442.389C482.867 441.262 483.576 442.054 484.563 444.152C488.293 452.074 490.605 451.886 487.573 443.907C486.151 440.166 485.639 436.774 485.847 432.467L486.141 426.345L496.641 419.113C509.102 410.529 525.038 399.844 525.377 399.844C525.509 399.844 525.51 400.744 525.379 401.844ZM512.641 417.344C512.641 418.169 513.091 418.844 513.641 418.844C514.191 418.844 514.641 418.169 514.641 417.344C514.641 416.519 514.191 415.844 513.641 415.844C513.091 415.844 512.641 416.519 512.641 417.344ZM508.094 418.458C508.935 420.515 511.49 429.015 512.335 432.569C512.777 434.427 513.187 434.622 514.817 433.75C516.222 432.998 516.482 432.358 515.745 431.47C515.181 430.79 513.69 427.369 512.431 423.866C511.171 420.363 509.507 417.289 508.732 417.034C507.694 416.693 507.526 417.069 508.094 418.458ZM479.641 420.726C479.641 421.276 480.091 422.004 480.641 422.344C481.191 422.684 481.641 422.512 481.641 421.962C481.641 421.412 481.191 420.684 480.641 420.344C480.091 420.004 479.641 420.176 479.641 420.726ZM550.632 427.344C554.594 437.382 555.076 440.266 553.122 442.22C552.229 443.113 551.133 443.844 550.686 443.844C549.63 443.844 548.672 440.194 548.655 436.105C548.647 434.323 547.741 430.498 546.642 427.605C544.22 421.233 544.136 419.596 546.255 420.021C547.198 420.209 549.019 423.257 550.632 427.344ZM499.375 421.507C498.879 422.353 502.977 437.513 503.971 438.507C505.335 439.871 506.607 437.648 505.57 435.712C504.979 434.606 503.829 431.146 503.016 428.023C501.512 422.243 500.259 420.001 499.375 421.507ZM496.006 427.344C496.455 433.696 499.181 441.844 500.858 441.844C501.953 441.844 501.797 441.14 498.093 429.344L495.581 421.344L496.006 427.344ZM505.157 426.094C505.979 431.151 508.471 436.844 509.862 436.844C510.408 436.844 510.56 436.075 510.199 435.135C509.838 434.195 508.778 430.82 507.842 427.636C505.861 420.894 504.151 419.912 505.157 426.094ZM491.53 426.594C491.469 428.106 491.491 430.469 491.579 431.844C491.792 435.179 495.642 444.844 496.757 444.844C497.961 444.844 497.935 444.704 495.497 438.188C494.318 435.037 493.322 430.52 493.284 428.151C493.209 423.458 491.71 422.127 491.53 426.594ZM542.448 426.37C542.14 426.678 541.581 426.123 541.205 425.137C540.663 423.712 540.777 423.597 541.765 424.577C542.449 425.256 542.756 426.063 542.448 426.37ZM404.321 428.947C400.571 431.197 397.244 432.78 396.928 432.465C396.613 432.149 397.207 431.569 398.248 431.175C399.289 430.781 402.142 429.195 404.587 427.651C407.032 426.107 409.507 424.846 410.087 424.849C410.667 424.852 408.072 426.696 404.321 428.947ZM420.391 430.435C423.592 432.505 423.188 435.845 419.166 440.544C412.015 448.898 398.125 455.363 394.391 452.075C390.506 448.654 394.359 438.361 401.025 434.353C412.376 427.529 415.059 426.986 420.391 430.435ZM486.951 433.344C487.455 439.833 490.398 447.844 492.278 447.844C493.048 447.844 492.629 445.441 491.042 440.748C489.721 436.846 488.634 432.908 488.626 431.998C488.617 431.088 488.132 429.669 487.548 428.844C486.767 427.742 486.609 428.935 486.951 433.344ZM525.141 428.844C524.801 429.394 523.987 429.837 523.332 429.829C522.616 429.819 522.74 429.426 523.641 428.844C525.562 427.602 525.908 427.602 525.141 428.844ZM393.141 433.844C392.041 434.317 389.566 434.703 387.641 434.703C384.805 434.703 384.52 434.54 386.141 433.844C387.241 433.371 389.716 432.985 391.641 432.985C394.477 432.985 394.762 433.148 393.141 433.844ZM543.249 434.594C543.98 435.556 544.57 437.919 544.561 439.844C544.548 442.804 543.82 443.926 539.843 447.118C533.285 452.381 517.834 457.111 519.249 453.422C519.549 452.64 519.291 451.058 518.674 449.906C517.662 448.014 517.872 447.748 520.847 447.151L524.141 446.491L521.141 445.672C517.741 444.744 515.208 445.334 516.137 446.837C516.479 447.391 516.309 447.844 515.759 447.844C513.581 447.844 513.751 445.902 516.091 444.062C518.834 441.905 522.16 440.47 528.141 438.863C530.341 438.272 534.166 436.737 536.641 435.452C539.116 434.167 541.316 433.054 541.531 432.98C541.745 432.905 542.518 433.632 543.249 434.594ZM440.641 436.844C440.641 437.394 441.091 437.844 441.641 437.844C442.191 437.844 442.641 437.394 442.641 436.844C442.641 436.294 442.191 435.844 441.641 435.844C441.091 435.844 440.641 436.294 440.641 436.844ZM482.303 439.094C482.026 439.782 481.799 439.219 481.799 437.844C481.799 436.469 482.026 435.907 482.303 436.594C482.581 437.282 482.581 438.407 482.303 439.094ZM541.996 452.427C542.891 452.77 543.265 453.659 542.908 454.591C542.517 455.61 542.702 455.924 543.428 455.475C544.601 454.751 547.641 459.583 547.641 462.172C547.641 462.957 548.316 464.159 549.141 464.844C549.966 465.529 550.641 467.312 550.641 468.806C550.641 471.788 547.538 473.844 543.035 473.844C541.65 473.844 540.795 474.283 541.128 474.823C542.62 477.238 539.338 479.864 531.873 482.229C527.62 483.576 521.815 485.563 518.973 486.645L513.805 488.612L509.704 483.077C503.962 475.326 503.695 473.504 507.343 466.948C509.01 463.952 510.996 461.37 511.757 461.211C513.691 460.807 521.704 458.155 531.141 454.797C540.17 451.584 539.934 451.635 541.996 452.427ZM503.324 459.372C505.468 460.777 505.491 460.96 503.982 464.586C499.793 474.656 497.14 476.333 490.071 473.379C484.257 470.95 483.56 470.117 484.894 467.189C485.807 465.184 486.542 464.8 488.588 465.259C495.224 466.748 500.641 467.082 500.641 466.002C500.641 465.386 499.403 464.607 497.891 464.27C490.228 462.565 488.641 461.615 488.641 458.736C488.641 457.063 489.274 456.926 494.871 457.395C498.298 457.681 502.102 458.571 503.324 459.372ZM540.308 460.511C539.128 461.69 539.597 463.844 541.034 463.844C542.196 463.844 543.641 461.859 543.641 460.262C543.641 459.588 541.036 459.782 540.308 460.511ZM544.141 462.844C543.801 463.394 544.251 463.844 545.141 463.844C546.031 463.844 546.481 463.394 546.141 462.844C545.801 462.294 545.351 461.844 545.141 461.844C544.931 461.844 544.481 462.294 544.141 462.844ZM527.641 465.903C527.641 466.485 528.091 466.684 528.641 466.344C529.191 466.004 529.641 465.528 529.641 465.285C529.641 465.042 529.191 464.844 528.641 464.844C528.091 464.844 527.641 465.321 527.641 465.903ZM520.014 467.762C516.162 469.511 513.499 471.836 515.332 471.85C516.887 471.862 526.607 467.337 526.624 466.594C526.652 465.371 524.405 465.768 520.014 467.762ZM530.641 466.625C530.641 467.799 536.58 469.805 538.208 469.18C538.99 468.88 539.362 468.201 539.034 467.671C538.707 467.141 537.824 466.944 537.072 467.232C536.32 467.521 535.439 467.326 535.114 466.8C534.407 465.657 530.641 465.509 530.641 466.625ZM541.141 471.844C540.801 472.394 541.225 472.844 542.082 472.844C542.939 472.844 543.641 472.394 543.641 471.844C543.641 471.294 543.218 470.844 542.7 470.844C542.182 470.844 541.481 471.294 541.141 471.844Z" fill="black"/>
</svg>
