<svg width="638" height="770" viewBox="0 0 638 770" fill="none" xmlns="http://www.w3.org/2000/svg">
<path fill-rule="evenodd" clip-rule="evenodd" d="M0 385.003V770.005L318.438 769.69L636.875 769.375L637.19 384.688L637.504 0H318.753H0V385.003ZM615 290V557.5H318.75H22.5V290V22.5H318.75H615V290ZM315.029 36.1975C314.308 37.5438 305.342 63.2775 295.105 93.385C266.195 178.404 251.779 218.757 249.5 221.036C247.588 222.949 238.892 223.15 146.519 223.42C91.0275 223.582 43.7975 223.722 41.5625 223.732C32.9675 223.77 36.54 227.714 60.3125 244.438C72.8587 253.265 101.125 273.14 123.125 288.605C196.569 340.234 204.135 345.676 205.509 347.858C206.896 350.061 203.168 362.396 189.936 399.375C187.23 406.938 175.176 441.151 163.149 475.406C151.122 509.661 140.991 538.157 140.636 538.731C139.384 540.759 141.554 543.75 144.277 543.75C145.825 543.75 162.381 533.134 181.956 519.59C296.947 440.027 315.495 427.5 318.302 427.5C321.246 427.5 388.145 473.56 456.716 522.799C473.816 535.078 488.716 544.949 489.827 544.735C494.231 543.887 494.23 543.885 464.779 449.375C457.922 427.375 447.855 395.574 442.406 378.705C436.957 361.837 432.5 347.388 432.5 346.595C432.5 345.803 438.829 340.784 446.562 335.443C465.13 322.62 537.402 271.945 565.021 252.384C577.064 243.854 589.285 235.26 592.18 233.288C598.765 228.799 600.74 226.49 599.26 225.012C598.606 224.361 554.142 223.744 494.375 223.556C437.312 223.378 388.978 222.796 386.963 222.264C384.949 221.731 382.852 220.583 382.305 219.71C381.756 218.839 374.201 196.469 365.515 170C356.829 143.531 348.424 117.937 346.836 113.125C345.25 108.313 339.075 89.1875 333.114 70.625C327.152 52.0625 321.695 36.1725 320.985 35.3125C319.092 33.0225 316.523 33.405 315.029 36.1975ZM355.625 252.719C370.293 257.158 378.5 263.521 384.019 274.732C387.665 282.137 388.115 284.198 388.04 293.099C387.876 312.354 377.671 326.866 360.277 332.579C355.656 334.097 351.686 335.499 351.456 335.692C350.94 336.129 380.358 375.523 384.863 380.428C388.808 384.721 395.364 388.236 401.621 389.41L406.25 390.279V399.514V408.75H380.107H353.966L336.949 384.688C327.59 371.454 316.544 355.954 312.4 350.244L304.869 339.863L299.621 340.244L294.375 340.625L293.983 353.125C293.121 380.512 295.381 386.539 307.536 389.27L314.375 390.806L314.743 399.777L315.11 408.75H273.75H232.39L232.757 399.719L233.125 390.686L238.75 389.745C246.068 388.519 249.402 386.68 251.112 382.929C252.055 380.86 252.5 364.035 252.5 330.504C252.5 289.721 252.184 280.514 250.68 277.606C248.784 273.939 243.497 270.869 236.562 269.408L232.5 268.551V259.188V249.825L290.938 250.326C338.434 250.734 350.545 251.183 355.625 252.719ZM302.674 272.432C294.694 274.442 294.395 275.359 294.385 297.847L294.375 318.125L308.75 318.094C317.129 318.076 325.048 317.395 327.734 316.461C337.503 313.064 343.489 302.249 341.72 291.19C339.874 279.637 330.992 273.109 315.625 272.004C310.813 271.657 304.985 271.85 302.674 272.432ZM614.375 628.125V675.625H318.75H23.125L22.7962 629.38C22.6162 603.945 22.74 582.429 23.0713 581.565C23.5525 580.31 82.9075 580.057 319.024 580.31L614.375 580.625V628.125ZM52.0087 603.228C50.5787 606.954 51.2513 609.709 53.75 610.363C57.0487 611.225 56.9688 613.669 52.9575 634.421C50.0838 649.291 49.3038 651.621 46.8138 652.755C44.3588 653.874 42.5775 657.007 42.5175 660.312C42.5075 660.829 49.8125 661.25 58.75 661.25C67.6875 661.25 75.0412 660.829 75.0925 660.312C75.1437 659.796 75.4087 658.192 75.6825 656.746C76.0362 654.866 75.26 653.7 72.9525 652.649C69.935 651.274 69.7837 650.797 70.6112 645.277C71.0987 642.031 72.0587 638.325 72.745 637.041C74.5612 633.649 76.235 635.946 81.9588 649.688L86.775 661.25H99.0125H111.25V657.711C111.25 655.235 110.33 653.68 108.186 652.533C106.501 651.631 103.121 647.085 100.675 642.43L96.2275 633.966L100.91 631.671C111.044 626.702 114.76 613.366 107.812 606.904C102.653 602.105 97.6525 601.265 74.1963 601.258C55.805 601.251 52.66 601.53 52.0087 603.228ZM86.3237 611.25C86.9387 611.25 88.3188 612.588 89.3888 614.221C93.0588 619.821 87.5987 626.272 78.9837 626.517C76.7737 626.58 74.7962 626.405 74.5912 626.129C74.3862 625.851 74.7238 622.636 75.3425 618.983C76.4788 612.268 79.38 609.337 83.54 610.704C84.455 611.004 85.7075 611.25 86.3237 611.25ZM147.887 612.215C125.952 612.544 125.121 612.65 124.307 615.211C123.736 617.013 124.115 618.23 125.483 618.995C128.201 620.516 128.076 626.861 125.057 640.689C123.492 647.859 121.776 652.555 120.28 653.77C118.995 654.812 117.616 656.922 117.214 658.457L116.484 661.25L141.68 661.229L166.875 661.208L170 654.131C171.719 650.24 173.281 646.686 173.472 646.235C173.664 645.782 172.539 644.831 170.972 644.12C168.524 643.009 167.399 643.491 162.944 647.569C155.719 654.18 144.541 657.091 141.314 653.203C139.123 650.561 141.268 640.776 144.16 640.219C147.063 639.66 150 642.185 150 645.24C150 647.038 150.721 647.57 152.761 647.275C155.082 646.939 155.778 645.581 157.121 638.75C158 634.281 159.019 629.359 159.384 627.812C160.355 623.697 154.735 623.935 151.99 628.125C149.256 632.298 143.75 632.484 143.75 628.404C143.75 623.095 147.118 620 152.884 620.005C158.38 620.01 165.795 623.609 167.051 626.882C167.859 628.989 173.186 629.424 174.386 627.483C175.29 626.019 172.756 612.71 171.479 612.209C171.009 612.025 160.394 612.029 147.887 612.215ZM192.188 612.183C179.703 612.556 178.75 612.763 178.75 615.093C178.75 616.473 179.826 619.125 181.143 620.988C182.481 622.884 185.27 632.352 187.477 642.5C189.645 652.469 191.868 661.083 192.415 661.643C192.963 662.203 195.855 662.484 198.843 662.268L204.275 661.875L215.648 642.019C221.903 631.097 228.25 621.166 229.754 619.948C232.484 617.738 233.961 613.404 232.188 612.812C231.672 612.641 227.378 612.5 222.646 612.5C214.863 612.5 213.974 612.759 213.331 615.219C212.874 616.967 213.379 618.504 214.748 619.525C216.704 620.985 216.437 621.975 211.451 631.806C208.469 637.688 205.627 642.5 205.139 642.5C204.05 642.5 201.25 629.37 201.25 624.265C201.25 622.102 202.292 619.662 203.75 618.415C205.125 617.237 206.25 615.144 206.25 613.763C206.25 612.38 206.109 611.37 205.938 611.515C205.766 611.661 199.578 611.961 192.188 612.183ZM298.288 614.062C297.169 618.239 297.305 618.75 299.536 618.75C301.307 618.75 301.465 619.931 300.744 627.812C299.38 642.723 297.503 650.111 294.249 653.365C292.599 655.015 291.25 657.462 291.25 658.806C291.25 661.135 292.249 661.25 312.552 661.25H333.855L337.552 653.009C339.586 648.476 341.25 644.558 341.25 644.303C341.25 644.048 340.148 643.247 338.8 642.526C336.73 641.419 335.486 642.079 330.785 646.78C325.219 652.346 318.629 654.93 314.268 653.256C311.98 652.379 312.355 647.723 316.087 630.625C317.96 622.05 318.75 620.393 321.635 618.994C323.926 617.884 325 616.389 325 614.306C325 611.261 324.955 611.25 312.021 611.25C299.618 611.25 299.009 611.375 298.288 614.062ZM410.187 612.5C409.74 612.844 407.793 616.445 405.858 620.503C403.081 626.326 402.686 628.099 403.983 628.92C406.669 630.624 407.572 630.228 412.455 625.196C417.599 619.895 422.5 617.775 422.5 620.85C422.5 621.876 421.267 629.456 419.761 637.692C417.527 649.906 416.547 652.917 414.449 654.021C411.279 655.687 410.044 657.453 410.019 660.354C410.001 662.381 411.266 662.55 424.062 662.229C437.628 661.888 438.139 661.774 438.53 659.025C438.784 657.229 437.896 655.334 436.128 653.903C433.409 651.701 433.368 651.339 434.808 642.377C437.633 624.801 439.006 620 441.214 620C443.839 620 448.302 624.121 449.39 627.548C449.92 629.219 450.907 629.919 452.09 629.465C453.115 629.073 454.534 628.75 455.241 628.75C456.446 628.75 456.236 626.053 454.245 615.994L453.576 612.612L432.287 612.244C420.58 612.041 410.634 612.156 410.187 612.5ZM505.935 613.034C496.091 616.546 488.826 624.181 486.261 633.709C481.713 650.602 493.468 663.667 511.886 662.189C529.608 660.766 542.456 647.985 542.487 631.748C542.504 623.631 538.869 617.892 531.287 614.062C524.826 610.799 513.487 610.339 505.935 613.034ZM547.246 614.91C546.897 617.285 547.301 618.886 548.349 619.287C552.395 620.84 547.568 649.899 542.594 653.926C541.168 655.081 540 657.201 540 658.637C540 661.036 540.709 661.25 548.666 661.25C556.274 661.25 557.43 660.94 558.136 658.715C558.696 656.95 558.101 655.5 556.176 653.941L553.411 651.702L555.646 638.976C556.876 631.976 558.289 626.25 558.787 626.25C559.559 626.25 568.274 649.92 570.638 658.438C571.343 660.978 572.189 661.25 579.36 661.25C588.348 661.25 587.315 662.708 589.987 646.25C592.67 629.718 595.115 621.6 598.226 618.896C603.811 614.04 602.302 612.5 591.959 612.5C583.724 612.5 582.577 612.788 581.864 615.035C581.302 616.803 581.901 618.251 583.838 619.819C586.523 621.994 586.563 622.346 585.024 630.5C584.109 635.348 582.965 638.465 582.334 637.834C581.73 637.23 579.361 631.141 577.07 624.305L572.906 611.875L560.351 611.52L547.796 611.166L547.246 614.91ZM238.75 615.491C238.75 617.136 239.594 618.806 240.625 619.202C243.131 620.164 242.991 623.992 239.894 639.135C237.906 648.85 236.57 652.555 234.269 654.737C227.806 660.867 229.097 661.25 256.232 661.25H281.214L285.064 653.624C287.181 649.429 288.736 645.849 288.519 645.667C288.303 645.486 286.829 644.664 285.244 643.839C282.71 642.519 282.055 642.729 279.813 645.579C275.366 651.231 262.996 656.119 257.528 654.384C254.849 653.534 254.401 650.808 255.795 643.84C256.473 640.45 257.069 639.923 259.858 640.246C262.376 640.539 263.215 641.413 263.52 644.062C263.83 646.754 264.571 647.5 266.934 647.5C269.041 647.5 270.145 646.651 270.591 644.688C274.693 626.628 274.711 625 270.826 625C268.919 625 267.405 626.088 266.478 628.125C264.434 632.611 258.75 632.551 258.75 628.043C258.75 622.02 260.818 620 266.981 620C273.381 620 279.292 622.594 281.257 626.263C282.551 628.683 288.006 629.751 289.161 627.812C289.467 627.296 289.126 623.641 288.4 619.688L287.083 612.5H262.916H238.75V615.491ZM364.077 625.054C352.849 644.627 347.116 653.019 344.062 654.359C342.317 655.125 341.25 656.685 341.25 658.473C341.25 661.274 341.526 661.341 351.549 660.987C360.396 660.676 361.909 660.3 362.287 658.323C362.535 657.026 361.586 655.22 360.117 654.191C357.659 652.469 357.619 652.145 359.439 648.626C361.327 644.974 361.561 644.898 369.749 645.256L378.125 645.625V649.983C378.125 653.349 377.556 654.449 375.625 654.815C372.946 655.324 371.3 657.164 371.269 659.688C371.255 660.851 375.044 661.25 386.104 661.25C400.386 661.25 400.986 661.144 401.683 658.483C402.339 655.97 401.355 654.489 398.316 653.418C397.734 653.213 395.366 645.188 393.055 635.585C390.744 625.981 388.538 616.86 388.153 615.312C387.516 612.758 386.711 612.5 379.366 612.5H371.28L364.077 625.054ZM460.812 615.286C460.351 617.051 460.756 618.449 461.917 619.099C464.349 620.459 464.279 627.882 461.71 641.25C460.128 649.489 459.004 652.39 456.709 654.166C455.081 655.428 453.75 657.536 453.75 658.854C453.75 661.064 454.774 661.25 466.875 661.25C479.453 661.25 480 661.139 480 658.575C480 657.104 479.043 655.2 477.873 654.345C475.876 652.885 475.912 651.836 478.464 637.398C480.74 624.511 481.697 621.53 484.341 619.077C490.349 613.506 488.846 612.5 474.521 612.5C462.149 612.5 461.507 612.63 460.812 615.286ZM523.054 621.529C528.979 629.986 520.332 655 511.485 655C510.132 655 507.706 653.931 506.092 652.624C503.566 650.579 503.183 649.22 503.33 642.834C503.524 634.398 507.659 623.406 511.705 620.573C515.586 617.854 520.787 618.291 523.054 621.529ZM375.504 634.062L376.364 638.75H371.306C368.525 638.75 366.25 638.147 366.25 637.41C366.25 636.674 367.755 633.501 369.595 630.361C373.252 624.123 373.738 624.425 375.504 634.062ZM615 716.875V746.25H318.75H22.5V716.875V687.5H318.75H615V716.875ZM58.7475 702.679C58.7488 703.121 59.5938 703.806 60.625 704.202C63.3937 705.265 63.3188 726.503 60.5363 729.286C58.75 731.071 59.1188 731.246 64.5988 731.212C69.3013 731.182 70.1438 730.894 68.4375 729.9C66.865 728.984 66.25 727.039 66.25 722.98C66.25 717.566 66.39 717.35 69.6675 717.73C72.1813 718.02 74.2463 719.847 77.48 724.642C81.0825 729.984 82.5375 731.167 85.5462 731.205L89.2175 731.25L86.05 727.812C82.3075 723.75 78.75 718.589 78.75 717.221C78.75 716.687 79.5812 716.25 80.5962 716.25C81.6112 716.25 83.3437 714.874 84.4462 713.191C86.17 710.56 86.2162 709.644 84.7762 706.629C83.1462 703.219 82.7775 703.109 70.9237 702.5C64.225 702.156 58.745 702.236 58.7475 702.679ZM227.62 702.775C219.839 706.919 216.94 718.269 221.777 725.652C224.637 730.016 231.73 732.923 237.073 731.92C241.5 731.09 248.692 725.781 247.291 724.378C246.834 723.918 245.301 724.699 243.886 726.114C238.687 731.312 230.316 731.054 226.733 725.584C223.95 721.335 224.24 711.618 227.272 707.539C231.499 701.858 239.465 702.596 243.601 709.054C245.686 712.311 246.209 712.625 246.211 710.625C246.219 705.99 244.766 702.675 242.69 702.584C241.554 702.534 238.375 702.197 235.625 701.834C232.693 701.447 229.382 701.836 227.62 702.775ZM307.892 703.688C303.012 706.663 301 710.212 301 715.841C301 724.474 304.979 729.771 312.939 731.732C321.58 733.862 331.25 726.264 331.25 717.343C331.25 704.31 318.804 697.034 307.892 703.688ZM384.997 702.812C384.999 703.329 385.562 703.75 386.25 703.75C387.004 703.75 387.5 708.928 387.5 716.784C387.5 728.145 387.22 729.89 385.312 730.389C384.11 730.702 386.219 731.009 390 731.068C395.232 731.149 396.353 730.87 394.688 729.9C393.123 728.989 392.5 727.043 392.5 723.063C392.5 717.969 392.762 717.5 395.612 717.5C397.997 717.5 399.79 719.105 403.289 724.375C407.098 730.11 408.462 731.25 411.524 731.25H415.192L411.659 727.708C406.691 722.729 403.893 717.253 405.96 716.559C408.808 715.603 411.25 712.378 411.231 709.599C411.191 704.009 409.475 703.158 396.921 702.5C390.362 702.156 384.996 702.296 384.997 702.812ZM464.999 702.812C464.999 703.329 465.562 703.75 466.25 703.75C467 703.75 467.5 708.729 467.5 716.188C467.5 726.715 467.164 728.821 465.312 729.9C461.421 732.166 483.321 731.571 488.151 729.279C493.085 726.937 496.736 719.286 495.438 714.01C494.345 709.571 491.62 705.448 488.988 704.248C486.068 702.918 464.996 701.656 464.999 702.812ZM551.831 704.305C546.696 709.441 550.443 715.226 560.416 717.564C567.849 719.305 570 720.685 570 723.709C570 727.02 565.879 730 561.299 730C558.2 730 556.141 728.909 553.044 725.625C550.775 723.219 548.677 721.25 548.382 721.25C548.089 721.25 548.451 723.514 549.19 726.281C550.039 729.461 551.112 731.091 552.106 730.709C552.971 730.378 555.435 730.717 557.581 731.466C561.996 733.005 569.888 731.273 572.433 728.206C574.319 725.933 574.546 719.046 572.793 717.292C572.055 716.555 567.921 714.985 563.606 713.804C554.979 711.443 552.265 708.921 554.912 705.73C557.5 702.612 563.746 703.279 567.731 707.096C571.762 710.959 573.226 710.46 571.16 705.928C570.141 703.691 568.412 702.565 565.176 702.03C557.382 700.741 554.986 701.15 551.831 704.305ZM140.312 703.85C142.15 704.92 142.5 707.003 142.5 716.875C142.5 726.747 142.15 728.83 140.312 729.9C138.723 730.826 141.641 731.184 150.998 731.212L163.871 731.25L165.58 727.188C166.52 724.953 167.079 722.915 166.822 722.657C166.565 722.4 164.628 723.642 162.516 725.42C160.404 727.196 156.718 729.017 154.325 729.467C148.279 730.601 146.026 728.447 146.5 721.982C146.83 717.485 147.244 716.875 149.963 716.875C152.003 716.875 153.589 717.936 154.632 720C156.075 722.851 156.207 722.467 156.152 715.625C156.107 710.084 155.808 708.831 155.001 710.827C153.849 713.687 149.628 715.69 147.511 714.382C146.111 713.516 145.836 708.782 147.009 705.727C148.28 702.415 156.634 703.183 161.208 707.03C165.736 710.843 166.959 710.424 164.846 705.786C163.371 702.55 163.158 702.5 150.736 702.538C141.558 702.566 138.72 702.923 140.312 703.85ZM79.2863 705.714C84.085 710.514 80.6863 715 72.25 715H66.25V710.209C66.25 707.572 66.625 705.041 67.0837 704.584C68.6987 702.969 77.3413 703.769 79.2863 705.714ZM323.037 706.152C325.529 708.906 326.941 717.075 325.747 721.831C323.725 729.89 314.989 732.602 309.319 726.931C305.195 722.809 304.936 712.008 308.841 707.044C312.094 702.908 319.67 702.432 323.037 706.152ZM405.63 706.255C407.502 708.325 407.65 709.303 406.475 711.88C405.234 714.604 404.256 715 398.776 715H392.5V710.209C392.5 704.287 393.021 703.75 398.765 703.75C401.779 703.75 404.144 704.614 405.63 706.255ZM486.931 706.819C490.968 710.854 491.258 720.564 487.485 725.36C484.76 728.825 479.064 730.665 475.028 729.384C472.73 728.655 472.5 727.526 472.5 716.999C472.5 710.629 472.875 705.041 473.334 704.584C473.791 704.125 476.349 703.75 479.015 703.75C482.496 703.75 484.729 704.615 486.931 706.819Z" fill="black"/>
</svg>
